<?xml version="1.0" encoding="UTF-8"?>
<svg version="1.1" xmlns="http://www.w3.org/2000/svg" width="512" height="512">
<path d="M0 0 C1.01823853 0.00215515 2.03647705 0.0043103 3.08557129 0.00653076 C17.70747424 0.05622604 32.00633932 0.36188758 46.375 3.3125 C47.89383789 3.61051514 47.89383789 3.61051514 49.44335938 3.91455078 C82.96021771 10.61691835 116.43239122 23.30721197 144.375 43.3125 C145.30570312 43.96992187 146.23640625 44.62734375 147.1953125 45.3046875 C156.87601112 52.23488122 165.90710985 59.6783011 174.6171875 67.77734375 C176.76621096 69.75286249 178.93507074 71.64654364 181.1875 73.5 C184.2918954 76.12564527 186.89503031 79.05276759 189.51953125 82.15234375 C190.75466556 83.59030012 192.02350174 84.99998982 193.32421875 86.37890625 C205.11091538 98.90635645 215.07216651 113.27411717 223.375 128.3125 C223.83084473 129.12605957 224.28668945 129.93961914 224.75634766 130.77783203 C237.71530893 154.06980361 246.71303853 178.27134207 252.375 204.3125 C252.59945801 205.30540039 252.82391602 206.29830078 253.05517578 207.32128906 C259.94493801 239.12100514 259.40797287 276.60102036 252.375 308.3125 C252.18776367 309.19808594 252.00052734 310.08367187 251.80761719 310.99609375 C242.47417432 354.39096111 221.63482271 395.31288667 191.5390625 427.9609375 C190.09538883 429.52969481 188.67327663 431.11856886 187.2734375 432.7265625 C153.08711181 471.88544465 102.67521538 497.63764976 52.375 508.3125 C51.42318848 508.52422852 50.47137695 508.73595703 49.49072266 508.95410156 C17.66689378 515.76925039 -19.90354708 515.49781101 -51.625 508.3125 C-53.08317139 507.99104004 -53.08317139 507.99104004 -54.57080078 507.66308594 C-61.33504441 506.13218975 -67.98849207 504.32317627 -74.625 502.3125 C-75.54667969 502.0345459 -76.46835938 501.7565918 -77.41796875 501.47021484 C-113.17715613 490.4295034 -145.8837932 471.36325579 -173.08203125 445.703125 C-175.31582661 443.60315148 -177.59731158 441.60413078 -179.9375 439.625 C-183.19582529 436.79575459 -186.00907281 433.74604029 -188.79296875 430.453125 C-190.75859951 428.15639652 -192.81386063 425.96124011 -194.875 423.75 C-223.82290598 391.52035171 -242.39450344 350.18187971 -251.375 308.125 C-251.57383789 307.20017822 -251.77267578 306.27535645 -251.97753906 305.32250977 C-255.26941369 289.11581484 -256.0003085 273.18212105 -255.9375 256.6875 C-255.93534485 255.66959381 -255.9331897 254.65168762 -255.93096924 253.60293579 C-255.88129854 238.99386477 -255.63040191 224.66174147 -252.625 210.3125 C-252.42632324 209.33764648 -252.22764648 208.36279297 -252.02294922 207.35839844 C-241.77138226 158.35053302 -219.43217348 114.34635801 -184.625 78.3125 C-184.02606934 77.69165527 -183.42713867 77.07081055 -182.81005859 76.43115234 C-175.14623497 68.52999741 -167.40501606 60.98483045 -158.625 54.3125 C-158.08472168 53.89581055 -157.54444336 53.47912109 -156.98779297 53.04980469 C-125.1187531 28.55165293 -88.56685217 12.06060062 -49.1875 4 C-48.46860596 3.85264404 -47.74971191 3.70528809 -47.0090332 3.5534668 C-31.36274321 0.57960898 -15.88931915 -0.06049808 0 0 Z " fill="#8BD76A" transform="translate(255.625,-0.3125)"/>
<path d="M0 0 C0.89664368 0.08992218 1.79328735 0.17984436 2.71710205 0.27249146 C16.18807866 1.631102 29.54099002 3.19817804 42.75 6.25 C44.01191162 6.53810547 44.01191162 6.53810547 45.29931641 6.83203125 C54.85660788 9.06176623 64.07192801 11.53034681 72.75 16.25 C73.67039062 16.62898438 74.59078125 17.00796875 75.5390625 17.3984375 C76.63347656 18.31496094 76.63347656 18.31496094 77.75 19.25 C78.23477641 25.9789496 77.11579271 32.46123145 76.0703125 39.09765625 C75.89748749 40.22715195 75.72466248 41.35664764 75.54660034 42.52037048 C74.99500152 46.11863544 74.43535078 49.71558857 73.875 53.3125 C73.14613588 58.03219914 72.42067192 62.75241745 71.6953125 67.47265625 C71.43430756 69.16124252 71.43430756 69.16124252 71.16802979 70.88394165 C70.0504751 78.15114211 69.02696733 85.42160279 68.14013672 92.72045898 C67.75 95.25 67.75 95.25 66.75 97.25 C65.18740777 98.02261505 63.59939442 98.74427135 62 99.4375 C55.86959914 102.42388099 53.07028663 105.69833532 50.71728516 112.02807617 C49.10229457 117.82580842 49.39093169 123.86765261 49.3359375 129.83984375 C49.31657135 131.13950577 49.2972052 132.43916779 49.2772522 133.7782135 C49.22618655 137.21234179 49.1864252 140.64650901 49.14910889 144.08081055 C49.10890769 147.59368315 49.05788937 151.10639738 49.0078125 154.61914062 C48.91135664 161.49597768 48.82685603 168.3729167 48.75 175.25 C43.31395714 174.68555296 37.93037664 174.00353889 32.5390625 173.09375 C31.19669366 172.87321605 29.85424277 172.65318103 28.51171875 172.43359375 C26.46054666 172.09616941 24.41003638 171.75597105 22.36083984 171.40673828 C4.79633815 168.42586229 -12.77772622 168.03876411 -30.5625 168.0625 C-31.83568085 168.06340637 -31.83568085 168.06340637 -33.13458252 168.06433105 C-53.95165951 168.10436859 -73.88198789 170.25471062 -94.39599609 173.80102539 C-98.0056454 174.36887356 -101.62253778 174.81006549 -105.25 175.25 C-105.25879936 174.17124352 -105.25879936 174.17124352 -105.26777649 173.07069397 C-105.32592273 166.25972307 -105.39812326 159.44902686 -105.48571491 152.63837528 C-105.53025108 149.1377656 -105.56954269 145.63726781 -105.59643555 142.13647461 C-105.62766317 138.10241123 -105.68244401 134.06895464 -105.73828125 130.03515625 C-105.74467117 128.79105484 -105.7510611 127.54695343 -105.75764465 126.26515198 C-105.89871889 117.85133496 -106.7876304 111.08839968 -111.375 103.9375 C-114.55387298 100.96594483 -117.12568074 99.93993727 -121.26171875 98.79296875 C-126.53169105 94.70330459 -126.28319082 81.60980133 -127.16015625 75.296875 C-127.33252304 74.07848938 -127.50488983 72.86010376 -127.68247986 71.60479736 C-128.2291668 67.73699463 -128.77110583 63.86854682 -129.3125 60 C-129.85820676 56.11728076 -130.40493484 52.23471028 -130.95323181 48.35235596 C-131.29325652 45.94304604 -131.63166794 43.53350776 -131.96827698 41.12371826 C-132.12191208 40.03198303 -132.27554718 38.9402478 -132.43383789 37.81542969 C-132.56770401 36.8588446 -132.70157013 35.90225952 -132.8394928 34.91668701 C-133.11634389 33.11824061 -133.4359467 31.32592647 -133.79490662 29.54205322 C-134.4824028 26.07951585 -134.30972858 22.77398633 -134.25 19.25 C-109.30552253 5.5543264 -81.50857954 2.13812594 -53.5 -0.5625 C-52.24171387 -0.68641113 -50.98342773 -0.81032227 -49.68701172 -0.93798828 C-32.96023282 -2.423209 -16.67265309 -1.71315086 0 0 Z " fill="#45B2FC" transform="translate(284.25,110.75)"/>
<path d="M0 0 C33.07957021 -1.2738222 86.38244296 1.5738362 113.97802734 22.078125 C117.74525679 26.16807968 117.32222123 29.56590149 117.18212891 34.89746094 C116.88232815 39.56947564 116.18330943 44.0993788 115.35302734 48.703125 C113.26001943 60.98634297 111.47416462 73.30407311 109.72802734 85.640625 C109.45509481 87.56396721 109.18214592 89.4873071 108.90917969 91.41064453 C108.26332096 95.96617081 107.61993771 100.52204077 106.97802734 105.078125 C107.73212891 105.21089844 108.48623047 105.34367187 109.26318359 105.48046875 C116.06712945 106.97831582 119.75971661 110.52795979 123.71630859 115.98046875 C127.17563856 121.7317387 127.27986554 126.65111108 127.28442383 133.2175293 C127.29274734 134.23607498 127.30107086 135.25462067 127.30964661 136.30403137 C127.33373412 139.67017446 127.34251822 143.03612361 127.34912109 146.40234375 C127.35808984 148.74778806 127.36721173 151.09323178 127.3764801 153.43867493 C127.39297031 158.35716135 127.40067003 163.27557971 127.40356445 168.1940918 C127.40894173 174.48094347 127.44659554 180.76715065 127.49230862 187.05382061 C127.52212992 191.90015466 127.52928916 196.74633465 127.5302906 201.59275246 C127.5344844 203.90949257 127.54688471 206.2262335 127.56780815 208.54288292 C127.59482045 211.79297864 127.58986639 215.04159545 127.57739258 218.29174805 C127.59964401 219.7128035 127.59964401 219.7128035 127.62234497 221.16256714 C127.53977726 228.7602019 125.40021926 235.33900823 120.19325924 241.02817822 C114.90107468 245.99123633 109.47587354 247.33957313 102.26708984 247.2734375 C101.02314453 247.26699219 99.77919922 247.26054687 98.49755859 247.25390625 C96.56976563 247.22876953 96.56976563 247.22876953 94.60302734 247.203125 C93.29462891 247.19410156 91.98623047 247.18507813 90.63818359 247.17578125 C87.41794364 247.15227585 84.19808027 247.11941587 80.97802734 247.078125 C81.24196289 247.9918689 81.24196289 247.9918689 81.51123047 248.92407227 C83.84502504 257.21650746 85.67852937 265.5960546 87.47802734 274.015625 C88.06935605 276.77526645 88.66344911 279.53429555 89.25927734 282.29296875 C89.40163818 282.95807465 89.54399902 283.62318054 89.69067383 284.30844116 C90.80044624 289.43290866 92.11131605 294.48611405 93.54248047 299.52954102 C94.02369929 302.34537244 93.70681992 304.33557971 92.97802734 307.078125 C91.32802734 307.408125 89.67802734 307.738125 87.97802734 308.078125 C84.81126079 301.64153144 83.52234949 295.01647652 82.10302734 288.015625 C81.58350483 285.51405033 81.06265345 283.0127513 80.54052734 280.51171875 C80.28142578 279.26632324 80.02232422 278.02092773 79.75537109 276.73779297 C78.41234697 270.41495013 76.94389973 264.1208117 75.45117188 257.83178711 C75.2563623 256.99526611 75.06155273 256.15874512 74.86083984 255.296875 C74.68955566 254.57435547 74.51827148 253.85183594 74.34179688 253.10742188 C73.97802734 251.078125 73.97802734 251.078125 73.97802734 247.078125 C27.77802734 247.078125 -18.42197266 247.078125 -66.02197266 247.078125 C-66.35197266 250.378125 -66.68197266 253.678125 -67.02197266 257.078125 C-67.69814884 260.41590305 -68.41412932 263.70774089 -69.20947266 267.015625 C-69.65851469 268.92551701 -70.10637278 270.83568766 -70.55322266 272.74609375 C-70.79041016 273.75720215 -71.02759766 274.76831055 -71.27197266 275.81005859 C-72.08383378 279.34768002 -72.85373706 282.89271725 -73.61572266 286.44140625 C-73.88102783 287.66931885 -74.14633301 288.89723145 -74.41967773 290.16235352 C-74.94049022 292.57966402 -75.45607382 294.99810785 -75.96606445 297.41772461 C-76.20494385 298.51737549 -76.44382324 299.61702637 -76.68994141 300.75 C-77.00354614 302.22098145 -77.00354614 302.22098145 -77.32348633 303.72167969 C-78.02197266 306.078125 -78.02197266 306.078125 -80.02197266 308.078125 C-82.64697266 307.703125 -82.64697266 307.703125 -85.02197266 307.078125 C-85.2525753 301.3212775 -84.39898367 296.2050005 -83.15869141 290.59375 C-82.96604202 289.69750916 -82.77339264 288.80126831 -82.5749054 287.87786865 C-82.16717264 285.98783271 -81.75598876 284.09853835 -81.34155273 282.20996094 C-80.7148292 279.35254702 -80.09891602 276.49297312 -79.48486328 273.6328125 C-77.55847101 264.71715251 -75.61416643 255.82951542 -73.02197266 247.078125 C-74.32231445 247.11740112 -74.32231445 247.11740112 -75.64892578 247.1574707 C-78.89918761 247.24324391 -82.14886821 247.30563944 -85.39990234 247.3527832 C-86.80048735 247.37775912 -88.20094427 247.41175317 -89.60107422 247.45532227 C-104.72296083 247.91372468 -104.72296083 247.91372468 -111.02197266 242.078125 C-113.04541016 240.0859375 -113.04541016 240.0859375 -114.39697266 238.203125 C-114.85845703 237.58695313 -115.31994141 236.97078125 -115.79541016 236.3359375 C-119.20367235 230.06213002 -119.32339221 223.87088871 -119.32836914 216.89526367 C-119.34085442 215.39626778 -119.34085442 215.39626778 -119.35359192 213.86698914 C-119.37760738 210.57665057 -119.38645358 207.28651056 -119.39306641 203.99609375 C-119.40203884 201.69834842 -119.41116079 199.40060367 -119.42042542 197.1028595 C-119.43689478 192.29048241 -119.44461186 187.47817473 -119.44750977 182.66577148 C-119.45289269 176.51573423 -119.4905788 170.36635401 -119.53625393 164.21650219 C-119.56607395 159.47139636 -119.5732344 154.72644786 -119.57423592 149.98125648 C-119.57842799 147.71475527 -119.59082132 145.44825314 -119.61175346 143.18184471 C-119.63877067 140.00380189 -119.63381103 136.82727098 -119.62133789 133.64916992 C-119.63617218 132.72364319 -119.65100647 131.79811646 -119.66629028 130.84454346 C-119.5826941 123.32110269 -117.40685246 116.73146074 -112.21669674 111.12967205 C-108.26637424 107.51308851 -104.50791863 105.078125 -99.02197266 105.078125 C-100.02779605 97.83584758 -101.03613491 90.59392489 -102.04755974 83.35242748 C-102.51728484 79.98877987 -102.9861893 76.62502239 -103.453125 73.26098633 C-103.99215089 69.38071864 -104.53413357 65.50087334 -105.07666016 61.62109375 C-105.24132782 60.43106247 -105.40599548 59.24103119 -105.57565308 58.01493835 C-106.4537659 51.75703741 -107.43497529 45.53910648 -108.61662292 39.33097839 C-109.10550267 36.61388176 -109.38816582 33.96311919 -109.45947266 31.203125 C-109.49943359 30.33945313 -109.53939453 29.47578125 -109.58056641 28.5859375 C-108.64909702 24.40409592 -105.86618361 22.25790706 -102.33666992 20 C-100.44702789 18.93607319 -98.53542539 17.96236933 -96.58447266 17.015625 C-95.87709961 16.66983398 -95.16972656 16.32404297 -94.44091797 15.96777344 C-87.81928533 12.8274649 -81.16878671 10.71423228 -74.02197266 9.078125 C-73.35407715 8.91892578 -72.68618164 8.75972656 -71.99804688 8.59570312 C-50.03884041 3.43591701 -26.62366771 0.629551 -4.07128906 0.125 C-2.71390826 0.09395198 -1.3567235 0.0524211 0 0 Z M-102.02197266 28.078125 C-102.24380765 34.93231035 -101.38406003 41.4123483 -100.34228516 48.1796875 C-100.16946014 49.33375092 -99.99663513 50.48781433 -99.818573 51.67684937 C-99.26685099 55.3531242 -98.70712413 59.02812608 -98.14697266 62.703125 C-97.77793544 65.14965704 -97.40944068 67.59627097 -97.04150391 70.04296875 C-96.50950395 73.58038172 -95.97669873 77.11765422 -95.44000244 80.65435791 C-94.37309024 87.69006899 -93.34980232 94.72848067 -92.41210938 101.78271484 C-92.13306979 104.09844723 -92.13306979 104.09844723 -91.02197266 106.078125 C-89.45938043 106.85074005 -87.87136708 107.57239635 -86.27197266 108.265625 C-80.14157179 111.25200599 -77.34225929 114.52646032 -74.98925781 120.85620117 C-73.37426722 126.65393342 -73.66290434 132.69577761 -73.60791016 138.66796875 C-73.58854401 139.96763077 -73.56917786 141.26729279 -73.54922485 142.6063385 C-73.49815921 146.04046679 -73.45839786 149.47463401 -73.42108154 152.90893555 C-73.38088034 156.42180815 -73.32986202 159.93452238 -73.27978516 163.44726562 C-73.18332929 170.32410268 -73.09882869 177.2010417 -73.02197266 184.078125 C-67.83481666 183.44972663 -62.67592502 182.73797481 -57.51416016 181.921875 C-56.10014062 181.70154703 -54.68607662 181.48150423 -53.27197266 181.26171875 C-51.09346107 180.92217882 -48.91526161 180.58103254 -46.73779297 180.23486328 C-31.58783444 177.83169508 -16.6809433 176.90896005 -1.34692383 176.94775391 C1.14491971 176.95308095 3.63658009 176.94779117 6.12841797 176.94140625 C23.16675895 176.93091311 39.79510108 177.7136469 56.60302734 180.578125 C58.66489254 180.92038975 60.727216 181.25966929 62.78988647 181.5970459 C64.63421474 181.90004533 66.47731764 182.21047741 68.3203125 182.52148438 C72.52949757 183.16204918 76.74387876 183.63847566 80.97802734 184.078125 C80.98389359 183.35895401 80.98975983 182.63978302 80.99580383 181.89881897 C81.05395008 175.08784807 81.12615061 168.27715186 81.21374226 161.46650028 C81.25827843 157.9658906 81.29757003 154.46539281 81.32446289 150.96459961 C81.35569051 146.93053623 81.41047135 142.89707964 81.46630859 138.86328125 C81.47269852 137.61917984 81.47908844 136.37507843 81.485672 135.09327698 C81.62674624 126.67945996 82.51565774 119.91652468 87.10302734 112.765625 C90.28190032 109.79406983 92.85370808 108.76806227 96.98974609 107.62109375 C102.25971839 103.53142959 102.01121817 90.43792633 102.88818359 84.125 C103.14673378 82.29742157 103.14673378 82.29742157 103.4105072 80.43292236 C103.95719414 76.56511963 104.49913318 72.69667182 105.04052734 68.828125 C105.58623411 64.94540576 106.13296218 61.06283528 106.68125916 57.18048096 C107.02128386 54.77117104 107.35969528 52.36163276 107.69630432 49.95184326 C107.84993942 48.86010803 108.00357452 47.7683728 108.16186523 46.64355469 C108.29573135 45.6869696 108.42959747 44.73038452 108.56752014 43.74481201 C108.84437123 41.94636561 109.16397405 40.15405147 109.52293396 38.37017822 C109.97361448 36.10035012 110.07966055 34.07448405 110.04052734 31.765625 C110.00958984 29.9403125 110.00958984 29.9403125 109.97802734 28.078125 C108.69126422 27.31974287 107.39819531 26.57206231 106.10302734 25.828125 C105.02408203 25.20164062 105.02408203 25.20164062 103.92333984 24.5625 C82.7587771 13.89600949 58.21893355 11.56544607 34.97802734 9.078125 C33.88055176 8.95953125 32.78307617 8.8409375 31.65234375 8.71875 C-9.73397119 4.37114899 -65.86609713 5.40523831 -102.02197266 28.078125 Z " fill="#040604" transform="translate(252.02197265625,101.921875)"/>
<path d="M0 0 C4.16731621 2.74664023 6.86254689 6.21411671 8.75 10.8125 C9.04434204 13.64486694 9.04434204 13.64486694 9.10400391 16.95458984 C9.12967438 18.19622894 9.15534485 19.43786804 9.18179321 20.71713257 C9.19812772 22.0692179 9.21301525 23.42132137 9.2265625 24.7734375 C9.23471355 25.45733173 9.24286461 26.14122597 9.25126266 26.84584427 C9.29290025 30.46427432 9.32154154 34.08255449 9.34033203 37.70117188 C9.36247482 41.42999677 9.43129946 45.15643848 9.51067543 48.88442039 C9.5630639 51.76016546 9.57971938 54.63534397 9.58689499 57.5115242 C9.59661012 58.88552621 9.61979381 60.25950426 9.65697098 61.63303757 C9.93106426 72.42859255 9.93106426 72.42859255 6.98162842 75.88458252 C4.82177734 77.45166016 4.82177734 77.45166016 2.66537476 78.60952759 C0.32526671 80.07925847 -0.32305701 81.23345402 -1.25 83.8125 C-1.13680992 89.92476415 0.58049515 92.64299515 4.75 96.8125 C8.2825889 99.14737822 11.39685968 99.06853384 15.568573 99.07992554 C16.2537941 99.08445665 16.9390152 99.08898776 17.64500058 99.09365618 C19.94032291 99.10631319 22.23540836 99.104679 24.53076172 99.10302734 C26.17677109 99.10901178 27.82277765 99.11581713 29.46878052 99.12338257 C33.9398933 99.14105822 38.41092954 99.1457386 42.88207388 99.14701414 C46.6146803 99.1489132 50.34726888 99.1562708 54.07986844 99.16335833 C62.88642538 99.17964577 71.69294144 99.18452695 80.49951172 99.18310547 C89.58362642 99.18190386 98.6675036 99.20300865 107.75155818 99.2345928 C115.5512548 99.2607449 123.35087378 99.27147322 131.1506139 99.27019465 C135.80881607 99.26968471 140.46680717 99.27538554 145.12496567 99.29655075 C149.5064715 99.31591528 153.88756453 99.31606996 158.26908493 99.30151749 C159.8759064 99.29942607 161.48275359 99.30415013 163.08953094 99.3162384 C165.28599179 99.33169097 167.48102922 99.32238466 169.67745972 99.30697632 C170.90562346 99.30806585 172.13378719 99.30915539 173.39916801 99.31027794 C178.16491466 98.60230942 181.20037413 96.36212587 184.5625 93 C186.28121478 89.83394646 186.687885 87.4151702 186.75 83.8125 C184.85332713 79.94328735 183.65252827 78.19261649 179.64526367 76.50488281 C176.15730436 73.26133654 176.26241859 72.31963225 175.98950195 67.70214844 C175.95650196 65.10346502 175.95590754 62.51920435 175.98828125 59.921875 C175.98677775 58.53427806 175.98334506 57.14668198 175.97807312 55.75909424 C175.97374183 52.85019703 175.99056572 49.94240835 176.02270508 47.03369141 C176.06234128 43.32339792 176.05324471 39.6152002 176.02847004 35.90484238 C176.01420921 33.03746706 176.02443677 30.17057189 176.04198265 27.30323029 C176.0477946 25.93663941 176.04658648 24.56999855 176.03795815 23.20342255 C176.0043081 15.20808461 176.22942465 8.94962114 181.75 2.8125 C185.13135138 -0.2614558 187.69840725 -1.44361041 192.1875 -1.6875 C197.06092015 -1.44136767 199.83986067 -0.10093715 203.75 2.8125 C207.08640561 7.11470724 208.86572034 10.55287594 208.89717102 15.991745 C208.90790398 17.26795464 208.90790398 17.26795464 208.91885376 18.56994629 C208.92154266 19.50036743 208.92423157 20.43078857 208.92700195 21.3894043 C208.93357315 22.37185623 208.94014435 23.35430817 208.94691467 24.36653137 C208.96665147 27.62326126 208.97831189 30.879945 208.98828125 34.13671875 C208.99235678 35.24930368 208.9964323 36.36188862 209.00063133 37.50818825 C209.02149486 43.39827921 209.03579472 49.28834687 209.04516602 55.1784668 C209.0562239 61.25695653 209.09061622 67.33507955 209.13033772 73.41343975 C209.15650784 78.09154431 209.16485829 82.7695616 209.16844749 87.44773293 C209.17331331 89.68797084 209.18492709 91.92820487 209.20348549 94.1683712 C209.22788195 97.30874887 209.2269105 100.44817925 209.2199707 103.58862305 C209.23918579 104.96907303 209.23918579 104.96907303 209.25878906 106.37741089 C209.21103843 112.32511785 208.14363365 116.85487537 204.75 121.8125 C199.67317464 126.52669497 196.30413109 126.96120741 189.57745361 126.95967102 C188.72243216 126.96334771 187.86741071 126.9670244 186.98647952 126.9708125 C184.10458714 126.98187726 181.22273078 126.9856979 178.34082031 126.98950195 C176.28132003 126.99576449 174.22182089 127.0024111 172.162323 127.00941467 C166.55478332 127.02684377 160.94725218 127.03738161 155.33969212 127.0456202 C151.83834496 127.05076623 148.33700048 127.05684213 144.83565521 127.06313133 C133.88676078 127.08218859 122.93787311 127.09641868 111.98896527 127.1047433 C99.33917294 127.11451918 86.68955544 127.14084572 74.03982472 127.18124419 C64.26991857 127.21137769 54.50006261 127.22620954 44.73011088 127.22952431 C38.89145966 127.23187793 33.0529951 127.24087893 27.21439362 127.26598549 C21.72162531 127.28922277 16.22916713 127.29351685 10.73636246 127.28322411 C8.71994878 127.28272758 6.70352007 127.28908225 4.68715286 127.30278015 C1.93455535 127.32043366 -0.81692135 127.31342518 -3.56951904 127.30024719 C-4.3677769 127.31121644 -5.16603475 127.32218568 -5.98848224 127.33348733 C-11.18818279 127.27337347 -14.11974129 126.23641592 -18.25 122.8125 C-21.91131536 118.06268548 -23.36257537 114.46654325 -23.39717102 108.55096436 C-23.40432632 107.70719742 -23.41148163 106.86343048 -23.41885376 105.99409485 C-23.42154266 105.07661972 -23.42423157 104.15914459 -23.42700195 103.21386719 C-23.43357315 102.2410228 -23.44014435 101.26817841 -23.44691467 100.26585388 C-23.46662175 97.04702678 -23.47830436 93.82824627 -23.48828125 90.609375 C-23.49439454 88.95842205 -23.49439454 88.95842205 -23.50063133 87.27411652 C-23.52148072 81.44885954 -23.53578753 75.62362605 -23.54516602 69.79833984 C-23.55622982 63.78825839 -23.59063301 57.77854723 -23.63033772 51.76859665 C-23.65650698 47.14110637 -23.66485814 42.51370431 -23.66844749 37.88614655 C-23.67331237 35.67102812 -23.68492347 33.45591361 -23.70348549 31.24086761 C-23.72788352 28.13651831 -23.72691042 25.03312716 -23.7199707 21.92871094 C-23.73278076 21.01933273 -23.74559082 20.10995453 -23.75878906 19.17301941 C-23.71066499 13.24712803 -22.60982129 8.75921961 -19.25 3.8125 C-13.57768831 -1.58311355 -7.29366887 -2.6649944 0 0 Z " fill="#C8C2C8" transform="translate(163.25,215.1875)"/>
<path d="M0 0 C1.1440329 0.00149048 2.2880658 0.00298096 3.46676636 0.0045166 C20.29632067 0.04393387 36.8218993 0.39882048 53.4375 3.3125 C54.3356543 3.4676709 55.23380859 3.6228418 56.15917969 3.78271484 C82.73513728 8.53846355 82.73513728 8.53846355 88.4375 15.3125 C88.4375 18.10485043 87.5121461 19.21728132 85.7968359 21.40533352 C82.63830411 23.95852908 80.7234721 23.81783316 76.68812561 23.8271637 C76.01036605 23.83410922 75.33260649 23.84105475 74.63430876 23.84821075 C72.36402505 23.86650224 70.09478382 23.85621139 67.82446289 23.84594727 C66.19653033 23.85300473 64.56860433 23.86174902 62.94068909 23.87205505 C58.51913635 23.8945789 54.09794105 23.89160233 49.67635274 23.88273358 C45.98588609 23.87762742 42.29548684 23.88491326 38.60502714 23.89220566 C29.89914125 23.90921432 21.1934306 23.90562928 12.48754883 23.88891602 C3.50444442 23.8719936 -5.47817411 23.88782857 -14.46122545 23.9201389 C-22.17260967 23.94682506 -29.88384255 23.95411344 -37.59526831 23.94562382 C-42.2014844 23.94069173 -46.80740811 23.94292527 -51.41358757 23.96341133 C-55.74513593 23.98175325 -60.07598484 23.97582845 -64.4074955 23.95121193 C-65.99698919 23.94619922 -67.58653603 23.94970582 -69.17598724 23.96236038 C-71.34684434 23.97827625 -73.51539394 23.96335902 -75.68614197 23.94068909 C-76.90047881 23.94010278 -78.11481565 23.93951647 -79.36595058 23.93891239 C-83.46672362 23.13530365 -84.9828116 21.5272963 -87.5625 18.3125 C-87.6875 16.25 -87.6875 16.25 -86.5625 14.3125 C-78.60742963 7.20578504 -67.68727721 6.00647348 -57.5 4.1875 C-56.18346436 3.94966797 -56.18346436 3.94966797 -54.84033203 3.70703125 C-36.60346334 0.62492598 -18.46537953 -0.05952313 0 0 Z " fill="#84CCFA" transform="translate(255.5625,284.6875)"/>
<path d="M0 0 C1.68378048 1.68378048 1.12969231 3.77091809 1.13371277 6.08006287 C1.13797775 7.18080139 1.14224274 8.28153992 1.14663696 9.41563416 C1.14595718 11.24294823 1.14595718 11.24294823 1.14526367 13.10717773 C1.14862228 14.38182892 1.1519809 15.6564801 1.15544128 16.96975708 C1.16430165 20.47592345 1.16662025 23.98206543 1.16725707 27.48824191 C1.16820451 30.41085224 1.1718809 33.33345683 1.17542917 36.25606495 C1.18358149 43.14898439 1.18601269 50.04189075 1.18530273 56.93481445 C1.18470175 64.05517385 1.19525593 71.17545753 1.2110464 78.29579777 C1.22410369 84.40026089 1.2294874 90.50469922 1.22884732 96.60917622 C1.2285918 100.25895759 1.23147282 103.90867173 1.24202538 107.55843925 C1.25346638 111.62682176 1.24897069 115.69503368 1.24291992 119.76342773 C1.24853943 120.97961288 1.25415894 122.19579803 1.25994873 123.44883728 C1.253657 125.1041748 1.253657 125.1041748 1.24723816 126.79295349 C1.24778293 127.75585013 1.24832769 128.71874678 1.24888897 129.71082211 C1 132 1 132 -1 134 C-2.65 133.67 -4.3 133.34 -6 133 C-6 89.11 -6 45.22 -6 0 C-3.49749232 -1.25125384 -2.59701335 -0.83774624 0 0 Z " fill="#070E0E" transform="translate(259,131)"/>
<path d="M0 0 C3.875 0.875 3.875 0.875 5 2 C4.8271806 14.85428883 2.92018 27.77601231 1.53125 40.5390625 C1.28813185 42.79573171 1.04534006 45.0524361 0.80285645 47.30917358 C0.16790901 53.21275818 -0.47029163 59.11598569 -1.10955811 65.019104 C-2.13300037 74.47102609 -3.15325686 83.92328835 -4.1700592 93.37592697 C-4.52336848 96.65344851 -4.87919334 99.93068999 -5.23522949 103.20791626 C-5.4546677 105.24095241 -5.67379519 107.27402213 -5.89257812 109.30712891 C-5.99573082 110.25993555 -6.09888351 111.2127422 -6.20516205 112.19442177 C-6.8635686 118.38494023 -7.37029546 124.55987804 -7.67272949 130.77914429 C-8 133 -8 133 -10 135 C-12.625 134.625 -12.625 134.625 -15 134 C-15.30011531 123.62450362 -14.3654028 113.59324503 -13.171875 103.3125 C-12.97902144 101.60375205 -12.78683743 99.89492843 -12.59527588 98.18603516 C-12.09018145 93.69512965 -11.57666475 89.20522868 -11.06109619 84.71551514 C-10.45229408 79.40136667 -9.85303159 74.08613662 -9.25269318 68.77102661 C-8.7582333 64.39488516 -8.26194511 60.01897132 -7.7611084 55.64355469 C-6.75613943 46.84347485 -5.78637142 38.04137592 -4.88085938 29.23046875 C-4.70142824 27.50210828 -4.52192522 25.77375527 -4.34234619 24.04541016 C-4.0045902 20.79201722 -3.67756343 17.53778086 -3.35638428 14.28271484 C-3.20576994 12.8251532 -3.05477106 11.36763122 -2.90332031 9.91015625 C-2.71301239 8.00955444 -2.71301239 8.00955444 -2.51885986 6.07055664 C-2 3 -2 3 0 0 Z " fill="#020404" transform="translate(318,130)"/>
<path d="M0 0 C3.53571429 0.53571429 3.53571429 0.53571429 5 2 C5.27438614 3.70983966 5.48779496 5.42950375 5.67675781 7.15087891 C5.80086029 8.26203064 5.92496277 9.37318237 6.05282593 10.51800537 C6.25097397 12.35374115 6.25097397 12.35374115 6.453125 14.2265625 C6.59368317 15.49743713 6.73424133 16.76831177 6.87905884 18.07769775 C7.26187259 21.54082936 7.63912968 25.00454599 8.01528168 28.46840668 C8.32740773 31.33622271 8.64277504 34.20367813 8.95821953 37.07113075 C11.46378865 59.84899709 13.91276573 82.63315648 16.3031311 105.42340088 C16.38082733 106.16265808 16.45852356 106.90191528 16.53857422 107.66357422 C16.61328445 108.37459793 16.68799469 109.08562164 16.76496887 109.81819153 C17.09424147 112.87484941 17.4480466 115.92864542 17.8049469 118.98219299 C18.09792356 122.01301057 18.09452775 125.01986364 18.0625 128.0625 C18.05347656 129.18785156 18.04445312 130.31320312 18.03515625 131.47265625 C18.02355469 132.30667969 18.01195312 133.14070312 18 134 C16.35 134.33 14.7 134.66 13 135 C10.68762771 129.24164392 10.2152995 123.4233414 9.57958984 117.30664062 C9.45250137 116.13522018 9.3254129 114.96379974 9.19447327 113.75688171 C8.84875112 110.55702495 8.50900259 107.35660441 8.17213392 104.15580559 C7.81757296 100.79890996 7.45587913 97.44278231 7.09512329 94.08654785 C6.49049718 88.45156944 5.89102929 82.81606139 5.29492188 77.18017578 C4.60664564 70.6732311 3.91149844 64.16705027 3.21237218 57.66126299 C2.46670311 50.72181266 1.72589548 43.78184971 0.98659182 36.84171867 C0.77385256 34.84764053 0.56022992 32.85365866 0.34641647 30.85969543 C-0.0517348 27.13791662 -0.44567351 23.41571624 -0.83837891 19.69335938 C-0.95679642 18.59291794 -1.07521393 17.4924765 -1.19721985 16.35868835 C-2.30855031 5.73843844 -2.30855031 5.73843844 -2 2 C-1.34 1.34 -0.68 0.68 0 0 Z " fill="#020504" transform="translate(191,130)"/>
</svg>
