<?xml version="1.0" encoding="UTF-8"?>
<svg version="1.1" xmlns="http://www.w3.org/2000/svg" width="512" height="512">
<path d="M0 0 C1.09699219 -0.04253906 2.19398438 -0.08507813 3.32421875 -0.12890625 C16.63679514 1.30898335 29.74319641 13.39229747 40.375 20.6875 C44.07128373 23.21526028 47.77065867 25.73842816 51.47265625 28.2578125 C52.38714539 28.88055054 53.30163452 29.50328857 54.24383545 30.14489746 C60.80734164 34.59391602 67.46885297 38.85778863 74.19407654 43.05685425 C82.83541795 48.47398597 91.25726339 54.20831939 99.68920898 59.94384766 C118.10640429 72.47263734 118.10640429 72.47263734 136.8125 84.5625 C149.36323193 92.46280182 161.60107813 100.82001575 173.87765503 109.13702393 C188.75610804 119.22070653 188.75610804 119.22070653 203.875 128.9375 C212.66524261 134.45500096 221.35001818 140.12656483 229.9826355 145.88702393 C231.51610413 146.90751521 233.05275828 147.92323846 234.59280396 148.93377686 C253.61354046 161.42928064 253.61354046 161.42928064 256.3125 171.5625 C257.30968158 180.74706716 256.99035103 188.9252898 251.3125 196.5625 C246.63423021 201.7852715 241.31530271 205.14251681 234.296875 205.87890625 C228.76069488 206.07846623 224.65639212 205.85838929 219.59521484 203.53149414 C218.79127289 203.16472061 217.98733093 202.79794708 217.1590271 202.4200592 C216.54967316 202.13706467 215.94031921 201.85407013 215.3125 201.5625 C215.31190291 202.172334 215.31130582 202.78216799 215.31069064 203.41048181 C215.27478272 239.56861132 215.21812228 275.72665313 215.13457905 311.88470509 C215.12456181 316.22798665 215.11471764 320.57126858 215.10498047 324.91455078 C215.10206841 326.21153355 215.10206841 326.21153355 215.09909752 327.53471799 C215.0680916 341.52798829 215.0511008 355.52124219 215.03930578 369.51454036 C215.02688692 383.87709298 214.99936894 398.23955968 214.95788693 412.60205805 C214.93277255 421.46174524 214.91938122 430.3212899 214.92107043 439.18101318 C214.92110022 445.25965119 214.90643983 451.3381442 214.88033572 457.41672568 C214.86571397 460.92176641 214.8574658 464.42650982 214.86669731 467.93157578 C214.8733345 471.73817861 214.85542077 475.54391747 214.83148193 479.35043335 C214.84312256 480.99930324 214.84312256 480.99930324 214.85499835 482.68148363 C214.76065265 491.17104833 212.77302797 497.7269711 208.1875 504.875 C199.63139954 512.87309391 190.5468292 513.28485611 179.37133789 513.19741821 C177.76115318 513.20318617 176.15097506 513.21113181 174.54081059 513.22105443 C170.13591562 513.24185857 165.73156476 513.23164207 161.32666826 513.21612334 C156.56856192 513.20478731 151.81054763 513.22228371 147.05245972 513.23602295 C137.73918486 513.25823585 128.42611167 513.25346283 119.11282897 513.23895974 C111.54257921 513.22765985 103.9723859 513.22613986 96.40213013 513.23157883 C94.78490699 513.23272807 94.78490699 513.23272807 93.13501269 513.23390054 C90.94465532 513.23549919 88.75429798 513.23712026 86.56394064 513.2387635 C66.03330629 513.2530153 45.50278364 513.23663718 24.97216761 513.20976166 C7.36257404 513.18742342 -10.24685472 513.19130371 -27.85644531 513.21435547 C-48.31447977 513.24112349 -68.77241637 513.25164205 -89.23046589 513.23629415 C-91.41268729 513.23470143 -93.5949087 513.23312958 -95.77713013 513.23157883 C-96.85077613 513.23080745 -97.92442214 513.23003607 -99.03060287 513.22924132 C-106.59023989 513.22492734 -114.14981475 513.23220438 -121.70944214 513.24397659 C-130.92431943 513.25801124 -140.13898382 513.25418127 -149.35383677 513.22757287 C-154.05388272 513.21444775 -158.75357391 513.20926008 -163.4536171 513.22581863 C-167.75930666 513.24075824 -172.06431385 513.23246427 -176.36994183 513.20593087 C-177.92431248 513.20036285 -179.47874121 513.20314859 -181.03307426 513.21530981 C-189.77767498 513.27846005 -197.39302528 512.92807579 -204.6875 507.5625 C-212.65757157 499.34170467 -214.13475008 490.65235635 -214.08622742 479.59094238 C-214.09287424 478.3998768 -214.09952107 477.20881122 -214.10636932 475.98165274 C-214.12174464 472.69317705 -214.12384624 469.40500758 -214.12023985 466.11650801 C-214.11961432 462.56374973 -214.13625177 459.01106639 -214.15075684 455.45834351 C-214.17351808 449.30883728 -214.18542367 443.15938761 -214.18988609 437.00984192 C-214.19635375 428.11872606 -214.21930194 419.22771233 -214.24622939 410.33663768 C-214.28947524 395.91031189 -214.31945456 381.48399041 -214.34106445 367.05761719 C-214.36208074 353.04652796 -214.38936152 339.03547394 -214.42504883 325.02441406 C-214.42724765 324.16028713 -214.42944648 323.2961602 -214.43171193 322.40584761 C-214.44278175 318.07063175 -214.45397453 313.73541623 -214.46522844 309.40020084 C-214.55838236 273.45433096 -214.62999478 237.50844371 -214.6875 201.5625 C-215.29807755 201.8446788 -215.90865509 202.1268576 -216.53773499 202.41758728 C-217.34262863 202.78372635 -218.14752228 203.14986542 -218.97680664 203.52709961 C-219.77300919 203.89177841 -220.56921173 204.25645721 -221.38954163 204.63218689 C-227.16170558 206.96900894 -233.66664055 206.50029428 -239.53125 204.6796875 C-246.59370735 201.46754575 -250.52586861 197.02111022 -254.5625 190.5625 C-257.3592184 183.09896836 -256.97561626 173.37100391 -253.8125 166.125 C-248.38626169 157.27962275 -238.36822731 151.85528075 -229.8125 146.375 C-227.52923898 144.89691317 -225.24671925 143.41772134 -222.96484375 141.9375 C-222.02560814 141.32930168 -222.02560814 141.32930168 -221.06739807 140.70881653 C-212.43232322 135.11187806 -203.84646108 129.43987643 -195.25604248 123.77474976 C-192.45854559 121.93008968 -189.66025121 120.08664501 -186.86181641 118.2434082 C-177.95674501 112.37523006 -169.06474829 106.48832278 -160.1953125 100.56640625 C-150.38169019 94.014232 -140.53312496 87.51605938 -130.67553711 81.03027344 C-112.14988087 68.8441302 -112.14988087 68.8441302 -93.6875 56.5625 C-80.46621413 47.71531292 -67.16850718 38.98368013 -53.87817383 30.24072266 C-41.79036425 22.28594871 -41.79036425 22.28594871 -29.76171875 14.2421875 C-29.19381622 13.86004089 -28.6259137 13.47789429 -28.040802 13.08416748 C-25.5551092 11.4107226 -23.07368393 9.73160422 -20.59960938 8.04101562 C-13.92173637 3.53228931 -8.30076525 0.14461264 0 0 Z " fill="#F4F4F4" transform="translate(255.6875,-0.5625)"/>
<path d="M0 0 C1.07765625 -0.03738281 2.1553125 -0.07476562 3.265625 -0.11328125 C11.73472149 0.92161955 17.14040269 6.13192547 22.91015625 12.01855469 C23.68185654 12.78967087 24.45355682 13.56078705 25.24864197 14.35527039 C27.77953391 16.88893368 30.29598683 19.4364366 32.8125 21.984375 C34.57138963 23.75073031 36.33116849 25.51620056 38.09179688 27.28082275 C42.71034946 31.91460551 47.31676025 36.56027661 51.92071533 41.20855713 C56.62494688 45.95597637 61.34280209 50.689851 66.05859375 55.42578125 C75.30025608 64.71026836 84.52952061 74.00697809 93.75 83.3125 C98.00737754 81.36722094 100.87324872 78.41975786 104.10400391 75.10620117 C104.73226074 74.47020493 105.36051758 73.83420868 106.0078125 73.17893982 C107.37073847 71.7983718 108.73144952 70.41561446 110.09019852 69.03093529 C112.24658872 66.83507599 114.41046122 64.64686004 116.57675171 62.46076965 C122.73502909 56.2445142 128.88373879 50.01893061 135.01708984 43.77807617 C138.77154507 39.95889829 142.53832738 36.15224462 146.31296921 32.35302162 C147.74409166 30.9077046 149.17053664 29.45773952 150.59202957 28.00295067 C168.85610617 9.31728844 168.85610617 9.31728844 182.75 9 C199.3199496 9.18411055 209.27700759 19.46546602 220.35327148 30.54516602 C221.93516403 32.12267051 223.53242004 33.6834269 225.13085938 35.24414062 C234.35101513 44.36236708 241.47593261 53.29030085 242.0625 66.6875 C241.52830813 83.98938102 228.53843039 94.94992985 217.06640625 106.2890625 C215.64085733 107.70900588 214.21597694 109.12962071 212.79173279 110.5508728 C209.0682386 114.26299367 205.33582022 117.9660104 201.60137939 121.66711426 C197.78148593 125.4561438 193.9702276 129.25383797 190.15820312 133.05078125 C182.69716126 140.47979176 175.22664933 147.89919953 167.75 155.3125 C169.09014308 158.29804078 170.56014357 160.36409951 172.8868103 162.65617371 C173.53166885 163.29655579 174.1765274 163.93693787 174.84092712 164.59672546 C175.54745926 165.28821182 176.25399139 165.97969818 176.98193359 166.69213867 C177.72682541 167.42929108 178.47171722 168.16644348 179.23918152 168.92593384 C180.85711901 170.52621849 182.47724452 172.12429332 184.09928513 173.72041893 C186.66869609 176.25041658 189.23052165 178.7878628 191.79019165 181.32771301 C199.06888696 188.54836966 206.35696789 195.75943644 213.66015625 202.95532227 C218.12764424 207.35823095 222.58274272 211.7733618 227.03035355 216.19634438 C228.72491659 217.87667794 230.42413602 219.55232953 232.12812424 221.22310448 C234.51683834 223.5659125 236.88948838 225.92396037 239.25927734 228.28588867 C239.96176102 228.96725388 240.66424469 229.64861908 241.38801575 230.35063171 C246.56494363 235.55925793 249.9736889 240.97429093 251.28125 248.28125 C251.08242347 264.38619891 239.97195848 273.25299496 229.28515625 284.015625 C228.79406309 284.51079369 228.30296993 285.00596237 227.79699516 285.51613617 C225.20360312 288.13021243 222.60707358 290.74112612 220.00805664 293.34960938 C217.34241506 296.02636077 214.68867581 298.71460332 212.03733158 301.40550613 C209.97725834 303.49181755 207.90825881 305.56910475 205.8368206 307.64412689 C204.85474332 308.63104066 203.87601395 309.62129885 202.90089607 310.61508942 C195.81466968 317.8286616 188.91669697 324.17538834 178.3125 324.75 C162.84681023 324.21794431 152.7705285 311.11447189 142.734375 300.8828125 C141.02648667 299.16371664 139.31725614 297.4459533 137.60675049 295.72946167 C133.13496266 291.23489907 128.68149841 286.72260739 124.23175049 282.20623779 C119.67725696 277.59007742 115.1054696 272.99111368 110.53515625 268.390625 C101.58987295 259.38122938 92.66327297 250.35356 83.75 241.3125 C80.26037339 242.95569705 78.08153127 244.78825141 75.40307617 247.59106445 C74.55085983 248.47570877 73.69864349 249.36035309 72.82060242 250.27180481 C72.36887854 250.74474283 71.91715466 251.21768085 71.45174217 251.70495033 C69.53015193 253.71118802 67.58943655 255.69847013 65.64965534 257.6870985 C62.0457757 261.38196467 58.44929589 265.08317309 54.88793945 268.8190918 C52.4028853 271.42443302 49.89280194 274.00335589 47.36559486 276.56780052 C45.96135494 278.00633546 44.58406337 279.47102365 43.20780945 280.93635559 C35.99125997 288.21157787 29.49325142 290.79575437 19.75 293.3125 C18.61779022 293.62923676 17.48558044 293.94597351 16.31906128 294.27230835 C13.30476299 295.11428564 10.28017868 295.90474159 7.25 296.6875 C-3.39693563 299.49261056 -13.93382809 302.57095341 -24.44921875 305.83203125 C-25.69143188 306.21488281 -25.69143188 306.21488281 -26.95874023 306.60546875 C-28.97900167 307.22887601 -30.99745777 307.85812737 -33.015625 308.48828125 C-39.36589194 310.1065256 -45.74476576 310.47564447 -51.75 307.6875 C-56.11104375 303.54450844 -58.91905741 299.42336031 -59.5625 293.375 C-59.51915775 289.91303761 -58.58737952 287.08136238 -57.4375 283.828125 C-55.3125636 277.61615699 -53.58958237 271.35134973 -51.9375 265 C-49.37709497 255.31173517 -46.62757785 245.70481119 -43.6472168 236.13745117 C-43.3769165 235.26838135 -43.10661621 234.39931152 -42.828125 233.50390625 C-42.5698996 232.69821701 -42.31167419 231.89252777 -42.04562378 231.06242371 C-41.21304796 228.37556834 -41.21304796 228.37556834 -40.81907654 225.80618286 C-39.11888408 216.86043185 -33.77499181 211.79900117 -27.45703125 205.73828125 C-26.38339903 204.67960084 -25.31154228 203.61911718 -24.24137878 202.55693054 C-21.44265247 199.78850683 -18.62074894 197.04497463 -15.79302979 194.30621338 C-12.90274134 191.49829199 -10.03543536 188.66710657 -7.16601562 185.83789062 C-1.54937351 180.30661739 4.09201034 174.80147003 9.75 169.3125 C8.42376596 166.36903135 6.98923995 164.30851322 4.69584656 162.04475403 C4.06926147 161.42120026 3.44267639 160.79764648 2.79710388 160.15519714 C2.11084427 159.48241226 1.42458466 158.80962738 0.7175293 158.11645508 C-0.00624908 157.39880981 -0.73002747 156.68116455 -1.47573853 155.94177246 C-3.0478 154.38401503 -4.62208889 152.828503 -6.19832802 151.27497292 C-8.69625974 148.81183804 -11.18702297 146.34166374 -13.67582703 143.86930847 C-20.75324736 136.84076948 -27.84160601 129.82334193 -34.93920898 122.81518555 C-39.2813222 118.52680204 -43.61351072 114.22859501 -47.93984032 109.92429161 C-49.58700368 108.28950584 -51.23794754 106.65851973 -52.89278603 105.03150368 C-55.21427636 102.74868366 -57.52296219 100.4535856 -59.8293457 98.15551758 C-60.84962608 97.16152199 -60.84962608 97.16152199 -61.89051819 96.14744568 C-68.46657217 89.54438168 -73.3023797 82.26729886 -73.625 72.75 C-73.67398438 71.77933594 -73.72296875 70.80867188 -73.7734375 69.80859375 C-72.15693508 59.01180521 -64.55642064 51.90136383 -57.10546875 44.57421875 C-56.00988989 43.48035533 -54.91520492 42.38559596 -53.82136536 41.28999329 C-51.53861729 39.00888891 -49.24767708 36.73647355 -46.94995117 34.47045898 C-44.02129417 31.58152294 -41.11066505 28.67520621 -38.20556164 25.76260662 C-35.95071766 23.50467772 -33.68830798 21.25445701 -31.42342567 19.00660133 C-30.34795559 17.93810622 -29.27437176 16.86770872 -28.20281029 15.79529381 C-19.65719501 7.26001674 -12.58516498 0.28331533 0 0 Z " fill="#020201" transform="translate(167.25,153.6875)"/>
<path d="M0 0 C1.09699219 -0.04253906 2.19398438 -0.08507813 3.32421875 -0.12890625 C16.63679514 1.30898335 29.74319641 13.39229747 40.375 20.6875 C44.07128373 23.21526028 47.77065867 25.73842816 51.47265625 28.2578125 C52.38714539 28.88055054 53.30163452 29.50328857 54.24383545 30.14489746 C60.80734164 34.59391602 67.46885297 38.85778863 74.19407654 43.05685425 C82.83541795 48.47398597 91.25726339 54.20831939 99.68920898 59.94384766 C118.10640429 72.47263734 118.10640429 72.47263734 136.8125 84.5625 C149.36323193 92.46280182 161.60107813 100.82001575 173.87765503 109.13702393 C188.75610804 119.22070653 188.75610804 119.22070653 203.875 128.9375 C212.66524261 134.45500096 221.35001818 140.12656483 229.9826355 145.88702393 C231.51610413 146.90751521 233.05275828 147.92323846 234.59280396 148.93377686 C253.61354046 161.42928064 253.61354046 161.42928064 256.3125 171.5625 C257.30968158 180.74706716 256.99035103 188.9252898 251.3125 196.5625 C246.63423021 201.7852715 241.31530271 205.14251681 234.296875 205.87890625 C228.76069488 206.07846623 224.65639212 205.85838929 219.59521484 203.53149414 C218.79127289 203.16472061 217.98733093 202.79794708 217.1590271 202.4200592 C216.54967316 202.13706467 215.94031921 201.85407013 215.3125 201.5625 C215.31190291 202.172334 215.31130582 202.78216799 215.31069064 203.41048181 C215.27478272 239.56861132 215.21812228 275.72665313 215.13457905 311.88470509 C215.12456181 316.22798665 215.11471764 320.57126858 215.10498047 324.91455078 C215.10206841 326.21153355 215.10206841 326.21153355 215.09909752 327.53471799 C215.0680916 341.52798829 215.0511008 355.52124219 215.03930578 369.51454036 C215.02688692 383.87709298 214.99936894 398.23955968 214.95788693 412.60205805 C214.93277255 421.46174524 214.91938122 430.3212899 214.92107043 439.18101318 C214.92110022 445.25965119 214.90643983 451.3381442 214.88033572 457.41672568 C214.86571397 460.92176641 214.8574658 464.42650982 214.86669731 467.93157578 C214.8733345 471.73817861 214.85542077 475.54391747 214.83148193 479.35043335 C214.84312256 480.99930324 214.84312256 480.99930324 214.85499835 482.68148363 C214.76065265 491.17104833 212.77302797 497.7269711 208.1875 504.875 C199.63139954 512.87309391 190.5468292 513.28485611 179.37133789 513.19741821 C177.76115318 513.20318617 176.15097506 513.21113181 174.54081059 513.22105443 C170.13591562 513.24185857 165.73156476 513.23164207 161.32666826 513.21612334 C156.56856192 513.20478731 151.81054763 513.22228371 147.05245972 513.23602295 C137.73918486 513.25823585 128.42611167 513.25346283 119.11282897 513.23895974 C111.54257921 513.22765985 103.9723859 513.22613986 96.40213013 513.23157883 C94.78490699 513.23272807 94.78490699 513.23272807 93.13501269 513.23390054 C90.94465532 513.23549919 88.75429798 513.23712026 86.56394064 513.2387635 C66.03330629 513.2530153 45.50278364 513.23663718 24.97216761 513.20976166 C7.36257404 513.18742342 -10.24685472 513.19130371 -27.85644531 513.21435547 C-48.31447977 513.24112349 -68.77241637 513.25164205 -89.23046589 513.23629415 C-91.41268729 513.23470143 -93.5949087 513.23312958 -95.77713013 513.23157883 C-96.85077613 513.23080745 -97.92442214 513.23003607 -99.03060287 513.22924132 C-106.59023989 513.22492734 -114.14981475 513.23220438 -121.70944214 513.24397659 C-130.92431943 513.25801124 -140.13898382 513.25418127 -149.35383677 513.22757287 C-154.05388272 513.21444775 -158.75357391 513.20926008 -163.4536171 513.22581863 C-167.75930666 513.24075824 -172.06431385 513.23246427 -176.36994183 513.20593087 C-177.92431248 513.20036285 -179.47874121 513.20314859 -181.03307426 513.21530981 C-189.77767498 513.27846005 -197.39302528 512.92807579 -204.6875 507.5625 C-212.65757157 499.34170467 -214.13475008 490.65235635 -214.08622742 479.59094238 C-214.09287424 478.3998768 -214.09952107 477.20881122 -214.10636932 475.98165274 C-214.12174464 472.69317705 -214.12384624 469.40500758 -214.12023985 466.11650801 C-214.11961432 462.56374973 -214.13625177 459.01106639 -214.15075684 455.45834351 C-214.17351808 449.30883728 -214.18542367 443.15938761 -214.18988609 437.00984192 C-214.19635375 428.11872606 -214.21930194 419.22771233 -214.24622939 410.33663768 C-214.28947524 395.91031189 -214.31945456 381.48399041 -214.34106445 367.05761719 C-214.36208074 353.04652796 -214.38936152 339.03547394 -214.42504883 325.02441406 C-214.42724765 324.16028713 -214.42944648 323.2961602 -214.43171193 322.40584761 C-214.44278175 318.07063175 -214.45397453 313.73541623 -214.46522844 309.40020084 C-214.55838236 273.45433096 -214.62999478 237.50844371 -214.6875 201.5625 C-215.29807755 201.8446788 -215.90865509 202.1268576 -216.53773499 202.41758728 C-217.34262863 202.78372635 -218.14752228 203.14986542 -218.97680664 203.52709961 C-219.77300919 203.89177841 -220.56921173 204.25645721 -221.38954163 204.63218689 C-227.16170558 206.96900894 -233.66664055 206.50029428 -239.53125 204.6796875 C-246.59370735 201.46754575 -250.52586861 197.02111022 -254.5625 190.5625 C-257.3592184 183.09896836 -256.97561626 173.37100391 -253.8125 166.125 C-248.38626169 157.27962275 -238.36822731 151.85528075 -229.8125 146.375 C-227.52923898 144.89691317 -225.24671925 143.41772134 -222.96484375 141.9375 C-222.02560814 141.32930168 -222.02560814 141.32930168 -221.06739807 140.70881653 C-212.43232322 135.11187806 -203.84646108 129.43987643 -195.25604248 123.77474976 C-192.45854559 121.93008968 -189.66025121 120.08664501 -186.86181641 118.2434082 C-177.95674501 112.37523006 -169.06474829 106.48832278 -160.1953125 100.56640625 C-150.38169019 94.014232 -140.53312496 87.51605938 -130.67553711 81.03027344 C-112.14988087 68.8441302 -112.14988087 68.8441302 -93.6875 56.5625 C-80.46621413 47.71531292 -67.16850718 38.98368013 -53.87817383 30.24072266 C-41.79036425 22.28594871 -41.79036425 22.28594871 -29.76171875 14.2421875 C-29.19381622 13.86004089 -28.6259137 13.47789429 -28.040802 13.08416748 C-25.5551092 11.4107226 -23.07368393 9.73160422 -20.59960938 8.04101562 C-13.92173637 3.53228931 -8.30076525 0.14461264 0 0 Z M-5.73974609 61.00244141 C-6.53021332 61.53841949 -7.32068054 62.07439758 -8.13510132 62.62661743 C-8.98512726 63.2164743 -9.8351532 63.80633118 -10.7109375 64.4140625 C-11.59955475 65.01946869 -12.488172 65.62487488 -13.40371704 66.24862671 C-15.30649812 67.54609891 -17.2065074 68.84764355 -19.10400391 70.15283203 C-23.07392073 72.88309171 -27.0569572 75.59384204 -31.04141235 78.30282593 C-32.93223193 79.58920464 -34.8213247 80.87812674 -36.70834351 82.17007446 C-42.95357986 86.43454157 -49.28984275 90.53099207 -55.6875 94.5625 C-62.86691771 99.09356607 -69.96599181 103.71914392 -76.9921875 108.484375 C-77.92717072 109.11611633 -78.86215393 109.74785767 -79.82546997 110.39874268 C-84.59299894 113.62058468 -89.35492848 116.85056204 -94.11328125 120.0859375 C-101.88915498 125.36467178 -109.65955462 130.61950875 -117.6640625 135.546875 C-127.71569653 141.73459559 -137.42968439 148.42514364 -147.1875 155.0625 C-169.57778336 170.29257766 -169.57778336 170.29257766 -179.12634277 176.04211426 C-180.2728202 176.74034366 -181.40921959 177.45544458 -182.53387833 178.18830031 C-184.13417639 179.20943096 -185.76872652 180.17728157 -187.41894913 181.1155923 C-193.2278135 184.66220948 -193.2278135 184.66220948 -196.70606995 190.28213441 C-197.08988754 193.56328603 -197.12601253 196.69113806 -197.04394531 199.99394226 C-197.05687181 201.2345662 -197.06979832 202.47519013 -197.08311653 203.75340873 C-197.10772914 207.18284855 -197.08322208 210.60546347 -197.03751707 214.03425562 C-197.00019408 217.73645993 -197.02654032 221.43829273 -197.04483032 225.14056396 C-197.07059187 232.38611497 -197.03781193 239.63027051 -196.98514116 246.87562998 C-196.92599456 255.31324373 -196.92492766 263.75056625 -196.92621589 272.18835066 C-196.92653002 287.24150465 -196.87411514 302.29401363 -196.79199219 317.34692383 C-196.71234523 331.95444599 -196.66988391 346.56144672 -196.66894531 361.16918945 C-196.66888237 362.06932031 -196.66881943 362.96945117 -196.66875458 363.89685871 C-196.66869667 364.7954332 -196.66863876 365.69400769 -196.6685791 366.61981171 C-196.66728891 383.25235509 -196.6331622 399.88468415 -196.58250904 416.51714646 C-196.56527294 422.39943596 -196.55743709 428.28169624 -196.55236816 434.16400719 C-196.5454735 441.32969114 -196.51945458 448.49502703 -196.46965206 455.66054543 C-196.44457147 459.31693631 -196.42732558 462.97290402 -196.43156815 466.62938881 C-196.43582209 470.59061498 -196.40135842 474.55095511 -196.36279297 478.51200867 C-196.36985386 479.67094484 -196.37691475 480.829881 -196.38418961 482.02393645 C-196.36745068 483.08442696 -196.35071175 484.14491747 -196.33346558 485.23754406 C-196.32940138 486.15175096 -196.32533718 487.06595785 -196.32114983 488.00786799 C-195.39453206 491.74363387 -193.70785715 493.24002206 -190.6875 495.5625 C-187.5790566 496.30354326 -187.5790566 496.30354326 -184.13600922 496.18611908 C-183.4884676 496.19278709 -182.84092599 496.1994551 -182.1737619 496.20632517 C-180.00044113 496.22258883 -177.82891508 496.20317615 -175.65563965 496.18395996 C-174.08333161 496.18828831 -172.51102832 496.19480371 -170.93873739 496.20332003 C-166.615485 496.22034202 -162.29281017 496.20610932 -157.96958804 496.18680525 C-153.30830037 496.17140187 -148.64708455 496.184774 -143.98579407 496.19454956 C-134.8533029 496.20909092 -125.72103372 496.1968272 -116.58856356 496.17543632 C-105.9582412 496.15144913 -95.32796995 496.15313929 -84.69762653 496.15574223 C-65.73310459 496.15943415 -46.76868738 496.13859176 -27.80419922 496.10449219 C-9.39303948 496.07139973 9.01801034 496.0572337 27.42919922 496.06347656 C47.46743487 496.07023769 67.50562444 496.06778824 87.54385328 496.04811716 C88.60307252 496.04707768 89.66229176 496.04603819 90.75360855 496.0449672 C92.8811228 496.04287627 95.00863702 496.0407653 97.13615122 496.03863403 C104.54978117 496.03173288 111.96339693 496.03107005 119.37702942 496.03251648 C128.40914265 496.03395489 137.44116612 496.0242891 146.47324955 496.00057012 C151.08344722 495.98869457 155.69351966 495.98159531 160.30373192 495.98740768 C164.52162807 495.9925684 168.73925933 495.98393078 172.95711011 495.96413308 C174.48529599 495.95938192 176.01350757 495.95970778 177.54168969 495.96554345 C179.61511331 495.97269785 181.68765267 495.96148987 183.76100922 495.94561005 C185.49017712 495.94325324 185.49017712 495.94325324 187.25427771 495.94084883 C190.67408962 495.51776584 192.56332337 494.60686583 195.3125 492.5625 C196.55712339 490.07325322 196.44927919 488.39303024 196.46627426 485.60668755 C196.475049 484.55217018 196.48382373 483.49765281 196.49286437 482.41118038 C196.49745485 481.24350568 196.50204532 480.07583099 196.5067749 478.87277222 C196.51539055 477.63939153 196.5240062 476.40601084 196.53288293 475.13525498 C196.5556246 471.7005423 196.57377346 468.26586211 196.58981514 464.83111525 C196.60433646 461.88774426 196.6225138 458.94440017 196.64064655 456.00104956 C196.81176268 428.09900196 196.89627224 400.19631732 196.96456528 372.29385185 C196.97361401 368.66107009 196.98282362 365.02828878 196.9921875 361.39550781 C196.99450741 360.49258102 196.99682733 359.58965423 196.99921754 358.65936603 C197.03798673 344.03411269 197.11852107 329.40938462 197.21531627 314.78441273 C197.31384498 299.77324052 197.3707394 284.762341 197.38814378 269.7508527 C197.39905134 261.32066591 197.42882452 252.89143764 197.50609589 244.46157455 C197.57189058 237.28146756 197.6005363 230.10244027 197.58052835 222.92203788 C197.57149724 219.25844553 197.58026508 215.59718834 197.63721848 211.93397713 C197.69852677 207.95979421 197.67434459 203.98871208 197.64202881 200.01412964 C197.67338794 198.85983928 197.70474708 197.70554891 197.73705649 196.51628006 C197.63414586 191.6255214 197.45362818 188.73653471 193.95807314 185.14017892 C191.15621297 183.07611879 188.32651602 181.29828422 185.3125 179.5625 C183.56803519 178.41166259 181.82879582 177.25281731 180.09765625 176.08203125 C178.19174694 174.84382185 176.28408463 173.60830803 174.375 172.375 C172.10878683 170.90193582 169.84310555 169.42808137 167.578125 167.953125 C166.95629837 167.54848526 166.33447174 167.14384552 165.69380188 166.72694397 C156.95773807 161.03693667 148.25663684 155.29363258 139.55245972 149.55502319 C136.68838448 147.66678828 133.82382425 145.77929085 130.95922852 143.8918457 C123.2465339 138.80825471 115.53610719 133.72177461 107.85546875 128.58984375 C98.04016418 122.03184217 88.17241298 115.55313795 78.3125 109.0625 C63.51124039 99.3190451 48.71294136 89.57488706 34.03713989 79.64312744 C30.60732775 77.32386125 27.17302414 75.01130004 23.73803711 72.69970703 C21.97417283 71.51017397 20.21250106 70.31738423 18.45288086 69.12158203 C15.87663526 67.3719026 13.29274607 65.63408177 10.70703125 63.8984375 C9.5289666 63.09241592 9.5289666 63.09241592 8.32710266 62.27011108 C7.59501083 61.78184845 6.86291901 61.29358582 6.10864258 60.79052734 C5.46993729 60.35880219 4.83123199 59.92707703 4.173172 59.48226929 C0.18696422 57.51180298 -2.38993545 58.70184391 -5.73974609 61.00244141 Z " fill="#020101" transform="translate(255.6875,-0.5625)"/>
<path d="M0 0 C3.20138488 1.5898936 6.10224663 3.556991 9.05078125 5.5703125 C10.36784561 6.44574707 10.36784561 6.44574707 11.71151733 7.33886719 C14.58730315 9.25477457 17.44971045 11.18973919 20.3125 13.125 C22.315952 14.46466764 24.32027371 15.8030355 26.32543945 17.14013672 C31.31903153 20.47382718 36.30271089 23.82200342 41.28381348 27.17431641 C45.11750917 29.7511333 48.95987748 32.31480649 52.8046875 34.875 C53.46950134 35.31774765 54.13431519 35.7604953 54.8192749 36.21665955 C56.12809741 37.08824946 57.43695505 37.95978662 58.74584961 38.83126831 C60.71108577 40.14071532 62.67505229 41.45204626 64.63867188 42.76391602 C79.65593687 52.79397406 94.74962709 62.70794935 109.83769226 72.63102722 C119.36771809 78.8987594 128.89425671 85.17177868 138.41903687 91.44747925 C141.14337215 93.24225424 143.8681789 95.03631166 146.59301758 96.83032227 C155.2009661 102.50031319 163.79516159 108.18989006 172.3671875 113.9140625 C179.70453494 118.81350796 187.05916353 123.68576019 194.4296875 128.53515625 C195.37336182 129.15608658 196.31703613 129.77701691 197.28930664 130.41676331 C201.13443502 132.94607774 204.98010557 135.47456399 208.82666016 138.00170898 C211.69512902 139.88665521 214.56247858 141.77329426 217.4296875 143.66015625 C218.29012665 144.22477066 219.1505658 144.78938507 220.03707886 145.37110901 C233.48265997 154.22398995 233.48265997 154.22398995 236 158 C236.3281688 162.5691195 235.77223031 166.04606844 232.875 169.625 C229.07504861 171.44236806 227.08238962 170.89026944 223 170 C220.1496582 168.51074219 220.1496582 168.51074219 217.30078125 166.546875 C216.76443054 166.18320831 216.22807983 165.81954163 215.67547607 165.44485474 C214.50121875 164.64666988 213.33089069 163.84268075 212.16409302 163.03363037 C209.59154289 161.25019122 206.99993866 159.49530519 204.40940857 157.73812866 C202.97759076 156.76658122 201.54676306 155.7935733 200.11683655 154.81924438 C190.17626766 148.05455964 180.11064395 141.47823196 170.0625 134.875 C166.38608839 132.45668609 162.71041417 130.03725433 159.03515625 127.6171875 C158.15757156 127.03940552 157.27998688 126.46162354 156.37580872 125.86633301 C151.42654887 122.6056827 146.48631435 119.33216289 141.55859375 116.0390625 C131.73850602 109.47650419 121.86534894 102.99421637 112 96.5 C90.55467577 82.38285356 90.55467577 82.38285356 80.74462891 75.8269043 C71.52643165 69.67270302 62.25784293 63.59430396 53 57.5 C31.48097821 43.33433952 31.48097821 43.33433952 22.65625 37.4453125 C22.05268677 37.04265167 21.44912354 36.63999084 20.82727051 36.22512817 C18.36961249 34.58467578 15.9135597 32.94191877 13.4609375 31.29394531 C11.48390103 29.97149216 9.4952218 28.66977159 7.5 27.375 C6.86320313 26.94316406 6.22640625 26.51132812 5.5703125 26.06640625 C4.93867188 25.66035156 4.30703125 25.25429688 3.65625 24.8359375 C3.11806641 24.48063965 2.57988281 24.1253418 2.02539062 23.75927734 C-1.14077761 22.57234591 -3.64542937 22.67831661 -7 23 C-10.23255442 24.52033699 -10.23255442 24.52033699 -13.35546875 26.79296875 C-13.95854355 27.20253311 -14.56161835 27.61209747 -15.18296814 28.03407288 C-16.49965944 28.93094895 -17.81132519 29.8352373 -19.11846924 30.74597168 C-21.97150075 32.73372643 -24.8482661 34.68593492 -27.72344971 36.64144897 C-29.28655078 37.70532755 -30.84832543 38.77115718 -32.40887451 39.83877563 C-41.60792988 46.12585606 -50.9225975 52.23625135 -60.23574829 58.35244751 C-64.84951466 61.38259675 -69.46012039 64.41754141 -74.0703125 67.453125 C-74.93850113 68.02464798 -75.80668976 68.59617096 -76.70118713 69.18501282 C-81.62098123 72.4257878 -86.53151248 75.67977775 -91.4296875 78.953125 C-102.21374692 86.15986328 -113.05980657 93.27308563 -123.89355469 100.40478516 C-133.38340857 106.65251365 -142.87170238 112.90166967 -152.31881714 119.21388245 C-157.55743883 122.71140018 -162.8122632 126.18411453 -168.0703125 129.65234375 C-168.95783707 130.23777954 -169.84536163 130.82321533 -170.75978088 131.4263916 C-175.49419163 134.54782439 -180.23133903 137.66504013 -184.97143555 140.77783203 C-197.00851924 148.68012106 -197.00851924 148.68012106 -208.95874023 156.71272278 C-211.62807608 158.52925357 -214.3059245 160.33299072 -216.98455811 162.13577271 C-218.19171543 162.9541479 -219.39420164 163.77946114 -220.59161377 164.61203003 C-222.22241295 165.74555934 -223.87057446 166.85398847 -225.51953125 167.9609375 C-226.41776611 168.57759277 -227.31600098 169.19424805 -228.24145508 169.82958984 C-231.87434371 171.37097122 -234.20927451 170.89193541 -238 170 C-240.24604704 168.45584266 -240.83876521 167.489201 -241.6875 164.9140625 C-241.790625 164.15867188 -241.89375 163.40328125 -242 162.625 C-242.12375 161.87476563 -242.2475 161.12453125 -242.375 160.3515625 C-241.66496314 155.89903971 -237.57524371 153.4220941 -234.10131836 150.87304688 C-233.02503174 150.16212891 -231.94874512 149.45121094 -230.83984375 148.71875 C-230.23434692 148.31653229 -229.6288501 147.91431458 -229.00500488 147.49990845 C-226.98617396 146.16096625 -224.96189605 144.83051013 -222.9375 143.5 C-221.49129636 142.54329178 -220.04542286 141.58608433 -218.59985352 140.62841797 C-214.60595284 137.98506458 -210.60688565 135.34962961 -206.60644531 132.71618652 C-203.9126464 130.94248294 -201.21985548 129.16725844 -198.52734375 127.39160156 C-190.90703932 122.366178 -183.28616671 117.34162369 -175.66186523 112.32226562 C-165.55131838 105.66553815 -155.45553551 98.98899002 -145.39501953 92.25683594 C-133.06118242 84.01681093 -120.65905518 75.87951724 -108.26757812 67.7265625 C-95.81418905 59.53030493 -83.39562812 51.28333067 -71 43 C-69.59139448 42.05891253 -68.18278472 41.1178314 -66.77416992 40.17675781 C-64.8309681 38.87851175 -62.88780578 37.58020704 -60.94485474 36.28158569 C-55.48768362 32.63509774 -50.02229511 29.00102292 -44.55567932 25.36871338 C-40.10076493 22.40603039 -35.65853747 19.42526938 -31.22398376 16.4322052 C-28.2958307 14.45931468 -25.36022591 12.49771722 -22.42300415 10.5383606 C-21.02612839 9.60290205 -19.63248756 8.66259314 -18.24227905 7.71725464 C-16.31171889 6.4054056 -14.37041985 5.11116536 -12.42578125 3.8203125 C-11.86158478 3.43082932 -11.29738831 3.04134613 -10.71609497 2.64006042 C-6.95226488 0.17565546 -4.45347148 -0.82609147 0 0 Z " fill="#F04234" transform="translate(259,17)"/>
<path d="M0 0 C3.05519377 1.92924952 5.46593979 4.44047185 8 7 C9.0578424 8.04633308 10.11649217 9.09185029 11.17578125 10.13671875 C14.13813004 13.070805 17.07378823 16.02989505 20 19 C18.59078189 22.23821281 16.92309836 24.25364328 14.33984375 26.64453125 C13.62892578 27.32193359 12.91800781 27.99933594 12.18554688 28.69726562 C10.69060327 30.10388936 9.18799228 31.50240987 7.67773438 32.89257812 C4.2110321 36.22073826 2.2290575 38.12533643 0.98828125 42.86328125 C0.94136453 46.55528355 0.94136453 46.55528355 2 50 C5.7649387 51.25497957 8.03008618 51.52064444 12 51 C15.05751721 49.07587279 17.46666885 46.55879176 20 44 C21.0578424 42.95366692 22.11649217 41.90814971 23.17578125 40.86328125 C26.13813004 37.929195 29.07378823 34.97010495 32 32 C38.41069287 37.27101414 44.18590512 43.09128152 50 49 C49.154375 49.99 48.30875 50.98 47.4375 52 C46.62732422 52.9590625 46.62732422 52.9590625 45.80078125 53.9375 C44.58755287 55.32705441 43.33310299 56.68153946 42.04296875 58 C38.86897187 61.30974828 37.15646679 63.14654479 36.3125 67.75 C37.11482564 71.54281212 37.76487005 72.87162503 41 75 C43.82491198 75.91955603 43.82491198 75.91955603 47 75 C49.94603818 72.94366535 52.45625318 70.52860547 55 68 C55.6084375 67.40574219 56.216875 66.81148438 56.84375 66.19921875 C58.24458167 64.81490633 59.62470082 63.40968166 61 62 C64.15204981 63.39347376 66.26171773 65.02485079 68.671875 67.4765625 C69.33574219 68.146875 69.99960938 68.8171875 70.68359375 69.5078125 C71.70646484 70.55582031 71.70646484 70.55582031 72.75 71.625 C73.79607422 72.68460938 73.79607422 72.68460938 74.86328125 73.765625 C76.5801293 75.50599152 78.29123998 77.25170272 80 79 C74.4455361 85.74067958 68.32232514 91.89663731 62.1796875 98.09375 C61.33489019 98.94653282 61.33489019 98.94653282 60.47302628 99.81654358 C57.50197005 102.81414522 54.52737577 105.80818905 51.55029297 108.79980469 C49.08946683 111.27405917 46.63614938 113.75541756 44.18896484 116.24316406 C41.22342567 119.25783132 38.24597473 122.26021548 35.25934219 125.25398254 C34.12516203 126.39489116 32.99525363 127.54006269 31.86971664 128.6894989 C30.30202589 130.28861303 28.71950552 131.87143505 27.13232422 133.45117188 C26.23552948 134.35605347 25.33873474 135.26093506 24.4147644 136.1932373 C22 138 22 138 20.05625534 137.79671192 C17.69527218 136.88193087 16.47178276 135.84655266 14.68515015 134.05937195 C14.05148026 133.43271637 13.41781036 132.80606079 12.76493835 132.16041565 C12.08115616 131.46898972 11.39737396 130.77756378 10.69287109 130.06518555 C9.96398178 129.3399469 9.23509247 128.61470825 8.4841156 127.86749268 C6.07308993 125.46458275 3.67310507 123.05096754 1.2734375 120.63671875 C-0.39706181 118.96570093 -2.0680792 117.29520088 -3.73959351 115.62519836 C-7.24292614 112.12177596 -10.7410265 108.61323622 -14.23535156 105.10083008 C-18.7172098 100.59629357 -23.2100456 96.10290277 -27.7066288 91.61307049 C-31.15906804 88.16397123 -34.60650266 84.70990575 -38.05234909 81.25422096 C-39.70724343 79.59547421 -41.3634923 77.93807771 -43.02110672 76.28204918 C-45.33626749 73.96725883 -47.64482759 71.64608414 -49.95166016 69.32299805 C-50.63949081 68.63764481 -51.32732147 67.95229156 -52.03599548 67.24617004 C-52.66402573 66.61105499 -53.29205597 65.97593994 -53.93911743 65.32157898 C-54.75817283 64.49944428 -54.75817283 64.49944428 -55.5937748 63.6607008 C-57.93141495 60.90003284 -58.92035366 58.637039 -59.36904907 55.04821777 C-58.90548508 51.21933947 -57.76173018 49.97333035 -55.09521484 47.22851562 C-54.26979187 46.36589111 -53.4443689 45.5032666 -52.59393311 44.61450195 C-51.73793518 43.75171631 -50.88193726 42.88893066 -50 42 C-49.22891907 41.20489014 -48.45783813 40.40978027 -47.66339111 39.59057617 C-45.2865849 37.15553862 -42.88562653 34.74686045 -40.4765625 32.34375 C-39.60857025 31.47480103 -38.740578 30.60585205 -37.84628296 29.71057129 C-36.03074798 27.89436151 -34.21397255 26.07939093 -32.39599609 24.265625 C-29.60788002 21.4829132 -26.82520379 18.69484052 -24.04296875 15.90625 C-22.27115428 14.13509554 -20.49903006 12.36425089 -18.7265625 10.59375 C-17.89532867 9.76049194 -17.06409485 8.92723389 -16.20767212 8.06872559 C-15.05034073 6.91612244 -15.05034073 6.91612244 -13.86962891 5.74023438 C-13.19284088 5.06424194 -12.51605286 4.38824951 -11.8187561 3.69177246 C-7.84197284 -0.00735597 -5.36928318 -0.79218932 0 0 Z " fill="#FDDA00" transform="translate(170,171)"/>
<path d="M0 0 C1.10338218 0.9363831 2.20541029 1.87436188 3.30688477 2.81298828 C4.22764549 3.59622971 4.22764549 3.59622971 5.16700745 4.39529419 C7.87952853 6.76998924 10.41223193 9.30432601 12.9375 11.875 C13.43056641 12.37257813 13.92363281 12.87015625 14.43164062 13.3828125 C15.62345992 14.58620285 16.81208678 15.79275365 18 17 C16.7315625 18.485 16.7315625 18.485 15.4375 20 C14.62732422 20.9590625 14.62732422 20.9590625 13.80078125 21.9375 C12.58755287 23.32705441 11.33310299 24.68153946 10.04296875 26 C6.86897187 29.30974828 5.15646679 31.14654479 4.3125 35.75 C5.11482564 39.54281212 5.76487005 40.87162503 9 43 C11.82491198 43.91955603 11.82491198 43.91955603 15 43 C17.94603818 40.94366535 20.45625318 38.52860547 23 36 C23.6084375 35.40574219 24.216875 34.81148438 24.84375 34.19921875 C26.24458167 32.81490633 27.62470082 31.40968166 29 30 C32.15204981 31.39347376 34.26171773 33.02485079 36.671875 35.4765625 C37.33574219 36.146875 37.99960937 36.8171875 38.68359375 37.5078125 C39.36550781 38.20648438 40.04742187 38.90515625 40.75 39.625 C41.44738281 40.33140625 42.14476562 41.0378125 42.86328125 41.765625 C44.58012488 43.50598703 46.29211832 45.25084981 48 47 C45.03118632 50.61794554 42.01783269 54.07425744 38.5703125 57.24609375 C37.71953125 58.03790039 37.71953125 58.03790039 36.8515625 58.84570312 C35.68971664 59.91686192 34.51484206 60.97404106 33.328125 62.01757812 C30.10470005 65.0540574 30.10470005 65.0540574 28.56518555 69.10180664 C28.49355101 72.47246046 28.79801509 74.66874475 30.5625 77.5625 C32.99649732 79.24845157 32.99649732 79.24845157 36.25 79.1875 C41.39944778 77.55684154 44.21671955 74.76371176 48 71 C48.70672852 70.30366455 48.70672852 70.30366455 49.42773438 69.59326172 C52.64555849 66.42178911 55.83160402 63.2208143 59 60 C62.22584678 61.41838759 64.37805172 63.13175184 66.85546875 65.625 C67.55994141 66.33140625 68.26441406 67.0378125 68.99023438 67.765625 C69.71533203 68.50296875 70.44042969 69.2403125 71.1875 70 C71.92419922 70.73734375 72.66089844 71.4746875 73.41992188 72.234375 C79.73334734 78.60007354 79.73334734 78.60007354 80.5 82.625 C79.24490968 91.09685968 68.58602761 98.55959923 62.76171875 104.37109375 C61.78987816 105.34360956 60.81818592 106.31627364 59.84663391 107.28907776 C57.82702612 109.31014804 55.80565033 111.329428 53.78295898 113.34741211 C51.18924389 115.93538459 48.60010667 118.52788364 46.01224041 121.12170315 C44.01438021 123.12316918 42.01415418 125.12225709 40.01319313 127.12062263 C38.59262455 128.54020078 37.17406804 129.96179148 35.75553894 131.38340759 C34.46828667 132.66593163 34.46828667 132.66593163 33.1550293 133.97436523 C32.39892868 134.72967026 31.64282806 135.48497528 30.86381531 136.26316833 C28.51746466 138.44965971 27.41500878 138.94860222 24.21147156 139.34535217 C19.97431238 138.88970058 18.64640226 137.4345806 15.61645508 134.47436523 C14.85287673 133.73968977 14.85287673 133.73968977 14.07387257 132.99017239 C12.36805383 131.34104088 10.6844089 129.67097317 9 128 C7.78212093 126.81334919 6.5631268 125.62784187 5.34310913 124.44338989 C1.2501622 120.4565661 -2.80910182 116.43635071 -6.86328125 112.41015625 C-7.5927062 111.68605497 -8.32213116 110.9619537 -9.0736599 110.21590996 C-12.91414357 106.40188601 -16.75113088 102.58438068 -20.58569336 98.7644043 C-23.75330343 95.61025665 -26.92808256 92.46359147 -30.10913086 89.32299805 C-33.972439 85.5087825 -37.82353776 81.68264632 -41.66594505 77.84737968 C-43.12782385 76.39222886 -44.5939661 74.94134838 -46.06438637 73.49482918 C-48.10593206 71.48466411 -50.13139076 69.45955668 -52.15356445 67.42993164 C-52.76480667 66.83509476 -53.37604889 66.24025787 -54.0058136 65.62739563 C-55.65742493 63.95057678 -55.65742493 63.95057678 -58 61 C-57.5420197 56.61389625 -54.66260387 54.26073206 -51.65405273 51.31347656 C-51.09795319 50.75693893 -50.54185364 50.20040131 -49.96890259 49.6269989 C-48.13082172 47.79100642 -46.28234668 45.96586561 -44.43359375 44.140625 C-43.15641614 42.86904314 -41.87989969 41.59679689 -40.60401917 40.32391357 C-37.24536118 36.97670588 -33.87779136 33.63860517 -30.50830078 30.30230713 C-27.07108069 26.89578373 -23.64234523 23.48074415 -20.21289062 20.06640625 C-13.48354791 13.36923096 -6.74476188 6.68164379 0 0 Z " fill="#FDDA00" transform="translate(321,322)"/>
<path d="M0 0 C4.06219111 1.28481192 7.24491774 3.51442671 10.76000977 5.88574219 C11.54384537 6.40509842 12.32768097 6.92445465 13.13526917 7.45954895 C15.73258657 9.18282478 18.32234963 10.91712309 20.91235352 12.65136719 C22.73064814 13.86045123 24.54950558 15.06868928 26.36889648 16.27612305 C30.21092831 18.82680668 34.05041824 21.38125677 37.88842773 23.93798828 C43.85451722 27.90880552 49.83617361 31.85568889 55.82250977 35.79589844 C56.8013765 36.44019806 57.78024323 37.08449768 58.78877258 37.74832153 C60.73467305 39.02889183 62.68064079 40.30935991 64.62667847 41.58972168 C85.8088255 55.52791896 85.8088255 55.52791896 95.24829102 61.83496094 C105.08315904 68.40594206 114.97033032 74.89782011 124.84985352 81.40136719 C136.57882088 89.12237658 148.30250134 96.84998347 159.97790527 104.65179443 C162.74355562 106.49793593 165.51240756 108.33925347 168.28118896 110.18069458 C171.19657044 112.11969413 174.11111197 114.05995423 177.02563477 116.00024414 C178.51658376 116.99249983 180.00780337 117.98434899 181.49926758 118.97583008 C183.68715401 120.43041132 185.87406935 121.88644195 188.06079102 123.34277344 C188.73040863 123.78746475 189.40002625 124.23215607 190.0899353 124.69032288 C194.73598379 127.78749746 194.73598379 127.78749746 195.84985352 128.90136719 C195.95053209 130.51349221 195.98092716 132.13004243 195.98407459 133.74530506 C195.98853244 134.80029817 195.99299028 135.85529129 195.99758321 136.94225389 C195.99730667 138.70222791 195.99730667 138.70222791 195.99702454 140.49775696 C196.00070122 141.73310548 196.00437791 142.96845401 196.00816602 144.24123734 C196.01731506 147.68594576 196.02190739 151.13060645 196.02455533 154.57532251 C196.02844993 158.28435345 196.03802883 161.99337048 196.04676819 165.70239258 C196.06655677 174.66758605 196.07660193 183.63278069 196.08549598 192.59799054 C196.08987505 196.81587392 196.09524285 201.03375604 196.10048485 205.25163841 C196.11749968 219.26613384 196.13199489 233.28062847 196.13923359 247.29513264 C196.14114361 250.93430393 196.14306392 254.57347522 196.14501953 258.21264648 C196.14550327 259.11718802 196.14598701 260.02172955 196.14648541 260.95368143 C196.15478955 275.61380337 196.1801318 290.27384381 196.21260021 304.93393014 C196.24563566 319.97218779 196.26367917 335.01040398 196.26687783 350.04869813 C196.26904622 358.49739932 196.27784269 366.94598168 196.303339 375.3946476 C196.32499811 382.58857853 196.33312017 389.78236178 196.32337222 396.97632162 C196.31881348 400.64874778 196.32080424 404.32086896 196.34013367 407.99325371 C196.36088645 411.97030621 196.35082509 415.94693376 196.33760071 419.92402649 C196.35405458 421.67396226 196.35405458 421.67396226 196.37084085 423.45925027 C196.36225995 424.52206663 196.35367906 425.58488298 196.34483814 426.67990589 C196.34581495 427.59828702 196.34679176 428.51666814 196.34779817 429.462879 C195.69442602 432.66251224 194.32778544 433.84694856 191.84985352 435.90136719 C189.05802289 437.2972825 186.77874308 437.02544102 183.65353966 437.02441502 C183.0079616 437.02556886 182.36238353 437.0267227 181.6972425 437.02791151 C179.51317337 437.03057862 177.32917654 437.02605525 175.14511108 437.0216217 C173.57183586 437.02205739 171.9985607 437.02293224 170.42528594 437.02421087 C166.08579582 437.02645641 161.74633018 437.02243373 157.40684319 437.01743281 C152.73335137 437.01312935 148.05986103 437.01457466 143.3863678 437.01533508 C135.28382411 437.01586038 127.18128846 437.01271294 119.0787468 437.00709724 C107.36371509 436.99898308 95.64868728 436.99636711 83.93365307 436.99510925 C64.92850414 436.9929186 45.92335949 436.98625816 26.91821289 436.97680664 C8.4523928 436.96763286 -10.01342614 436.96055186 -28.47924805 436.95629883 C-30.18552785 436.95590474 -30.18552785 436.95590474 -31.92627795 436.9555027 C-37.63266782 436.95419769 -43.3390577 436.95293398 -49.04544759 436.95169079 C-96.41368351 436.94131777 -143.78191479 436.9236991 -191.15014648 436.90136719 C-191.15014648 436.57136719 -191.15014648 436.24136719 -191.15014648 435.90136719 C-69.38014648 435.90136719 52.38985352 435.90136719 177.84985352 435.90136719 C178.32422852 384.73074219 178.79860352 333.56011719 179.28735352 280.83886719 C179.49674561 264.6868335 179.7061377 248.5347998 179.921875 231.89331055 C179.99880097 217.40375052 179.99880097 217.40375052 180.0450592 202.91407776 C180.06647698 196.4627684 180.15066891 190.01606051 180.27809143 183.5660553 C180.42499382 176.11892737 180.49097851 168.67619619 180.45908738 161.22761014 C180.44527722 157.41852297 180.46638723 153.6192409 180.59180152 149.81197727 C181.50123493 134.6339143 181.50123493 134.6339143 175.65004086 121.28520703 C170.25456017 116.63898779 164.28825543 113.44420122 157.87829125 110.41965306 C152.79910513 107.87323897 148.19092419 104.64265037 143.50610352 101.44433594 C141.64604343 100.21421562 139.78428984 98.98664869 137.92016602 97.76269531 C137.00267578 97.15756104 136.08518555 96.55242676 135.13989258 95.92895508 C132.32233964 94.07072123 129.50410321 92.21352737 126.68579102 90.35644531 C118.90609433 85.2283852 111.12860013 80.09751393 103.38110352 74.92089844 C93.56971169 68.3654927 83.70584444 61.88942332 73.84985352 55.40136719 C61.49421843 47.26783151 49.14411697 39.12744029 36.84985352 30.90136719 C36.09351624 30.39532959 35.33717896 29.88929199 34.55792236 29.36791992 C32.89676829 28.2564863 31.23562565 27.14503559 29.57449341 26.03356934 C26.14213743 23.73751014 22.70886749 21.44282012 19.27539062 19.1484375 C17.51313777 17.97019949 15.7514308 16.79114468 13.99023438 15.61132812 C11.4097232 13.88292843 8.82725634 12.15748692 6.24438477 10.43261719 C5.06632011 9.64207947 5.06632011 9.64207947 3.86445618 8.83557129 C3.13236435 8.34745972 2.40027252 7.85934814 1.64599609 7.35644531 C1.0072908 6.92916138 0.36858551 6.50187744 -0.28947449 6.06164551 C-2.19165266 4.87548476 -4.13038762 3.87135777 -6.15014648 2.90136719 C-2.87427158 -0.13185031 -2.87427158 -0.13185031 0 0 Z " fill="#CFD8DB" transform="translate(256.150146484375,58.0986328125)"/>
<path d="M0 0 C2.26527748 1.1062623 3.70498711 2.44892716 5.4652462 4.2547102 C6.12911339 4.92824535 6.79298058 5.60178051 7.47696495 6.29572582 C8.15887901 7.0027766 8.84079308 7.70982738 9.5433712 8.43830395 C10.58944542 9.5046809 10.58944542 9.5046809 11.65665245 10.59260082 C13.375837 12.34711109 15.08762992 14.10823747 16.7933712 15.87580395 C15.20867518 19.76290718 12.56164135 22.38772237 9.63101768 25.29212475 C9.09985816 25.82640425 8.56869864 26.36068376 8.02144337 26.91115355 C6.24051634 28.70005752 4.45252619 30.48172824 2.66446495 32.26349926 C1.38622753 33.54444661 0.108416 34.82581907 -1.16900063 36.10758495 C-4.63943352 39.58714204 -8.11617092 43.06033531 -11.59433556 46.53216171 C-15.22924074 50.16200929 -18.85927046 53.7967272 -22.49007607 57.43067455 C-28.58633433 63.53057223 -34.68679979 69.6262385 -40.78963661 75.71955395 C-47.85413496 82.77315806 -54.91138612 89.83395164 -61.96493435 96.8985045 C-68.01478432 102.95741643 -74.06850564 109.01243959 -80.12550831 115.06420112 C-83.74602783 118.68159618 -87.36516721 122.3003442 -90.98082924 125.92259502 C-94.37766075 129.32518386 -97.77930903 132.7228811 -101.18481255 136.11678982 C-102.4370663 137.36638874 -103.68760213 138.61771183 -104.9363308 139.8708334 C-106.63441666 141.5743435 -108.33847531 143.27163745 -110.04427528 144.96741772 C-110.79222532 145.72205992 -110.79222532 145.72205992 -111.55528545 146.49194741 C-114.97832822 149.87580395 -114.97832822 149.87580395 -117.2066288 149.87580395 C-118.94048633 146.13709008 -120.63913769 142.38340358 -122.3316288 138.62580395 C-122.82533974 137.56232738 -123.31905067 136.49885082 -123.82772255 135.4031477 C-124.28533974 134.37834301 -124.74295692 133.35353832 -125.2144413 132.29767895 C-125.85856972 130.88373852 -125.85856972 130.88373852 -126.51571083 129.44123363 C-127.2066288 126.87580395 -127.2066288 126.87580395 -126.55500793 125.03779602 C-124.79374955 122.21379307 -122.67222402 120.07938093 -120.32348061 117.71850109 C-119.82231708 117.21210089 -119.32115355 116.70570068 -118.80480325 116.18395501 C-117.12529676 114.48945405 -115.43872416 112.8021709 -113.75203896 111.11481762 C-112.54603243 109.90118958 -111.34043011 108.68715977 -110.13520241 107.47275829 C-106.86123014 104.17684135 -103.58070805 100.88752076 -100.29828882 97.60001826 C-98.24925754 95.54734528 -96.20153098 93.49337981 -94.15424156 91.43896961 C-87.01628978 84.2765295 -79.872641 77.11982267 -72.72420692 69.96784496 C-66.0526435 63.29264033 -59.39434354 56.60440137 -52.74190676 49.91014022 C-47.03433902 44.16794529 -41.31725347 38.43534443 -35.59269559 32.7100876 C-32.17165268 29.28824969 -28.75475 25.86250525 -25.34751701 22.42691135 C-22.14586358 19.1992051 -18.9326009 15.98353778 -15.70985031 12.77690029 C-14.52675014 11.59562445 -13.34794435 10.41003022 -12.17370987 9.21994114 C-10.57496582 7.60092802 -8.96172901 5.9979387 -7.34374428 4.39818859 C-5.99260505 3.04403237 -5.99260505 3.04403237 -4.61417007 1.66251945 C-2.2066288 -0.12419605 -2.2066288 -0.12419605 0 0 Z " fill="#F9D700" transform="translate(316.2066287994385,269.12419605255127)"/>
<path d="M0 0 C3.01409306 1.44304314 5.10472016 2.86591868 7.453125 5.2578125 C8.071875 5.88300781 8.690625 6.50820312 9.328125 7.15234375 C9.96234375 7.80332031 10.5965625 8.45429688 11.25 9.125 C12.22453125 10.11306641 12.22453125 10.11306641 13.21875 11.12109375 C14.81711727 12.74296643 16.41061897 14.3693281 18 16 C16.41579204 19.84319958 13.97517218 22.27124231 11.05197144 25.1885376 C10.28986742 25.95320489 10.28986742 25.95320489 9.51236737 26.73332 C7.80967375 28.43930637 6.09993321 30.13804872 4.39013672 31.83691406 C3.16775282 33.05873381 1.94580917 34.28099415 0.72427368 35.50366211 C-2.59335233 38.82186245 -5.9171131 42.13385587 -9.24199533 45.44478321 C-12.71558991 48.90588382 -16.18352973 52.3726408 -19.65206909 55.83880615 C-26.22120685 62.40172523 -32.79542668 68.95952896 -39.37147987 75.51551795 C-46.85778996 82.97948115 -54.33842865 90.44911734 -61.81859231 97.91923952 C-77.20608502 113.28582144 -92.60069914 128.64525199 -108 144 C-111.6424436 142.79807986 -115.21133112 141.55409227 -118.7421875 140.0546875 C-119.58007812 139.70019531 -120.41796875 139.34570312 -121.28125 138.98046875 C-122.1371875 138.61566406 -122.993125 138.25085938 -123.875 137.875 C-124.75414062 137.50246094 -125.63328125 137.12992188 -126.5390625 136.74609375 C-128.69358302 135.8327644 -130.84702148 134.91695575 -133 134 C-127.33267147 127.0793222 -120.98776776 120.85424811 -114.66064453 114.54711914 C-113.40832895 113.29508597 -112.15623421 112.0428319 -110.90434265 110.79037476 C-107.52067724 107.40642348 -104.13394651 104.02555539 -100.74664164 100.6452477 C-97.20143965 97.10631437 -93.65908604 93.56453221 -90.11642456 90.02305603 C-83.41438656 83.32412101 -76.70980443 76.62773831 -70.00429618 69.93227714 C-62.36749744 62.30667167 -54.73355193 54.67821257 -47.0998404 47.0495168 C-31.40305809 31.36317547 -15.70271027 15.68040703 0 0 Z " fill="#FDDA00" transform="translate(285,239)"/>
<path d="M0 0 C6.30585005 4.16135645 11.60058544 9.17777254 16.87866211 14.54785156 C18.33887174 16.03184631 19.8121606 17.50186266 21.28759766 18.97070312 C32.52747617 30.27656409 32.52747617 30.27656409 33.55126953 35.99023438 C33.44213731 46.37143725 30.42591716 50.79333019 23.27001953 57.96289062 C21.53241744 59.66413775 19.78008866 61.34725575 18.02001953 63.02539062 C14.4876293 61.51854095 12.22380293 59.47172451 9.52685547 56.75927734 C8.64624451 55.87851532 7.76563354 54.9977533 6.8583374 54.09030151 C5.90691522 53.12866712 4.9556035 52.16692342 4.00439453 51.20507812 C3.02405824 50.22100955 2.04327785 49.23738321 1.06207275 48.25418091 C-1.51352514 45.67096348 -4.08305904 43.0817955 -6.65136719 40.49133301 C-9.27549114 37.84671443 -11.90531818 35.20778053 -14.53466797 32.56835938 C-19.68869717 27.3929099 -24.83633204 22.2111594 -29.97998047 17.02539062 C-28.09743355 12.94068117 -25.37717641 10.05526265 -22.22998047 6.90039062 C-21.71693359 6.36285156 -21.20388672 5.8253125 -20.67529297 5.27148438 C-15.28096083 -0.16350856 -7.43122913 -3.65788738 0 0 Z " fill="#EB304B" transform="translate(357.97998046875,180.974609375)"/>
<path d="M0 0 C5.8797505 4.87724437 11.26880817 10.13886878 16.65234375 15.5546875 C17.55247696 16.45623566 18.45261017 17.35778381 19.38002014 18.28665161 C21.75072823 20.66198217 24.11924515 23.03945405 26.48669434 25.41802979 C28.91180728 27.85344717 31.33982085 30.28596912 33.76757812 32.71875 C38.51437128 37.47652769 43.25829281 42.2371538 48 47 C47.0636169 48.10338218 46.12563812 49.20541029 45.18701172 50.30688477 C44.66485077 50.92072525 44.14268982 51.53456573 43.60470581 52.16700745 C41.23001076 54.87952853 38.69567399 57.41223193 36.125 59.9375 C35.62742187 60.43056641 35.12984375 60.92363281 34.6171875 61.43164062 C33.41379715 62.62345992 32.20724635 63.81208678 31 65 C25.1202495 60.12275563 19.73119183 54.86113122 14.34765625 49.4453125 C13.44752304 48.54376434 12.54738983 47.64221619 11.61997986 46.71334839 C9.24927177 44.33801783 6.88075485 41.96054595 4.51330566 39.58197021 C2.08819272 37.14655283 -0.33982085 34.71403088 -2.76757812 32.28125 C-7.51437128 27.52347231 -12.25829281 22.7628462 -17 18 C-16.0636169 16.89661782 -15.12563812 15.79458971 -14.18701172 14.69311523 C-13.66485077 14.07927475 -13.14268982 13.46543427 -12.60470581 12.83299255 C-10.23001076 10.12047147 -7.69567399 7.58776807 -5.125 5.0625 C-4.62742187 4.56943359 -4.12984375 4.07636719 -3.6171875 3.56835938 C-2.41379715 2.37654008 -1.20724635 1.18791322 0 0 Z " fill="#9C9C9C" transform="translate(315,209)"/>
<path d="M0 0 C6.66481373 2.15102874 13.24119378 4.47661907 19.75 7.0625 C20.66910156 7.39443359 21.58820313 7.72636719 22.53515625 8.06835938 C27.57215897 10.10575773 30.39989953 11.83101607 32.8984375 16.75390625 C33.62600076 18.49152691 34.32729894 20.2404128 35 22 C35.68028163 23.52030228 36.36495728 25.03864847 37.0546875 26.5546875 C37.66527045 27.99317953 38.27209588 29.43327275 38.875 30.875 C39.1946875 31.6071875 39.514375 32.339375 39.84375 33.09375 C41.41820284 36.85874591 42.27744762 39.10297626 41 43 C38.75376301 43.69969682 36.50283586 44.38435043 34.25 45.0625 C32.99703125 45.44535156 31.7440625 45.82820313 30.453125 46.22265625 C25.5956956 47.31612735 25.5956956 47.31612735 23 46 C21.9453125 44.43359375 21.9453125 44.43359375 21.125 42.4375 C15.9259011 31.32763847 7.07043183 24.13020011 -4 19 C-3.45986267 12.30229711 -2.07762788 6.37813507 0 0 Z " fill="#FADCAE" transform="translate(142,387)"/>
<path d="M0 0 C3.22584678 1.41838759 5.37805172 3.13175184 7.85546875 5.625 C8.55994141 6.33140625 9.26441406 7.0378125 9.99023438 7.765625 C10.71533203 8.50296875 11.44042969 9.2403125 12.1875 10 C12.92419922 10.73734375 13.66089844 11.4746875 14.41992188 12.234375 C20.73334734 18.60007354 20.73334734 18.60007354 21.5 22.625 C20.24490968 31.09685968 9.58602761 38.55959923 3.76171875 44.37109375 C2.78987816 45.34360956 1.81818592 46.31627364 0.84663391 47.28907776 C-1.17297388 49.31014804 -3.19434967 51.329428 -5.21704102 53.34741211 C-7.81075611 55.93538459 -10.39989333 58.52788364 -12.98775959 61.12170315 C-14.98561979 63.12316918 -16.98584582 65.12225709 -18.98680687 67.12062263 C-20.40737545 68.54020078 -21.82593196 69.96179148 -23.24446106 71.38340759 C-24.10262924 72.23842361 -24.96079742 73.09343964 -25.8449707 73.97436523 C-26.60107132 74.72967026 -27.35717194 75.48497528 -28.13618469 76.26316833 C-30.52804031 78.49206439 -31.59595651 78.95608223 -34.875 79.3125 C-38.70288152 78.92971185 -39.48327693 77.76185844 -42 75 C-41.46573395 74.47239578 -40.9314679 73.94479156 -40.38101196 73.40119934 C-35.34117789 68.4215395 -30.30863986 63.43464648 -25.28411293 58.43954945 C-22.70085046 55.87192595 -20.11487926 53.30716082 -17.52246094 50.7487793 C-15.01955081 48.27852553 -12.52409492 45.80096124 -10.03358078 43.31821251 C-8.62167048 41.91452216 -7.2021943 40.5184553 -5.78262329 39.12251282 C-4.49151138 37.8317408 -4.49151138 37.8317408 -3.17431641 36.51489258 C-2.41486725 35.76210526 -1.65541809 35.00931793 -0.87295532 34.23371887 C2.64848563 30.03398756 3.55557172 25.77108102 3.45703125 20.4140625 C2.34895173 14.56112967 -1.9104846 10.0895154 -6 6 C-4.02 4.02 -2.04 2.04 0 0 Z " fill="#FABE07" transform="translate(380,382)"/>
<path d="M0 0 C3.45259693 1.72629846 5.07238601 2.83225473 7.671875 5.4765625 C8.33574219 6.146875 8.99960938 6.8171875 9.68359375 7.5078125 C10.70646484 8.55582031 10.70646484 8.55582031 11.75 9.625 C12.44738281 10.33140625 13.14476562 11.0378125 13.86328125 11.765625 C15.5801293 13.50599152 17.29123998 15.25170272 19 17 C13.4455361 23.74067958 7.32232514 29.89663731 1.1796875 36.09375 C0.6164893 36.66227188 0.05329109 37.23079376 -0.52697372 37.81654358 C-3.49802995 40.81414522 -6.47262423 43.80818905 -9.44970703 46.79980469 C-11.91053317 49.27405917 -14.36385062 51.75541756 -16.81103516 54.24316406 C-19.77657433 57.25783132 -22.75402527 60.26021548 -25.74065781 63.25398254 C-26.87483797 64.39489116 -28.00474637 65.54006269 -29.13028336 66.6894989 C-30.69797411 68.28861303 -32.28049448 69.87143505 -33.86767578 71.45117188 C-34.76447052 72.35605347 -35.66126526 73.26093506 -36.5852356 74.1932373 C-39 76 -39 76 -41.22799683 75.87243652 C-44.3702069 74.32538578 -45.89370285 71.74988794 -48 69 C-47.54322876 68.61428329 -47.08645752 68.22856659 -46.61584473 67.8311615 C-40.66246591 62.72160323 -35.12371109 57.25235201 -29.59375 51.69140625 C-28.61891355 50.7146999 -27.64385251 49.73821766 -26.6685791 48.76194763 C-24.12813699 46.21772539 -21.59071491 43.67051264 -19.05395508 41.12261963 C-16.45448873 38.51284118 -13.85211506 35.90596518 -11.25 33.29882812 C-6.16385082 28.20202128 -1.0808953 23.10204492 4 18 C2.41051534 14.59837913 0.76641381 12.67505674 -2.125 10.25 C-2.84945312 9.63640625 -3.57390625 9.0228125 -4.3203125 8.390625 C-5.15175781 7.70226562 -5.15175781 7.70226562 -6 7 C-4.02 4.69 -2.04 2.38 0 0 Z " fill="#F7BC07" transform="translate(231,233)"/>
<path d="M0 0 C5.47906413 3.81017644 10.13363122 8.43883342 14.79614258 13.18261719 C16.25635221 14.66661193 17.72964107 16.13662828 19.20507812 17.60546875 C30.44495664 28.91132971 30.44495664 28.91132971 31.46875 34.625 C31.35961778 45.00620288 28.34339763 49.42809581 21.1875 56.59765625 C19.44989791 58.29890338 17.69756912 59.98202138 15.9375 61.66015625 C11.65390327 59.77464145 9.78646408 57.30049924 6.9375 53.66015625 C7.9275 53.66015625 8.9175 53.66015625 9.9375 53.66015625 C13.42458113 45.44060787 15.79987736 37.71500014 12.375 29.16015625 C8.276971 20.97151214 1.1122816 14.67397825 -5.3125 8.28515625 C-6.01890625 7.57488281 -6.7253125 6.86460937 -7.453125 6.1328125 C-8.13375 5.45347656 -8.814375 4.77414063 -9.515625 4.07421875 C-10.12567383 3.46529785 -10.73572266 2.85637695 -11.36425781 2.22900391 C-13.18328564 0.46613051 -13.18328564 0.46613051 -16.0625 -1.33984375 C-10.20856375 -3.29115583 -5.14988861 -3.41119391 0 0 Z " fill="#B61839" transform="translate(360.0625,182.33984375)"/>
<path d="M0 0 C3.05519377 1.92924952 5.46593979 4.44047185 8 7 C9.0578424 8.04633308 10.11649217 9.09185029 11.17578125 10.13671875 C14.13813004 13.070805 17.07378823 16.02989505 20 19 C18.31847927 22.74020498 16.30960527 24.56134348 13 27 C12.65710938 26.58492187 12.31421875 26.16984375 11.9609375 25.7421875 C5.73705087 18.41455743 -1.1650162 11.749665 -8 5 C-11.53239023 6.50684968 -13.7962166 8.55366612 -16.49316406 11.26611328 C-17.37377502 12.14687531 -18.25438599 13.02763733 -19.16168213 13.93508911 C-20.11310431 14.89672351 -21.06441603 15.8584672 -22.015625 16.8203125 C-22.99596129 17.80438107 -23.97674168 18.78800742 -24.95794678 19.77120972 C-27.53354467 22.35442714 -30.10307857 24.94359512 -32.67138672 27.53405762 C-35.29551067 30.1786762 -37.92533771 32.8176101 -40.5546875 35.45703125 C-45.7087167 40.63248072 -50.85635157 45.81423122 -56 51 C-56 48 -56 48 -54.27384949 45.90635681 C-53.46571304 45.101866 -52.6575766 44.29737518 -51.82495117 43.46850586 C-50.91367966 42.55423325 -50.00240814 41.63996063 -49.06352234 40.69798279 C-48.05690153 39.70336989 -47.05004453 38.70899598 -46.04296875 37.71484375 C-45.01824225 36.69317477 -43.99410538 35.67091408 -42.97053528 34.64808655 C-40.82203789 32.50419557 -38.66871902 30.36531334 -36.51147461 28.23022461 C-33.74724626 25.49424311 -30.99173476 22.74969254 -28.23935986 20.00179195 C-26.12346642 17.89005819 -24.0047564 15.78117084 -21.88500404 13.67331123 C-20.86826828 12.66227079 -19.85199819 11.65076183 -18.83620262 10.63877678 C-17.41447776 9.22393507 -15.9889388 7.81292914 -14.56323242 6.40209961 C-13.7527092 5.59840439 -12.94218597 4.79470917 -12.10710144 3.96665955 C-8.01169294 0.14421699 -5.57449116 -0.82246591 0 0 Z " fill="#ECB805" transform="translate(170,171)"/>
<path d="M0 0 C7.39419509 2.62333182 13.36642906 8.0488208 17 15 C16.67 15.99 16.34 16.98 16 18 C14.18994141 18.89135742 14.18994141 18.89135742 11.8515625 19.60546875 C10.59085938 19.99702148 10.59085938 19.99702148 9.3046875 20.39648438 C7.97824219 20.78803711 7.97824219 20.78803711 6.625 21.1875 C5.7484375 21.46013672 4.871875 21.73277344 3.96875 22.01367188 C-2.5428219 24 -2.5428219 24 -6 24 C-5.36145015 18.47324097 -4.06306646 13.37632649 -2.4375 8.0625 C-2.20353516 7.28326172 -1.96957031 6.50402344 -1.72851562 5.70117188 C-1.15682579 3.79942813 -0.57904309 1.89951774 0 0 Z " fill="#5C7885" transform="translate(132,422)"/>
<path d="M0 0 C3.15204981 1.39347376 5.26171773 3.02485079 7.671875 5.4765625 C8.33574219 6.146875 8.99960937 6.8171875 9.68359375 7.5078125 C10.36550781 8.20648438 11.04742187 8.90515625 11.75 9.625 C12.44738281 10.33140625 13.14476562 11.0378125 13.86328125 11.765625 C15.58007465 13.50593612 17.29064819 15.25237912 19 17 C16.03 20.465 16.03 20.465 13 24 C6.9659268 19.01533084 1.48643312 13.5767035 -4 8 C-4.66 7.34 -5.32 6.68 -6 6 C-4.02 4.02 -2.04 2.04 0 0 Z " fill="#F7BB07" transform="translate(350,352)"/>
<path d="M0 0 C6.41069287 5.27101414 12.18590512 11.09128152 18 17 C15.03 20.465 15.03 20.465 12 24 C5.58930713 18.72898586 -0.18590512 12.90871848 -6 7 C-4.02 4.69 -2.04 2.38 0 0 Z " fill="#FBBF07" transform="translate(321,322)"/>
<path d="M0 0 C6.41069287 5.27101414 12.18590512 11.09128152 18 17 C15.03 20.465 15.03 20.465 12 24 C5.58930713 18.72898586 -0.18590512 12.90871848 -6 7 C-4.02 4.69 -2.04 2.38 0 0 Z " fill="#FBBF07" transform="translate(202,203)"/>
</svg>
