<?xml version="1.0" encoding="UTF-8"?>
<svg version="1.1" xmlns="http://www.w3.org/2000/svg" width="512" height="512">
<path d="M0 0 C1.60080529 -0.00418007 3.20160762 -0.00966126 4.80240452 -0.01631981 C9.1721342 -0.03070485 13.54167415 -0.02655155 17.91141391 -0.019153 C22.63545904 -0.01440636 27.359464 -0.02694437 32.08349609 -0.03717041 C41.32693969 -0.05433445 50.57031524 -0.0552034 59.81377064 -0.04995751 C67.32958054 -0.04591013 74.8453704 -0.0473661 82.36117935 -0.05270576 C83.96793759 -0.0538284 83.96793759 -0.0538284 85.6071556 -0.05497371 C87.78349296 -0.05650524 89.95983031 -0.05804359 92.13616766 -0.05958868 C112.52860284 -0.07330504 132.92099961 -0.06788208 153.3134339 -0.05640347 C171.95271358 -0.04647187 190.59189399 -0.05941204 209.23115836 -0.08333766 C228.38984643 -0.10774393 247.54848829 -0.11733277 266.70719159 -0.11068493 C277.45539622 -0.10719613 288.20352453 -0.10940241 298.95171738 -0.12693596 C308.10125284 -0.14167702 317.25065821 -0.14226845 326.40019117 -0.12486505 C331.06425415 -0.11636842 335.72808491 -0.11417273 340.39213562 -0.1295166 C344.66948512 -0.1434136 348.94640456 -0.13853666 353.22372951 -0.11927737 C354.7633124 -0.11553235 356.30293015 -0.11839566 357.84248184 -0.12888902 C370.73277346 -0.21043477 382.42498466 2.00884203 393.9836731 7.95018005 C394.97572754 8.45726501 394.97572754 8.45726501 395.98782349 8.97459412 C413.45360449 18.32041094 425.66587239 34.06263851 431.71104103 52.84132212 C434.1009067 61.39980598 434.34660509 69.64917721 434.30885315 78.45977783 C434.31303323 80.05987043 434.31851443 81.65996007 434.32517296 83.26004428 C434.339558 87.62784337 434.33540469 91.99545265 434.32800615 96.36326182 C434.32325947 101.08528107 434.3357976 105.80726015 434.34602356 110.52926636 C434.36318792 119.76903496 434.36405642 129.00873548 434.35881066 138.24851588 C434.3547631 145.76193352 434.35621947 153.2753311 434.36155891 160.78874779 C434.36230734 161.85963123 434.36305576 162.93051466 434.36382686 164.03384912 C434.3653584 166.20962074 434.36689675 168.38539237 434.36844183 170.56116398 C434.38215848 190.94886053 434.37673518 211.33651867 434.36525661 231.72421434 C434.35532651 250.35635195 434.36826257 268.98839023 434.39219081 287.62051252 C434.41660181 306.77355536 434.42618467 325.92655197 434.41953808 345.07961005 C434.41605014 355.82393418 434.41824981 366.56818195 434.43578911 377.31249428 C434.45053616 386.45943931 434.45111389 395.60625421 434.4337182 404.75319675 C434.4252262 409.41535839 434.42301443 414.07728779 434.43836975 418.7394371 C434.45228084 423.016222 434.44737197 427.29257713 434.42813051 431.56933757 C434.42438975 433.10759237 434.42723629 434.64588214 434.43774217 436.18410561 C434.57462608 457.78012557 427.40027266 476.36652432 412.3742981 491.95799255 C396.69047962 507.38884621 377.30407679 512.87048631 355.82888794 512.76863098 C354.22665781 512.77209365 352.62443008 512.77686229 351.02220726 512.78281271 C346.64861044 512.79526867 342.27521147 512.78917711 337.90161419 512.77985406 C333.1735218 512.77304163 328.44546245 512.78355564 323.71737671 512.79179382 C314.4665784 512.80511 305.21585326 512.80226285 295.96505213 512.7935559 C288.44445859 512.78677143 280.92388551 512.78586594 273.40328979 512.78912735 C272.33154019 512.78958705 271.25979058 512.79004675 270.15556371 512.79052038 C267.97809489 512.79147959 265.80062607 512.79245223 263.62315726 512.79343815 C243.22124222 512.80198585 222.81936766 512.79216764 202.41745925 512.77603705 C184.9245363 512.76263444 167.43167309 512.76496271 149.93875122 512.77879333 C129.60815002 512.7948601 109.27758428 512.80116193 88.94697762 512.79195654 C86.77767055 512.79100093 84.60836347 512.79005782 82.4390564 512.78912735 C81.37181001 512.78866452 80.30456362 512.7882017 79.20497644 512.78772485 C71.69636518 512.78513825 64.18777647 512.78949883 56.6791687 512.79656601 C47.52446791 512.80499338 38.36984426 512.80267485 29.21515226 512.78672378 C24.54732488 512.77885773 19.87962596 512.77572098 15.21179962 512.78567123 C10.93338307 512.79465323 6.65521327 512.78962791 2.3768189 512.77373858 C0.83458105 512.77040556 -0.70767791 512.77205128 -2.24990201 512.77936594 C-14.49137745 512.8329429 -25.40583148 511.3414504 -36.3288269 505.57518005 C-37.0106604 505.22407166 -37.6924939 504.87296326 -38.39498901 504.51121521 C-43.34570539 501.90694755 -47.81684252 499.02349611 -52.0788269 495.38768005 C-52.64343628 494.96486755 -53.20804565 494.54205505 -53.7897644 494.10643005 C-67.14934951 483.7089249 -75.10262082 466.72703392 -78.0788269 450.38768005 C-78.49064596 445.02479984 -78.4895228 439.68282053 -78.46650696 434.30885315 C-78.47068703 432.70804786 -78.47616822 431.10724553 -78.48282677 429.50644863 C-78.49721181 425.13671895 -78.49305851 420.767179 -78.48565996 416.39743924 C-78.48091332 411.67339411 -78.49345132 406.94938915 -78.50367737 402.22535706 C-78.52084141 392.98191346 -78.52171035 383.73853791 -78.51646446 374.49508251 C-78.51241709 366.9792726 -78.51387306 359.46348275 -78.51921272 351.9476738 C-78.51996114 350.87650164 -78.52070957 349.80532947 -78.52148067 348.70169755 C-78.5230122 346.52536019 -78.52455055 344.34902284 -78.52609564 342.17268549 C-78.539812 321.78025031 -78.53438904 301.38785354 -78.52291042 280.99541925 C-78.51297883 262.35613957 -78.525919 243.71695916 -78.54984462 225.07769479 C-78.57425089 205.91900672 -78.58383973 186.76036486 -78.57719189 167.60166156 C-78.57370309 156.85345693 -78.57590937 146.10532862 -78.59344292 135.35713577 C-78.60818398 126.20760031 -78.60877541 117.05819494 -78.59137201 107.90866198 C-78.58287538 103.244599 -78.58067969 98.58076824 -78.59602356 93.91671753 C-78.60992055 89.63936802 -78.60504361 85.36244859 -78.58578432 81.08512364 C-78.58203931 79.54554075 -78.58490262 78.005923 -78.59539597 76.46637131 C-78.67694173 63.57607969 -76.45766493 51.88386849 -70.5163269 40.32518005 C-70.17827026 39.66381042 -69.84021362 39.0024408 -69.49191284 38.32102966 C-60.14601354 20.85509453 -44.40398628 8.64352544 -25.6254214 2.59781212 C-17.06478711 0.20718852 -8.81283603 -0.03774397 0 0 Z " fill="#ECA670" transform="translate(78.07882690429688,-0.3876800537109375)"/>
<path d="M0 0 C3.42185044 0.27958281 4.82772052 0.84205372 7.39453125 3.1953125 C21.42505065 20.19513406 27.64868995 37.34274157 27.50793457 59.43286133 C27.5125552 61.03554504 27.51891585 62.6382245 27.52684355 64.24089527 C27.54340062 68.60197428 27.53535326 72.96269906 27.52289867 77.32377863 C27.51379414 82.0437057 27.52784453 86.76357471 27.53881836 91.48348999 C27.55655083 100.71284402 27.55278717 109.94206751 27.5411678 119.17142653 C27.53211293 126.67619502 27.53091834 134.18092707 27.53526306 141.68569946 C27.53587599 142.75617643 27.53648893 143.8266534 27.53712043 144.92956907 C27.53839941 147.1046161 27.53969626 149.27966312 27.5410108 151.45471013 C27.55240115 171.82240532 27.53932716 192.19002836 27.51780933 212.55771172 C27.49993977 230.01214341 27.50304431 247.46646867 27.52148438 264.92089844 C27.5429184 285.2185971 27.55130266 305.5162326 27.53903532 325.813941 C27.5377612 327.9807275 27.53650372 330.14751402 27.53526306 332.31430054 C27.53433741 333.91320947 27.53433741 333.91320947 27.53339306 335.54441959 C27.52994775 343.03513189 27.53575079 350.52580394 27.54518127 358.01651001 C27.5564308 367.15240977 27.55329928 376.28817215 27.5320583 385.42405629 C27.52158755 390.08015831 27.51735778 394.73603177 27.53065491 399.39213181 C27.54266759 403.66325341 27.53587184 407.9339369 27.5147447 412.20501935 C27.51031591 413.74116252 27.5124599 415.27734353 27.52224785 416.8134619 C27.64913666 438.40151378 20.47356773 456.9845843 5.453125 472.5703125 C-10.23069348 488.00116616 -29.6170963 493.48280626 -51.09228516 493.38095093 C-52.69451528 493.3844136 -54.29674302 493.38918224 -55.89896584 493.39513266 C-60.27256266 493.40758862 -64.64596162 493.40149706 -69.01955891 493.39217401 C-73.7476513 493.38536158 -78.47571065 493.39587559 -83.20379639 493.40411377 C-92.45459469 493.41742995 -101.70531984 493.4145828 -110.95612097 493.40587585 C-118.4767145 493.39909138 -125.99728758 493.39818588 -133.5178833 493.4014473 C-134.58963291 493.401907 -135.66138252 493.40236669 -136.76560938 493.40284032 C-138.94307821 493.40379953 -141.12054702 493.40477217 -143.29801583 493.4057581 C-163.69993088 493.4143058 -184.10180544 493.40448759 -204.50371385 493.388357 C-221.99663679 493.37495439 -239.48950001 493.37728266 -256.98242188 493.39111328 C-277.31302307 493.40718004 -297.64358882 493.41348188 -317.97419548 493.40427649 C-320.14350255 493.40332088 -322.31280962 493.40237776 -324.4821167 493.4014473 C-325.54936309 493.40098447 -326.61660947 493.40052164 -327.71619666 493.40004479 C-335.22480792 493.3974582 -342.73339663 493.40181878 -350.24200439 493.40888596 C-359.39670519 493.41731333 -368.55132884 493.4149948 -377.70602083 493.39904372 C-382.37384821 493.39117768 -387.04154714 493.38804093 -391.70937347 493.39799118 C-395.98779003 493.40697318 -400.26595983 493.40194786 -404.5443542 493.38605852 C-406.08659204 493.3827255 -407.62885101 493.38437123 -409.17107511 493.39168589 C-421.41315642 493.4452655 -432.32620915 491.95295037 -443.25 486.1875 C-443.92893311 485.83856689 -444.60786621 485.48963379 -445.30737305 485.13012695 C-451.59432371 481.82768428 -456.99544264 478.03928109 -462 473 C-460.96746094 472.42894531 -459.93492187 471.85789062 -458.87109375 471.26953125 C-453.90916013 468.52180932 -448.95421398 465.76160989 -444 463 C-443.09604492 462.49710449 -442.19208984 461.99420898 -441.26074219 461.47607422 C-402.09781951 439.65673159 -364.68135957 415.1413918 -329 388 C-327.99066406 387.23558594 -326.98132813 386.47117187 -325.94140625 385.68359375 C-317.75765364 379.45712723 -309.77180738 372.9979321 -301.81591797 366.48388672 C-300.23700279 365.19366805 -298.65221373 363.91064412 -297.06640625 362.62890625 C-286.2981993 353.90873866 -275.85507438 344.7967026 -265.66015625 335.4140625 C-263.51659192 333.46880148 -261.35212426 331.55915665 -259.16796875 329.66015625 C-255.11752972 326.12498588 -251.16846038 322.49293217 -247.25 318.8125 C-246.56405762 318.17046631 -245.87811523 317.52843262 -245.17138672 316.86694336 C-240.20484052 312.19529666 -235.3521399 307.42401624 -230.62988281 302.50512695 C-229.4557756 301.30072694 -228.23225121 300.14484239 -227 299 C-226.34 299 -225.68 299 -225 299 C-224.67 298.01 -224.34 297.02 -224 296 C-223.13375 296.804375 -222.2675 297.60875 -221.375 298.4375 C-208.94507943 309.05577223 -195.39976515 315.83642633 -179.30859375 318.421875 C-176 319 -176 319 -174 320 C-174.47771921 324.2994729 -175.06658627 328.51201037 -175.9375 332.75 C-176.10145264 333.56033691 -176.26540527 334.37067383 -176.43432617 335.20556641 C-176.7893664 336.9594682 -177.15333526 338.71161115 -177.53027344 340.4609375 C-179.22589836 349.20510533 -179.33858879 357.81663143 -179.31567383 366.68896484 C-179.31252245 369.23188559 -179.33602319 371.77362905 -179.36132812 374.31640625 C-179.42692877 390.90069314 -177.93659574 408.98525979 -167.5 422.6875 C-163.51791773 426.3709261 -160.53540504 427.82664782 -155.125 428.4375 C-148.081003 428.11548871 -142.49384906 424.33025981 -137.78515625 419.2890625 C-130.53669598 409.99453795 -125.90804634 399.03185652 -122 388 C-121.65775391 387.03707031 -121.65775391 387.03707031 -121.30859375 386.0546875 C-117.98205523 376.51227414 -115.80494979 366.98090521 -114.30859375 356.99365234 C-114.03015554 355.19481816 -113.70534004 353.40331134 -113.375 351.61328125 C-111.91721078 342.89691652 -111.79189327 334.26078162 -111.75 325.4375 C-111.74073486 324.23061523 -111.73146973 323.02373047 -111.72192383 321.78027344 C-111.74776456 314.3158477 -112.44087005 307.33186272 -113.90698242 300.0065918 C-114.02326233 296.24809554 -113.08475203 295.07891096 -110.5625 292.375 C-109.81484375 291.67503906 -109.0671875 290.97507812 -108.296875 290.25390625 C-97.23129566 279.39533605 -92.9682702 262.33871316 -92.70727539 247.3449707 C-92.57584716 225.52950773 -97.58360629 207.28564311 -113 191 C-115.91235475 188.22022589 -118.89476341 185.56200371 -122 183 C-120.65048769 179.10293895 -118.94239929 176.48239317 -116.25 173.375 C-109.42340815 165.22466198 -103.24853156 156.59641303 -97 148 C-96.15550293 146.83960205 -96.15550293 146.83960205 -95.29394531 145.65576172 C-93.6518466 143.39727262 -92.01255808 141.1367832 -90.375 138.875 C-89.9099707 138.23296631 -89.44494141 137.59093262 -88.96582031 136.92944336 C-87.30342345 134.62465448 -85.65065784 132.313215 -84 130 C-83.59077301 129.42761597 -83.18154602 128.85523193 -82.75991821 128.26550293 C-75.17106102 117.63674154 -67.81572652 106.86766248 -60.59057617 95.98876953 C-58.93739638 93.49984399 -57.28051099 91.01341775 -55.62304688 88.52734375 C-46.52559975 74.86660084 -37.47840328 61.16652835 -28.875 47.1875 C-28.35421875 46.34421143 -27.8334375 45.50092285 -27.296875 44.63208008 C-21.76008504 35.64686789 -16.28850464 26.62167088 -10.82373047 17.5925293 C-7.25723492 11.70169537 -3.66977098 5.82719494 0 0 Z " fill="#E8985A" transform="translate(485,19)"/>
<path d="M0 0 C3.02249231 0.25614342 5.99496204 0.59918481 9 1 C10.43783183 1.14899435 10.43783183 1.14899435 11.90471077 1.30099869 C22.45134864 2.96445259 27.97299848 8.65655564 35.02294922 16.01464844 C36.26249259 17.2701368 37.50433562 18.52335818 38.74827576 19.77449036 C41.40716234 22.45807892 44.04969083 25.15643967 46.68041611 27.86763763 C50.84032587 32.15381686 55.03757474 36.40211666 59.24075317 40.64581299 C67.39163312 48.88531616 75.50530997 57.16087944 83.61417389 65.4417038 C93.95481012 75.99946021 104.30816924 86.54439869 114.70290959 97.04891419 C118.87896383 101.27168748 123.03393681 105.51386083 127.1736877 109.77221727 C129.74770623 112.4121974 132.3380631 115.03567513 134.93307686 117.6550045 C136.13383051 118.87395346 137.32761534 120.09981204 138.51384163 121.33290291 C140.13269076 123.01385347 141.77448847 124.66852832 143.42428589 126.31903076 C144.33749037 127.25259777 145.25069485 128.18616478 146.19157219 129.1480217 C148.95519402 131.3613712 148.95519402 131.3613712 152.70199776 130.85823441 C155.68366954 130.08231822 157.86137168 129.23147998 160.5 127.6875 C176.14816237 119.56839313 193.41549484 118.71626059 210.14453125 123.67578125 C228.87724501 129.81000239 242.98215949 142.10267173 252.23828125 159.359375 C260.44828691 175.61387958 260.95635019 193.61739885 255.75390625 210.82128906 C252.92782423 218.98837324 248.85647227 227.60668443 243 234 C242.34 234 241.68 234 241 234 C237.64256985 228.01657985 235.67570053 223.25250861 236 216.3125 C236.21478966 210.99961467 235.70778141 207.78816219 232.46875 203.5234375 C228.61989224 199.53127121 224.92536225 198.80459912 219.5625 198.5625 C214.16123275 198.73862828 211.23907674 199.62604096 207 203 C202.71682482 208.49125023 202.30074614 213.15648268 203 220 C203.23460937 220.65613281 203.46921875 221.31226563 203.7109375 221.98828125 C204.1552911 225.08074215 202.69640655 226.49047728 200.9375 229 C194.85435034 238.11260667 190.47259155 247.62307936 187 258 C171.96595441 259.20272365 156.62894264 251.69373809 145.37890625 242.1953125 C132.69644007 230.4916245 122.79894847 215.37617003 121.87768555 197.64599609 C121.41348484 182.3792624 122.71853904 170.75590845 129.75024414 157.12329102 C131.46970121 153.78912895 131.46970121 153.78912895 131.95605469 150.13330078 C130.47191508 146.82165321 127.75054501 144.87297364 125.03125 142.58203125 C102.8254205 122.97767838 102.8254205 122.97767838 101.70043945 110.45117188 C101.84931892 105.61696804 102.47199896 100.80758845 103 96 C92.11 95.505 92.11 95.505 81 95 C81 88.07 81 81.14 81 74 C70.11 73.505 70.11 73.505 59 73 C58.67 65.74 58.34 58.48 58 51 C52.988125 51.928125 52.988125 51.928125 47.875 52.875 C38.77361192 53.54495793 32.65845526 50.78085077 25.8671875 45.05859375 C13.89735171 34.41864071 1.33968627 22.6823028 -0.10644531 5.9465332 C-0.1796875 3.5390625 -0.1796875 3.5390625 0 0 Z " fill="#FDE37E" transform="translate(127,73)"/>
<path d="M0 0 C2.41928321 0.18258741 4.78471891 0.43322575 7.1875 0.75 C8.25931519 0.8893396 8.25931519 0.8893396 9.3527832 1.03149414 C21.42663204 2.67362296 31.35009948 4.05437818 40.23718262 13.03704834 C40.74020385 13.54259412 41.24322509 14.0481399 41.76148939 14.56900525 C43.43889623 16.25713189 45.10901145 17.95229013 46.77929688 19.64746094 C47.98325178 20.86180658 49.18769654 22.07566672 50.39259338 23.28907776 C52.98270404 25.89904255 55.5698614 28.51188784 58.15492249 31.12685394 C62.24090501 35.25899055 66.3366668 39.38133812 70.43444824 43.50177002 C82.08424137 55.21841573 93.7256347 66.94331686 105.34619141 78.68896484 C111.76699617 85.17872227 118.19838658 91.65778858 124.64185572 98.12504601 C128.72111929 102.22053924 132.78686882 106.32885779 136.84333038 110.44693041 C139.36553295 113.00106443 141.90014687 115.54258694 144.43855095 118.08061028 C145.61569992 119.2626172 146.78766932 120.44980778 147.95408821 121.64240456 C149.54352917 123.26602342 151.15027696 124.87025636 152.76281738 126.47088623 C153.65875862 127.37495586 154.55469986 128.2790255 155.47779083 129.21049118 C157.84799453 131.28607532 157.84799453 131.28607532 160.66350555 130.8509407 C163.31626039 129.8848194 165.8699775 128.800149 168.4375 127.625 C186.96017061 119.82240982 206.54811662 119.87593778 225.1875 127.3125 C227.13426034 128.18802714 229.07218994 129.08350014 231 130 C231.90234375 130.40734375 232.8046875 130.8146875 233.734375 131.234375 C251.32192055 139.8756546 263.25938184 156.32755047 270.2578125 174.21484375 C272.88881909 182.39304256 273.37812726 190.14098351 273.4375 198.6875 C273.44765137 199.72028076 273.45780273 200.75306152 273.46826172 201.81713867 C273.27503839 218.92556743 266.95944216 234.91078771 256 248 C254.92782227 248.86347046 254.92782227 248.86347046 253.83398438 249.74438477 C251.68200886 251.89985431 251.68200886 251.89985431 252.03369141 254.97192383 C252.26233887 256.10138428 252.49098633 257.23084473 252.7265625 258.39453125 C253.9799296 265.56019945 254.38509078 272.42113105 254.375 279.6875 C254.37338867 280.92773926 254.37177734 282.16797852 254.37011719 283.44580078 C253.9711662 314.32538912 247.3067392 353.71164592 225.14453125 376.96875 C220.08561789 381.76043479 215.38829147 384.47744717 208.18359375 384.33203125 C203.21963506 383.57722537 199.64098708 380.82246094 196.33984375 377.15625 C185.75022833 362.63953934 184.63935622 344.76261319 184.68432617 327.47583008 C184.68746454 324.965857 184.66402366 322.45709215 184.63867188 319.94726562 C184.57940967 304.65078113 186.36449052 289.62979943 191 275 C189.71029297 274.87044922 189.71029297 274.87044922 188.39453125 274.73828125 C166.53763818 272.14024271 148.66986745 261.29998268 135.125 244.125 C122.52887941 226.53150548 119.28585547 207.19564601 121 186 C122.53208173 176.81445782 126.14795519 168.41698374 130 160 C129.18208984 159.29206299 128.36417969 158.58412598 127.52148438 157.85473633 C102.7942369 136.19014248 102.7942369 136.19014248 101.20703125 126.53125 C101.02650024 121.49769442 101.73358558 116.86240598 103 112 C102.37432129 112.01047363 101.74864258 112.02094727 101.10400391 112.03173828 C98.2777099 112.07323191 95.45147989 112.09930473 92.625 112.125 C91.64015625 112.14175781 90.6553125 112.15851563 89.640625 112.17578125 C88.69960937 112.18222656 87.75859375 112.18867188 86.7890625 112.1953125 C85.48509521 112.21102295 85.48509521 112.21102295 84.15478516 112.22705078 C82 112 82 112 80 110 C79.77294922 107.93701172 79.77294922 107.93701172 79.8046875 105.4296875 C79.81113281 104.53378906 79.81757813 103.63789063 79.82421875 102.71484375 C79.84935547 101.30912109 79.84935547 101.30912109 79.875 99.875 C79.88402344 98.93011719 79.89304687 97.98523438 79.90234375 97.01171875 C79.92595478 94.67422708 79.95888484 92.33723877 80 90 C79.40461426 90.01047363 78.80922852 90.02094727 78.19580078 90.03173828 C75.50557657 90.07323949 72.81541963 90.09930704 70.125 90.125 C69.18785156 90.14175781 68.25070313 90.15851563 67.28515625 90.17578125 C66.38925781 90.18222656 65.49335938 90.18867188 64.5703125 90.1953125 C63.74289551 90.20578613 62.91547852 90.21625977 62.06298828 90.22705078 C60 90 60 90 58 88 C57.77294922 85.93701172 57.77294922 85.93701172 57.8046875 83.4296875 C57.80968262 82.62257324 57.81467773 81.81545898 57.81982422 80.98388672 C57.83803223 79.9579541 57.85624023 78.93202148 57.875 77.875 C57.89798129 76.11345279 57.92023322 74.35189597 57.94189453 72.59033203 C57.96126302 71.06022135 57.98063151 69.53011068 58 68 C56.76580322 68.18780029 55.53160645 68.37560059 54.26000977 68.5690918 C46.57410295 69.37516806 39.70775356 69.70381613 33.21044922 65.02197266 C29.23441395 61.68217568 25.6436455 58.00573762 22.12963867 54.18774414 C19.93260726 51.80719858 17.66471639 49.51773232 15.37304688 47.22851562 C7.35521957 39.01240267 1.89774125 32.77302841 1 21 C0.62397137 19.07934969 0.23082775 17.16188311 -0.1875 15.25 C-1.0372176 10.42077162 -1.23699762 5.89795072 -1 1 C-0.67 0.67 -0.34 0.34 0 0 Z M7 9 C6.35051913 21.79194931 10.6480408 30.69384298 18.91345215 40.14633179 C32.60876951 55.61102929 32.60876951 55.61102929 51.42236328 62.12915039 C55.99118927 61.79283673 60.49540089 60.83418502 65 60 C65.33 67.26 65.66 74.52 66 82 C76.89 82.495 76.89 82.495 88 83 C88 89.93 88 96.86 88 104 C98.89 104.495 98.89 104.495 110 105 C109.5875 108.5475 109.175 112.095 108.75 115.75 C108.45993634 124.07785094 110.07915576 129.60197884 115.51208496 135.78778076 C119.85629404 140.38712963 124.4483127 144.67228603 129.17871094 148.87011719 C129.82087555 149.44330688 130.46304016 150.01649658 131.12466431 150.60705566 C132.3563315 151.69183775 133.60451273 152.75822267 134.87020874 153.80310059 C136.55908203 155.25878906 136.55908203 155.25878906 139 158 C138.9462409 163.05990006 135.87195677 167.66348539 133.61523438 172.12109375 C129.53067379 180.49746535 128.63281474 188.56425797 128.6875 197.8125 C128.69168945 198.78155273 128.69587891 199.75060547 128.70019531 200.74902344 C128.81239474 207.86533177 129.59086348 214.26489224 132 221 C132.25523437 221.81855469 132.51046875 222.63710938 132.7734375 223.48046875 C138.22596773 239.21276927 150.62996482 252.071141 165 260 C174.53223895 264.31861272 183.48709395 267.17818485 194 267 C194.36351562 266.05640625 194.72703125 265.1128125 195.1015625 264.140625 C203.1020383 243.60866829 203.1020383 243.60866829 208.9375 236 C211.29124338 233.33274734 211.29124338 233.33274734 210.65234375 231.109375 C210.43707031 230.41328125 210.22179687 229.7171875 210 229 C209.24179357 222.63106597 209.7008627 217.89568879 213.53125 212.62890625 C217.23590849 208.52028234 221.05229415 207.79407215 226.375 207.5 C232.03416972 207.66962089 235.82883163 209.17642899 240 213 C243.21062978 217.01328722 243.05006235 220.25657702 242.875 225.1875 C242.66717937 232.14149795 244.63571238 237.00435885 248 243 C253.98184114 241.00605295 256.75303576 233.48059197 259.4609375 228.09375 C267.15308727 210.75144871 268.28056934 192.90251588 262 175 C255.16538922 157.54518083 242.86863173 144.13733291 226 136 C208.48831316 128.91001192 190.86738286 127.45589751 173 134 C169.7859936 135.50255715 166.67338824 137.08116408 163.5859375 138.828125 C160.62358272 140.17058185 159.21642291 140.44941148 156 140 C153.43766785 138.02497387 153.43766785 138.02497387 150.66479492 135.19877625 C149.89422854 134.42403457 149.89422854 134.42403457 149.10809517 133.63364154 C147.38675388 131.89709988 145.68399275 130.14341463 143.98046875 128.3894043 C142.75076189 127.14191808 141.51987161 125.89559749 140.28788757 124.65036011 C137.63456742 121.9642603 134.98897277 119.2708518 132.34881592 116.57181358 C128.16847033 112.3000149 123.96645237 108.04999021 119.76025391 103.80366516 C107.80189682 91.72455646 95.87290706 79.61669644 83.96630859 67.48657227 C77.39179311 60.78901992 70.79919993 54.10979033 64.18698406 47.44945079 C60.0073043 43.23716653 55.85111255 39.00341631 51.71119022 34.75206983 C49.1207974 32.10272408 46.50944453 29.4748197 43.89191628 26.85230637 C42.68870305 25.63841928 41.49402309 24.41599983 40.30905724 23.18429375 C32.95306253 15.5497772 26.92462423 11.13459089 16 10 C15.07540985 9.87665126 14.1508197 9.75330252 13.19821167 9.62621593 C11.13764652 9.36874626 9.06917146 9.17535351 7 9 Z " fill="#6A667B" transform="translate(120,64)"/>
<path d="M0 0 C0.66 0 1.32 0 2 0 C4.69407855 15.21615567 3.66839189 31.76827873 1.30322266 46.98730469 C0.99197517 49.05326626 0.73407733 51.12154891 0.48046875 53.1953125 C-2.30243367 74.21641867 -9.47669303 100.45532433 -26 115 C-29.53813167 117.04768531 -31.89451739 117.80499659 -36 117 C-44.74833802 110.40003702 -47.84057675 98.67806852 -49.61401367 88.3527832 C-50.34763512 81.98034592 -50.29425618 75.59365271 -50.26074219 69.18603516 C-50.25008068 66.76829591 -50.26065836 64.35130964 -50.2734375 61.93359375 C-50.28628061 48.87423326 -49.10100535 36.26340256 -45.875 23.5625 C-45.69324219 22.81935547 -45.51148438 22.07621094 -45.32421875 21.31054688 C-44.88981415 19.53863337 -44.44604405 17.76901937 -44 16 C-43.16339844 15.91363281 -42.32679688 15.82726562 -41.46484375 15.73828125 C-27.65750412 14.07161456 -10.2453005 10.2453005 0 0 Z " fill="#E7975A" transform="translate(363,323)"/>
<path d="M0 0 C3.39262177 2.92999153 4.71279563 6.0057045 5.34765625 10.4140625 C5 13 5 13 3.015625 15.0625 C-7.57996565 22.48539967 -21.5790249 30.08818717 -35 29 C-32.71441265 18.88151433 -27.72794321 9.59191481 -22 1 C-21.21625 1.33 -20.4325 1.66 -19.625 2 C-13.59534396 3.66335339 -8.19850499 3.9097262 -2.375 1.5 C-1.59125 1.005 -0.8075 0.51 0 0 Z " fill="#FCE17E" transform="translate(357,302)"/>
<path d="M0 0 C3.70718433 0.81785983 5.13329673 2.33819937 7.16015625 5.4765625 C8.10041499 9.64056549 7.5896965 12.59880634 5.72265625 16.4140625 C2.10113649 19.32894426 -1.23390753 19.91991465 -5.83984375 19.4765625 C-8.76127792 17.71152936 -10.31908192 16.51808615 -11.83984375 13.4765625 C-12.52272581 6.53392826 -12.52272581 6.53392826 -9.90234375 2.4765625 C-6.33149918 0.14458237 -4.19478356 -0.26611315 0 0 Z " fill="#E6975A" transform="translate(348.83984375,278.5234375)"/>
</svg>
