<?xml version="1.0" encoding="UTF-8"?>
<svg version="1.1" xmlns="http://www.w3.org/2000/svg" width="512" height="512">
<path d="M0 0 C0.89115509 -0.00974854 1.78231018 -0.01949707 2.70046997 -0.02954102 C22.63293108 -0.20264286 41.86559565 0.06369901 61.4453125 4.23828125 C62.77079102 4.51115967 62.77079102 4.51115967 64.12304688 4.78955078 C105.34784078 13.49342708 143.65278781 33.55407357 174.4453125 62.23828125 C175.83675916 63.45166344 177.23239889 64.66025928 178.6328125 65.86328125 C185.12642006 71.55168147 190.72060083 77.62806502 196.12890625 84.36328125 C197.62026628 86.21427785 199.13192996 88.04918974 200.66796875 89.86328125 C211.37655764 102.55494215 219.73850793 116.5738543 227.4453125 131.23828125 C227.79303711 131.88893555 228.14076172 132.53958984 228.49902344 133.20996094 C239.66788692 154.35997462 246.75126165 178.69014258 250.4453125 202.23828125 C250.62787598 203.39384521 250.81043945 204.54940918 250.99853516 205.73999023 C252.59886637 217.00999862 252.84447883 228.17905615 252.8203125 239.55078125 C252.81949677 240.99969254 252.81949677 240.99969254 252.81866455 242.47787476 C252.75654087 266.55129834 249.41615617 289.15610162 242.4453125 312.23828125 C242.19442871 313.07343262 241.94354492 313.90858398 241.68505859 314.76904297 C231.64027637 347.38390177 213.65619439 377.32137709 190.4453125 402.23828125 C189.23193031 403.62972791 188.02333447 405.02536764 186.8203125 406.42578125 C181.13191228 412.91938881 175.05552873 418.51356958 168.3203125 423.921875 C166.4693159 425.41323503 164.63440401 426.92489871 162.8203125 428.4609375 C150.1286516 439.16952639 136.10973945 447.53147668 121.4453125 455.23828125 C120.7946582 455.58600586 120.14400391 455.93373047 119.47363281 456.29199219 C98.32361913 467.46085567 73.99345117 474.5442304 50.4453125 478.23828125 C49.28974854 478.42084473 48.13418457 478.6034082 46.94360352 478.79150391 C35.67359513 480.39183512 24.5045376 480.63744758 13.1328125 480.61328125 C12.16687164 480.61273743 11.20093079 480.6121936 10.20571899 480.6116333 C-13.86770459 480.54950962 -36.47250787 477.20912492 -59.5546875 470.23828125 C-60.38983887 469.98739746 -61.22499023 469.73651367 -62.08544922 469.47802734 C-94.70030802 459.43324512 -124.63778334 441.44916314 -149.5546875 418.23828125 C-150.94613416 417.02489906 -152.34177389 415.81630322 -153.7421875 414.61328125 C-160.2414509 408.91992651 -165.84238567 402.83961232 -171.25 396.09375 C-172.69580225 394.30242552 -174.16644909 392.53057919 -175.671875 390.7890625 C-207.31744649 353.8692291 -227.34870952 301.35876015 -227.79296875 252.68359375 C-227.8027626 251.79257462 -227.81255646 250.90155548 -227.82264709 249.98353577 C-228.06977464 221.65429212 -225.7888597 195.50365266 -217.5546875 168.23828125 C-217.17836182 166.9855542 -217.17836182 166.9855542 -216.79443359 165.70751953 C-203.42490392 122.29738749 -175.36083111 81.26686088 -139.5546875 53.23828125 C-138.56984375 52.44808594 -137.585 51.65789062 -136.5703125 50.84375 C-98.53859031 20.59941859 -48.96468094 0.44659656 0 0 Z " fill="#5C616B" transform="translate(243.5546875,15.76171875)"/>
<path d="M0 0 C14.96712976 -0.40074012 29.27134001 0.23987795 44 3 C44.72316406 3.13390137 45.44632813 3.26780273 46.19140625 3.40576172 C82.31476474 10.36879227 116.64761918 27.87990484 143.61328125 52.8046875 C145.18955353 54.25454841 146.79115328 55.67740103 148.41796875 57.0703125 C178.35059931 82.86281769 200.08875427 122.54869392 208 161 C208 162.32 208 163.64 208 165 C198.50524663 163.52874092 190.74564797 157.53303442 184 151 C183.58492188 151.35191406 183.16984375 151.70382813 182.7421875 152.06640625 C170.67450832 161.73569731 157.99085586 166.40504938 142.625 166.1875 C141.73683594 166.18685547 140.84867187 166.18621094 139.93359375 166.18554688 C133.42368485 166.14122828 133.42368485 166.14122828 130 165 C130.495 165.804375 130.99 166.60875 131.5 167.4375 C133.81900282 172.9451317 133.82653646 177.612228 131.875 183.25 C129.0252053 187.4296989 125.89407029 190.36864324 121 192 C117.93729412 192.10299571 114.89707515 192.14780286 111.83403015 192.14717102 C110.88423257 192.15084771 109.93443499 192.1545244 108.95585567 192.1583125 C105.75922064 192.16936436 102.56261809 192.17319571 99.3659668 192.17700195 C97.07972103 192.18326538 94.79347629 192.18991207 92.50723267 192.19691467 C86.28613501 192.21433358 80.06504505 192.22487851 73.84392905 192.2331202 C69.95948194 192.23826765 66.07503723 192.24434345 62.19059181 192.25063133 C51.43579562 192.26750066 40.68100314 192.2821363 29.9261961 192.28938007 C27.1357746 192.29128996 24.34535311 192.29321029 21.55493164 192.29516602 C20.51461733 192.29589163 20.51461733 192.29589163 19.45328657 192.2966319 C8.2154235 192.3049343 -3.0223332 192.33027561 -14.26014981 192.36274669 C-25.79770735 192.39581215 -37.33519483 192.41349548 -48.87280148 192.41702431 C-55.35082713 192.4193784 -61.82868458 192.42838577 -68.30666542 192.45348549 C-74.39942514 192.47671128 -80.49190527 192.48102145 -86.58469772 192.47072411 C-88.82203156 192.47022733 -91.05937891 192.47658937 -93.29667091 192.49028015 C-96.34914455 192.50791565 -99.4006057 192.50093363 -102.45307922 192.48774719 C-103.78368054 192.50420106 -103.78368054 192.50420106 -105.14116269 192.52098733 C-110.58769526 192.46411188 -113.67422208 191.61579097 -118 188 C-122.3022759 183.23261319 -123.36282503 179.56252705 -123.28125 173.28125 C-122.69180611 168.50020514 -119.85179203 165.75038822 -116.375 162.6875 C-111.99928833 159.57844171 -108.36155006 159.84760047 -103.14169312 159.84178162 C-102.21301788 159.83684364 -101.28434264 159.83190566 -100.32752573 159.82681805 C-97.19670523 159.81138536 -94.06590532 159.80306685 -90.93505859 159.79467773 C-88.69833696 159.78510374 -86.46161716 159.77509395 -84.22489929 159.76467896 C-78.13638058 159.73757192 -72.04785406 159.71659382 -65.95930815 159.69667697 C-59.60246569 159.67485309 -53.24564742 159.64744685 -46.88882446 159.62062073 C-36.21397917 159.57632954 -25.53912623 159.53550255 -14.86425781 159.49731445 C-3.86782869 159.45796656 7.12858937 159.41654203 18.125 159.37231445 C18.80252255 159.36959018 19.4800451 159.36686591 20.17809863 159.36405908 C23.57694168 159.35037972 26.97578456 159.33665942 30.37462735 159.32291877 C58.58306186 159.20893227 86.79152052 159.10220128 115 159 C114.25016846 158.46673096 113.50033691 157.93346191 112.7277832 157.3840332 C111.24797974 156.32188599 111.24797974 156.32188599 109.73828125 155.23828125 C108.76157471 154.54001221 107.78486816 153.84174316 106.77856445 153.12231445 C98.73179377 146.97605511 92.30534697 137.94329082 90 128 C89.08624603 128.00888245 88.17249207 128.01776489 87.23104858 128.0269165 C78.60930884 128.10714739 69.98769493 128.16800763 61.36566734 128.20724869 C56.93323178 128.22810139 52.50110533 128.25637633 48.06884766 128.30175781 C43.78944496 128.34529877 39.51033912 128.36915454 35.23073196 128.37950897 C33.60006667 128.38688559 31.96941716 128.4012906 30.33887863 128.42292023 C28.05027223 128.45206509 25.76288396 128.45595156 23.47412109 128.45410156 C22.17284271 128.46298401 20.87156433 128.47186646 19.53085327 128.48101807 C14.23718011 127.75984609 11.20527347 125.33557331 7.6875 121.4375 C4.54314064 116.8956476 4.33961916 112.35642235 5 107 C7.53240382 102.0289851 10.98861134 98.50569433 16 96 C18.21602644 95.90804381 20.43490207 95.88249982 22.65283203 95.88647461 C23.67739502 95.88625557 23.67739502 95.88625557 24.72265625 95.8860321 C26.9844071 95.88672977 29.246076 95.89451535 31.5078125 95.90234375 C33.07437088 95.90420845 34.64092984 95.90563211 36.20748901 95.90663147 C40.33389898 95.91045257 44.46027384 95.9202794 48.58666992 95.93133545 C52.79605637 95.9415583 57.00544847 95.94613097 61.21484375 95.95117188 C69.47657862 95.96190202 77.73828495 95.97897358 86 96 C85.37435093 93.42831687 84.74435332 90.85783136 84.11181641 88.2878418 C83.93602554 87.56330559 83.76023468 86.83876938 83.57911682 86.09227753 C82.3326818 81.04788908 80.83393209 76.40929955 78.375 71.8125 C78.03944092 71.1630542 77.70388184 70.5136084 77.3581543 69.84448242 C69.21826849 54.66669762 57.78806649 41.59656659 41.0625 36.4375 C29.28929777 32.7352918 20.83553396 27.6844992 12 19 C11.13181641 18.15115234 11.13181641 18.15115234 10.24609375 17.28515625 C5.55502321 12.27563184 2.86051976 6.17750543 0 0 Z " fill="#7C8088" transform="translate(251,48)"/>
<path d="M0 0 C0.1858667 0.51796143 0.3717334 1.03592285 0.56323242 1.56958008 C5.38906763 15.00889682 5.38906763 15.00889682 11.15234375 28.06640625 C12 30 12 30 12 32 C11.28271729 32.05945801 10.56543457 32.11891602 9.82641602 32.18017578 C-7.56942831 33.68131896 -24.18291199 36.27332217 -41 41 C-41.72960937 41.20351074 -42.45921875 41.40702148 -43.2109375 41.61669922 C-66.98824212 48.43622755 -89.61068694 60.78074092 -109 76 C-109.96292969 76.75023438 -110.92585938 77.50046875 -111.91796875 78.2734375 C-123.13561756 87.24108172 -133.1499322 96.67059966 -142 108 C-143.08861328 109.27230469 -143.08861328 109.27230469 -144.19921875 110.5703125 C-164.86027179 134.72896091 -177.82806663 165.3022481 -185 196 C-185.22300781 196.90363281 -185.44601563 197.80726563 -185.67578125 198.73828125 C-186.22222778 201.15349147 -186.63435168 203.55051123 -187 206 C-187.18433594 207.21945313 -187.36867187 208.43890625 -187.55859375 209.6953125 C-192.57994823 246.93596016 -186.82866203 281.62142885 -175 317 C-176.0621875 317.49628906 -177.124375 317.99257813 -178.21875 318.50390625 C-185.9917932 322.21218076 -192.95564418 325.71626375 -199 332 C-200.33333333 333.33333333 -201.66666667 334.66666667 -203 336 C-211.00617012 317.4362429 -216.89499956 297.9920011 -220 278 C-220.17660156 276.87553467 -220.35320312 275.75106934 -220.53515625 274.5925293 C-222.1375906 263.28749807 -222.39924147 252.09458054 -222.375 240.6875 C-222.37445618 239.72155914 -222.37391235 238.75561829 -222.37335205 237.76040649 C-222.31122837 213.68698291 -218.97084367 191.08217963 -212 168 C-211.62367432 166.74727295 -211.62367432 166.74727295 -211.23974609 165.46923828 C-197.87021642 122.05910624 -169.80614361 81.02857963 -134 53 C-133.01515625 52.20980469 -132.0303125 51.41960937 -131.015625 50.60546875 C-95.31635437 22.21599518 -46.3603501 0 0 0 Z " fill="#454A53" transform="translate(238,16)"/>
<path d="M0 0 C0.33 0 0.66 0 1 0 C8.6502693 38.06919725 5.15350755 79.0679905 -6 116 C-6.25088379 116.83515137 -6.50176758 117.67030273 -6.76025391 118.53076172 C-16.80503613 151.14562052 -34.78911811 181.08309584 -58 206 C-59.21338219 207.39144666 -60.42197803 208.78708639 -61.625 210.1875 C-67.31340022 216.68110756 -73.38978377 222.27528833 -80.125 227.68359375 C-81.9759966 229.17495378 -83.81090849 230.68661746 -85.625 232.22265625 C-98.3166609 242.93124514 -112.33557305 251.29319543 -127 259 C-127.97598145 259.52158691 -127.97598145 259.52158691 -128.97167969 260.05371094 C-150.24238483 271.28630896 -174.38523645 278.03760774 -198 282 C-198.72751465 282.12842285 -199.4550293 282.2568457 -200.20458984 282.38916016 C-212.40756606 284.49210737 -224.6605242 284.21084804 -237 284 C-236.96519531 283.04480469 -236.93039063 282.08960938 -236.89453125 281.10546875 C-236.721523 272.84226541 -237.27358364 265.89159966 -240 258 C-240.66773458 256.00035629 -241.33451752 254.00039434 -242 252 C-240.8253418 251.94054199 -240.8253418 251.94054199 -239.62695312 251.87988281 C-206.08910379 250.10803496 -174.40884275 245.1298899 -144 230 C-143.3503125 229.68063477 -142.700625 229.36126953 -142.03125 229.03222656 C-118.93197586 217.56408895 -96.2928567 201.12647005 -80 181 C-79.08855715 179.90102882 -78.17709719 178.80207184 -77.265625 177.703125 C-53.73135331 149.08159342 -36.8539527 114.82875097 -31 78 C-30.81566406 76.9996875 -30.63132812 75.999375 -30.44140625 74.96875 C-27.02810554 53.31194547 -28.26870313 30.59355434 -31.71875 9.05322266 C-32.04306589 6.68560407 -32.11858826 4.3865888 -32 2 C-31.33355469 2.0721875 -30.66710937 2.144375 -29.98046875 2.21875 C-19.85286242 3.23859288 -10.10634164 3.2276684 0 2 C0 1.34 0 0.68 0 0 Z " fill="#454A53" transform="translate(492,212)"/>
<path d="M0 0 C22.67028105 -0.44367882 44.69082436 -0.64901828 67 4 C67.88945312 4.18191895 68.77890625 4.36383789 69.6953125 4.55126953 C110.91228729 13.26006764 149.21253427 33.32050489 180 62 C181.39144666 63.21338219 182.78708639 64.42197803 184.1875 65.625 C190.68110756 71.31340022 196.27528833 77.38978377 201.68359375 84.125 C203.17495378 85.9759966 204.68661746 87.81090849 206.22265625 89.625 C216.93124514 102.3166609 225.29319543 116.33557305 233 131 C233.34772461 131.6506543 233.69544922 132.30130859 234.05371094 132.97167969 C239.18227367 142.68342628 242.83428887 152.8580949 246.3125 163.25 C246.63214722 164.2003009 246.63214722 164.2003009 246.95825195 165.1697998 C254.67882647 188.27015392 254.67882647 188.27015392 254 198 C242.91176323 200.69388833 233.12338537 200.40970824 222 198 C220.41855332 193.44666584 218.93358994 188.89434248 217.7109375 184.23046875 C214.36157548 171.48980765 209.83435128 159.8033219 204 148 C203.66210449 147.31180176 203.32420898 146.62360352 202.97607422 145.91455078 C196.19503553 132.26124867 187.82038024 119.65728589 178 108 C177.10908055 106.91169931 176.21847643 105.82314044 175.328125 104.734375 C160.66749405 87.00276928 143.07527841 72.2910651 123 61 C122.25685547 60.5786377 121.51371094 60.15727539 120.74804688 59.72314453 C96.79055741 46.27927046 71.17698182 37.80173871 44 34 C42.76507813 33.82082031 41.53015625 33.64164063 40.2578125 33.45703125 C34.69460427 32.77718997 29.0967528 32.64168775 23.5 32.4375 C21.83710938 32.37272461 21.83710938 32.37272461 20.140625 32.30664062 C17.42718494 32.20137786 14.71366583 32.09924154 12 32 C10.54492466 28.92467614 9.11447119 25.83845236 7.6875 22.75 C7.28337891 21.89664063 6.87925781 21.04328125 6.46289062 20.1640625 C3.44898489 13.59717847 1.54246073 7.05256262 0 0 Z " fill="#5B606B" transform="translate(238,16)"/>
<path d="M0 0 C13.55580753 4.8341159 21.57929831 14.70184899 29.48828125 26.21875 C37.51535853 37.53234775 52.69438124 44.57396291 66.0625 47.4375 C73.50721085 47.87345154 80.73346779 48.07651236 87.9375 45.9375 C99.91557782 42.5011662 113.59882239 43.08689467 124.70703125 48.796875 C129.46484737 51.49970465 133.42921345 54.29959032 137.0625 58.4375 C137.54203125 58.93765625 138.0215625 59.4378125 138.515625 59.953125 C147.48799067 69.65053032 150.55775744 80.85752703 150.390625 93.82421875 C149.88466347 99.39581892 148.16583218 104.28663908 146.0625 109.4375 C145.68867188 110.37464844 145.31484375 111.31179688 144.9296875 112.27734375 C144.64351562 112.99019531 144.35734375 113.70304687 144.0625 114.4375 C144.79082031 114.67855469 145.51914063 114.91960937 146.26953125 115.16796875 C149.44150223 116.60977374 151.30489723 118.27998956 153.75 120.75 C154.90048828 121.88888672 154.90048828 121.88888672 156.07421875 123.05078125 C158.07726595 125.45522495 159.08526149 127.48488098 160.0625 130.4375 C153.44863994 130.59412345 147.15442074 130.23566819 140.625 129.1875 C139.76664551 129.05255127 138.90829102 128.91760254 138.02392578 128.77856445 C96.66706757 122.10016969 59.44269568 105.4393507 28.0625 77.4375 C27.53108398 76.96779785 26.99966797 76.4980957 26.45214844 76.01416016 C20.23461962 70.50479096 14.29006936 64.9161116 9.0625 58.4375 C7.81726563 56.91382813 7.81726563 56.91382813 6.546875 55.359375 C-2.8254181 43.75827448 -10.89563698 31.75307901 -17.875 18.5625 C-18.33583984 17.69488037 -18.79667969 16.82726074 -19.27148438 15.93334961 C-22.04506485 10.56749864 -24.22000753 5.22910555 -25.9375 -0.5625 C-19.13300391 -3.96474805 -7.01405612 -1.95857892 0 0 Z " fill="#7C8088" transform="translate(88.9375,333.5625)"/>
<path d="M0 0 C1.42341473 -0.00445668 1.42341473 -0.00445668 2.87558532 -0.0090034 C6.07532982 -0.01771848 9.27503703 -0.01920102 12.47479248 -0.02069092 C14.76089051 -0.02531713 17.04698776 -0.03034152 19.33308411 -0.03573608 C25.55837632 -0.04888167 31.78365774 -0.05530933 38.00896168 -0.05974674 C41.89558114 -0.0626742 45.78219764 -0.06677839 49.66881561 -0.07125092 C60.42786196 -0.08336336 71.18690443 -0.09374402 81.94595718 -0.09712601 C82.63483099 -0.09734557 83.3237048 -0.09756514 84.03345357 -0.09779136 C85.06925446 -0.09811878 85.06925446 -0.09811878 86.12598062 -0.09845281 C87.5252916 -0.09889627 88.92460259 -0.09934284 90.32391357 -0.09979248 C91.36507614 -0.10012463 91.36507614 -0.10012463 92.42727229 -0.10046348 C103.67164448 -0.10441058 114.91595183 -0.12186096 126.16029897 -0.145152 C137.7023433 -0.16886681 149.24434586 -0.18106997 160.78641582 -0.18249393 C167.26777681 -0.18354342 173.74904641 -0.18948176 180.23038483 -0.20731354 C186.32720161 -0.22376035 192.42385798 -0.22596615 198.52068901 -0.21717453 C200.75962948 -0.21640232 202.99857845 -0.22077099 205.23749733 -0.23063278 C208.29206881 -0.24329908 211.34606759 -0.23750416 214.40063477 -0.22705078 C215.73225926 -0.23913539 215.73225926 -0.23913539 217.09078526 -0.25146413 C222.82356885 -0.20552454 227.23282237 0.59997946 231.59881592 4.67559814 C235.78793019 10.15367065 236.57580869 13.32669708 235.95428467 20.14044189 C234.12893876 25.41366342 231.34709264 27.93735275 226.95428467 31.14044189 C222.91063626 32.4883247 219.00543099 32.28848281 214.78831482 32.28761292 C213.36361845 32.29312795 213.36361845 32.29312795 211.91014034 32.29875439 C208.7135053 32.30980625 205.51690276 32.3136376 202.32025146 32.31744385 C200.0340057 32.32370728 197.74776096 32.33035397 195.46151733 32.33735657 C189.24041968 32.35477547 183.01932972 32.36532041 176.79821372 32.3735621 C172.91376661 32.37870954 169.0293219 32.38478534 165.14487648 32.39107323 C154.39008029 32.40794256 143.63528781 32.4225782 132.88048077 32.42982197 C130.09005927 32.43173185 127.29963778 32.43365219 124.50921631 32.43560791 C123.468902 32.43633352 123.468902 32.43633352 122.40757123 32.43707379 C111.16970816 32.44537619 99.93195146 32.4707175 88.69413485 32.50318859 C77.15657732 32.53625405 65.61908984 32.55393737 54.08148319 32.55746621 C47.60345754 32.55982029 41.12560009 32.56882767 34.64761925 32.59392738 C28.55485953 32.61715318 22.4623794 32.62146335 16.36958694 32.611166 C14.13225311 32.61066922 11.89490576 32.61703126 9.65761375 32.63072205 C6.60514012 32.64835755 3.55367897 32.64137552 0.50120544 32.62818909 C-0.82939587 32.64464296 -0.82939587 32.64464296 -2.18687803 32.66142923 C-7.63341059 32.60455378 -10.71993742 31.75623286 -15.04571533 28.14044189 C-19.34799123 23.37305509 -20.40854036 19.70296895 -20.32696533 13.42169189 C-19.73752145 8.64064703 -16.89750737 5.89083012 -13.42071533 2.82794189 C-8.99630354 -0.31571911 -5.27623107 -0.00509858 0 0 Z " fill="#F4B853" transform="translate(148.04571533203125,271.85955810546875)"/>
<path d="M0 0 C1.42341473 -0.00445668 1.42341473 -0.00445668 2.87558532 -0.0090034 C6.07532982 -0.01771848 9.27503703 -0.01920102 12.47479248 -0.02069092 C14.76089051 -0.02531713 17.04698776 -0.03034152 19.33308411 -0.03573608 C25.55837632 -0.04888167 31.78365774 -0.05530933 38.00896168 -0.05974674 C41.89558114 -0.0626742 45.78219764 -0.06677839 49.66881561 -0.07125092 C60.42786196 -0.08336336 71.18690443 -0.09374402 81.94595718 -0.09712601 C82.63483099 -0.09734557 83.3237048 -0.09756514 84.03345357 -0.09779136 C85.06925446 -0.09811878 85.06925446 -0.09811878 86.12598062 -0.09845281 C87.5252916 -0.09889627 88.92460259 -0.09934284 90.32391357 -0.09979248 C91.36507614 -0.10012463 91.36507614 -0.10012463 92.42727229 -0.10046348 C103.67164448 -0.10441058 114.91595183 -0.12186096 126.16029897 -0.145152 C137.7023433 -0.16886681 149.24434586 -0.18106997 160.78641582 -0.18249393 C167.26777681 -0.18354342 173.74904641 -0.18948176 180.23038483 -0.20731354 C186.32720161 -0.22376035 192.42385798 -0.22596615 198.52068901 -0.21717453 C200.75962948 -0.21640232 202.99857845 -0.22077099 205.23749733 -0.23063278 C208.29206881 -0.24329908 211.34606759 -0.23750416 214.40063477 -0.22705078 C215.73225926 -0.23913539 215.73225926 -0.23913539 217.09078526 -0.25146413 C222.82356885 -0.20552454 227.23282237 0.59997946 231.59881592 4.67559814 C235.78793019 10.15367065 236.57580869 13.32669708 235.95428467 20.14044189 C234.12893876 25.41366342 231.34709264 27.93735275 226.95428467 31.14044189 C222.91063626 32.4883247 219.00543099 32.28848281 214.78831482 32.28761292 C213.36361845 32.29312795 213.36361845 32.29312795 211.91014034 32.29875439 C208.7135053 32.30980625 205.51690276 32.3136376 202.32025146 32.31744385 C200.0340057 32.32370728 197.74776096 32.33035397 195.46151733 32.33735657 C189.24041968 32.35477547 183.01932972 32.36532041 176.79821372 32.3735621 C172.91376661 32.37870954 169.0293219 32.38478534 165.14487648 32.39107323 C154.39008029 32.40794256 143.63528781 32.4225782 132.88048077 32.42982197 C130.09005927 32.43173185 127.29963778 32.43365219 124.50921631 32.43560791 C123.468902 32.43633352 123.468902 32.43633352 122.40757123 32.43707379 C111.16970816 32.44537619 99.93195146 32.4707175 88.69413485 32.50318859 C77.15657732 32.53625405 65.61908984 32.55393737 54.08148319 32.55746621 C47.60345754 32.55982029 41.12560009 32.56882767 34.64761925 32.59392738 C28.55485953 32.61715318 22.4623794 32.62146335 16.36958694 32.611166 C14.13225311 32.61066922 11.89490576 32.61703126 9.65761375 32.63072205 C6.60514012 32.64835755 3.55367897 32.64137552 0.50120544 32.62818909 C-0.82939587 32.64464296 -0.82939587 32.64464296 -2.18687803 32.66142923 C-7.63341059 32.60455378 -10.71993742 31.75623286 -15.04571533 28.14044189 C-19.34799123 23.37305509 -20.40854036 19.70296895 -20.32696533 13.42169189 C-19.73752145 8.64064703 -16.89750737 5.89083012 -13.42071533 2.82794189 C-8.99630354 -0.31571911 -5.27623107 -0.00509858 0 0 Z " fill="#F4B853" transform="translate(148.04571533203125,207.85955810546875)"/>
<path d="M0 0 C0.87756454 -0.00571014 1.75512909 -0.01142029 2.6592865 -0.01730347 C3.62449722 -0.01842133 4.58970795 -0.01953918 5.58416748 -0.02069092 C6.59894669 -0.02565582 7.61372589 -0.03062073 8.65925598 -0.03573608 C12.02843903 -0.05038367 15.39757497 -0.05716457 18.76678467 -0.06268311 C21.1036784 -0.06843309 23.44057212 -0.07419084 25.77746582 -0.07995605 C30.68357565 -0.09047389 35.58966905 -0.09631121 40.49578857 -0.09979248 C46.78181927 -0.10527422 53.06763304 -0.1292923 59.35359573 -0.15776443 C64.18345777 -0.17639194 69.01326761 -0.18159652 73.84316254 -0.18312836 C76.16039972 -0.18615591 78.47763596 -0.19418788 80.79483795 -0.20731354 C84.038584 -0.22437352 87.28180098 -0.22249349 90.52557373 -0.21600342 C91.96124443 -0.22982559 91.96124443 -0.22982559 93.42591858 -0.243927 C99.36996139 -0.20668392 103.91890757 0.43821488 108.45819092 4.67559814 C112.64730519 10.15367065 113.43518369 13.32669708 112.81365967 20.14044189 C110.98831376 25.41366342 108.20646764 27.93735275 103.81365967 31.14044189 C101.04175267 32.06441089 99.36858106 32.27160156 96.50706482 32.28761292 C95.62812561 32.29476822 94.7491864 32.30192352 93.84361267 32.30929565 C92.4011895 32.31332901 92.4011895 32.31332901 90.92962646 32.31744385 C89.40723862 32.32730064 89.40723862 32.32730064 87.85409546 32.33735657 C84.49035572 32.35709185 81.12666061 32.36875204 77.76287842 32.37872314 C76.6146995 32.38279867 75.46652058 32.3868742 74.28354836 32.39107323 C68.20773117 32.41193383 62.13193657 32.42623625 56.05609131 32.43560791 C49.7778717 32.446679 43.50000587 32.48108737 37.22191143 32.52077961 C32.39634029 32.54691037 27.57085395 32.55529657 22.74521828 32.55888939 C20.43075989 32.5637636 18.11630549 32.57540121 15.80191612 32.59392738 C12.56294988 32.61824524 9.32490583 32.61736701 6.08587646 32.6104126 C5.13033371 32.62322266 4.17479095 32.63603271 3.19029236 32.64923096 C-2.45176682 32.60508234 -5.72619644 31.93805705 -10.18634033 28.14044189 C-14.48861623 23.37305509 -15.54916536 19.70296895 -15.46759033 13.42169189 C-14.87814645 8.64064703 -12.03813237 5.89083012 -8.56134033 2.82794189 C-5.40714188 0.58680089 -3.80566829 0.01480454 0 0 Z " fill="#F4B853" transform="translate(143.18634033203125,335.85955810546875)"/>
<path d="M0 0 C0.87756454 -0.00571014 1.75512909 -0.01142029 2.6592865 -0.01730347 C3.62449722 -0.01842133 4.58970795 -0.01953918 5.58416748 -0.02069092 C6.59894669 -0.02565582 7.61372589 -0.03062073 8.65925598 -0.03573608 C12.02843903 -0.05038367 15.39757497 -0.05716457 18.76678467 -0.06268311 C21.1036784 -0.06843309 23.44057212 -0.07419084 25.77746582 -0.07995605 C30.68357565 -0.09047389 35.58966905 -0.09631121 40.49578857 -0.09979248 C46.78181927 -0.10527422 53.06763304 -0.1292923 59.35359573 -0.15776443 C64.18345777 -0.17639194 69.01326761 -0.18159652 73.84316254 -0.18312836 C76.16039972 -0.18615591 78.47763596 -0.19418788 80.79483795 -0.20731354 C84.038584 -0.22437352 87.28180098 -0.22249349 90.52557373 -0.21600342 C91.96124443 -0.22982559 91.96124443 -0.22982559 93.42591858 -0.243927 C99.36996139 -0.20668392 103.91890757 0.43821488 108.45819092 4.67559814 C112.64730519 10.15367065 113.43518369 13.32669708 112.81365967 20.14044189 C110.98831376 25.41366342 108.20646764 27.93735275 103.81365967 31.14044189 C101.04175267 32.06441089 99.36858106 32.27160156 96.50706482 32.28761292 C95.62812561 32.29476822 94.7491864 32.30192352 93.84361267 32.30929565 C92.4011895 32.31332901 92.4011895 32.31332901 90.92962646 32.31744385 C89.40723862 32.32730064 89.40723862 32.32730064 87.85409546 32.33735657 C84.49035572 32.35709185 81.12666061 32.36875204 77.76287842 32.37872314 C76.6146995 32.38279867 75.46652058 32.3868742 74.28354836 32.39107323 C68.20773117 32.41193383 62.13193657 32.42623625 56.05609131 32.43560791 C49.7778717 32.446679 43.50000587 32.48108737 37.22191143 32.52077961 C32.39634029 32.54691037 27.57085395 32.55529657 22.74521828 32.55888939 C20.43075989 32.5637636 18.11630549 32.57540121 15.80191612 32.59392738 C12.56294988 32.61824524 9.32490583 32.61736701 6.08587646 32.6104126 C5.13033371 32.62322266 4.17479095 32.63603271 3.19029236 32.64923096 C-2.45176682 32.60508234 -5.72619644 31.93805705 -10.18634033 28.14044189 C-14.48861623 23.37305509 -15.54916536 19.70296895 -15.46759033 13.42169189 C-14.87814645 8.64064703 -12.03813237 5.89083012 -8.56134033 2.82794189 C-5.40714188 0.58680089 -3.80566829 0.01480454 0 0 Z " fill="#F4B853" transform="translate(271.18634033203125,143.85955810546875)"/>
<path d="M0 0 C28.9437034 -0.06843859 57.88739726 -0.12152944 86.83116565 -0.15319599 C90.24828374 -0.15694811 93.66540168 -0.16083107 97.08251953 -0.16479492 C98.10294899 -0.16597532 98.10294899 -0.16597532 99.14399318 -0.16717956 C110.15892582 -0.18023329 121.17381148 -0.20388694 132.18871625 -0.23145839 C143.49112489 -0.25951352 154.79351006 -0.27595193 166.09595525 -0.28226548 C172.44433347 -0.28618018 178.79260514 -0.29539594 185.14094925 -0.31719017 C191.11461418 -0.33753221 197.08812853 -0.34383836 203.0618248 -0.33932304 C205.25561592 -0.34014926 207.44941202 -0.34612838 209.64317322 -0.35761642 C212.63653815 -0.37252458 215.62933328 -0.36895949 218.62271118 -0.36076355 C219.49237034 -0.36950207 220.36202951 -0.3782406 221.25804198 -0.38724393 C227.84450762 -0.33844233 231.98099333 1.02586014 236.8125 5.75 C239.23825143 9.35397355 239.53140746 11.7473967 240 16 C211.20071257 16.06845271 182.40143474 16.12153673 153.60208195 16.15319599 C150.2012739 16.15694806 146.80046601 16.16083103 143.3996582 16.16479492 C142.38410813 16.16597532 142.38410813 16.16597532 141.3480419 16.16717956 C130.38875016 16.18022988 119.42950567 16.20388165 108.47024196 16.23145839 C97.22319912 16.25952302 85.97617988 16.27595397 74.72910029 16.28226548 C68.41254799 16.28617855 62.09610286 16.29538395 55.77958488 16.31719017 C49.8346438 16.3375474 43.88985406 16.34383527 37.94488144 16.33932304 C35.76279821 16.34014858 33.58070994 16.34611867 31.39865685 16.35761642 C28.4187785 16.37254834 25.4394711 16.36895081 22.45957947 16.36076355 C21.59672409 16.36950207 20.73386872 16.3782406 19.84486622 16.38724393 C12.98967684 16.33635706 8.23143306 15.13441423 3.125 10.25 C0.77489709 6.65572496 0.46860298 4.20745652 0 0 Z " fill="#F8D08A" transform="translate(144,272)"/>
<path d="M0 0 C28.9437034 -0.06843859 57.88739726 -0.12152944 86.83116565 -0.15319599 C90.24828374 -0.15694811 93.66540168 -0.16083107 97.08251953 -0.16479492 C98.10294899 -0.16597532 98.10294899 -0.16597532 99.14399318 -0.16717956 C110.15892582 -0.18023329 121.17381148 -0.20388694 132.18871625 -0.23145839 C143.49112489 -0.25951352 154.79351006 -0.27595193 166.09595525 -0.28226548 C172.44433347 -0.28618018 178.79260514 -0.29539594 185.14094925 -0.31719017 C191.11461418 -0.33753221 197.08812853 -0.34383836 203.0618248 -0.33932304 C205.25561592 -0.34014926 207.44941202 -0.34612838 209.64317322 -0.35761642 C212.63653815 -0.37252458 215.62933328 -0.36895949 218.62271118 -0.36076355 C219.49237034 -0.36950207 220.36202951 -0.3782406 221.25804198 -0.38724393 C227.84450762 -0.33844233 231.98099333 1.02586014 236.8125 5.75 C239.23825143 9.35397355 239.53140746 11.7473967 240 16 C211.20071257 16.06845271 182.40143474 16.12153673 153.60208195 16.15319599 C150.2012739 16.15694806 146.80046601 16.16083103 143.3996582 16.16479492 C142.38410813 16.16597532 142.38410813 16.16597532 141.3480419 16.16717956 C130.38875016 16.18022988 119.42950567 16.20388165 108.47024196 16.23145839 C97.22319912 16.25952302 85.97617988 16.27595397 74.72910029 16.28226548 C68.41254799 16.28617855 62.09610286 16.29538395 55.77958488 16.31719017 C49.8346438 16.3375474 43.88985406 16.34383527 37.94488144 16.33932304 C35.76279821 16.34014858 33.58070994 16.34611867 31.39865685 16.35761642 C28.4187785 16.37254834 25.4394711 16.36895081 22.45957947 16.36076355 C21.59672409 16.36950207 20.73386872 16.3782406 19.84486622 16.38724393 C12.98967684 16.33635706 8.23143306 15.13441423 3.125 10.25 C0.77489709 6.65572496 0.46860298 4.20745652 0 0 Z " fill="#F8D08A" transform="translate(144,208)"/>
<path d="M0 0 C6.52753755 3.42149738 10.60598229 9.29618341 13.1015625 16.1015625 C13.6334581 19.18791647 13.67506124 22.16312918 13.6015625 25.2890625 C13.58947754 26.11841309 13.57739258 26.94776367 13.56494141 27.80224609 C13.14953376 40.80576416 8.87720379 51.76297569 -0.5234375 60.8515625 C-8.03113801 67.07181533 -18.20836853 70.5930787 -27.9609375 70.4453125 C-29.8984375 70.1015625 -29.8984375 70.1015625 -32.8984375 67.9765625 C-34.8984375 65.1015625 -34.8984375 65.1015625 -35.5234375 62.1015625 C-34.63982892 57.8602413 -33.4506839 56.60903054 -29.8984375 54.1015625 C-27.17689088 53.47220484 -24.4696045 53.08548396 -21.703125 52.703125 C-17.47306021 51.79584091 -14.32071065 49.67071885 -10.8984375 47.1015625 C-11.4553125 47.02679688 -12.0121875 46.95203125 -12.5859375 46.875 C-21.56854983 45.32732017 -27.6910356 40.45318871 -32.8984375 33.1015625 C-35.74923273 27.2642199 -35.9656854 20.14850924 -34.31640625 13.89453125 C-31.50530712 7.38664422 -25.74360257 1.96679956 -19.41015625 -1.10546875 C-13.03991087 -3.11660376 -6.18663947 -2.3391181 0 0 Z " fill="#F2B753" transform="translate(378.8984375,329.8984375)"/>
<path d="M0 0 C6.52753755 3.42149738 10.60598229 9.29618341 13.1015625 16.1015625 C13.6334581 19.18791647 13.67506124 22.16312918 13.6015625 25.2890625 C13.58947754 26.11841309 13.57739258 26.94776367 13.56494141 27.80224609 C13.14953376 40.80576416 8.87720379 51.76297569 -0.5234375 60.8515625 C-8.03113801 67.07181533 -18.20836853 70.5930787 -27.9609375 70.4453125 C-29.8984375 70.1015625 -29.8984375 70.1015625 -32.8984375 67.9765625 C-34.8984375 65.1015625 -34.8984375 65.1015625 -35.5234375 62.1015625 C-34.63982892 57.8602413 -33.4506839 56.60903054 -29.8984375 54.1015625 C-27.17689088 53.47220484 -24.4696045 53.08548396 -21.703125 52.703125 C-17.47306021 51.79584091 -14.32071065 49.67071885 -10.8984375 47.1015625 C-11.4553125 47.02679688 -12.0121875 46.95203125 -12.5859375 46.875 C-21.56854983 45.32732017 -27.6910356 40.45318871 -32.8984375 33.1015625 C-35.74923273 27.2642199 -35.9656854 20.14850924 -34.31640625 13.89453125 C-31.50530712 7.38664422 -25.74360257 1.96679956 -19.41015625 -1.10546875 C-13.03991087 -3.11660376 -6.18663947 -2.3391181 0 0 Z " fill="#F2B753" transform="translate(322.8984375,329.8984375)"/>
<path d="M0 0 C1.9375 1.625 1.9375 1.625 2.9375 3.625 C3.21213534 6.7833064 3.3255299 8.90013859 1.8125 11.7265625 C-0.72691633 14.29772154 -2.78121793 14.50086642 -6.3125 15.125 C-11.85574996 16.25097265 -16.92737491 17.48987491 -21.0625 21.625 C-20.37285156 21.74875 -19.68320313 21.8725 -18.97265625 22 C-10.39345482 23.8829523 -4.91641878 27.52116162 0.3828125 34.5390625 C3.54528743 39.91305836 3.90199517 45.54191205 2.9375 51.625 C0.16186152 60.16070239 -4.69480908 65.10517832 -12.3125 69.5 C-18.61303319 71.39015996 -25.08877145 71.83149178 -31.25 69.1875 C-37.38621172 65.64494478 -43.14470064 59.51036746 -45.0625 52.625 C-46.59634888 37.6214339 -45.43983789 24.39700731 -35.65625 12.3671875 C-30.79239887 7.05033063 -25.67903263 3.46260575 -19.0625 0.625 C-18.11375 0.2125 -17.165 -0.2 -16.1875 -0.625 C-10.64766238 -1.95456103 -5.26227248 -2.36265295 0 0 Z " fill="#F2B753" transform="translate(229.0625,113.375)"/>
<path d="M0 0 C1.9375 1.625 1.9375 1.625 2.9375 3.625 C3.21213534 6.7833064 3.3255299 8.90013859 1.8125 11.7265625 C-0.72691633 14.29772154 -2.78121793 14.50086642 -6.3125 15.125 C-11.85574996 16.25097265 -16.92737491 17.48987491 -21.0625 21.625 C-20.37285156 21.74875 -19.68320313 21.8725 -18.97265625 22 C-10.39345482 23.8829523 -4.91641878 27.52116162 0.3828125 34.5390625 C3.54528743 39.91305836 3.90199517 45.54191205 2.9375 51.625 C0.16186152 60.16070239 -4.69480908 65.10517832 -12.3125 69.5 C-18.61303319 71.39015996 -25.08877145 71.83149178 -31.25 69.1875 C-37.38621172 65.64494478 -43.14470064 59.51036746 -45.0625 52.625 C-46.59634888 37.6214339 -45.43983789 24.39700731 -35.65625 12.3671875 C-30.79239887 7.05033063 -25.67903263 3.46260575 -19.0625 0.625 C-18.11375 0.2125 -17.165 -0.2 -16.1875 -0.625 C-10.64766238 -1.95456103 -5.26227248 -2.36265295 0 0 Z " fill="#F2B753" transform="translate(173.0625,113.375)"/>
<path d="M0 0 C12.93472182 -0.06952004 25.86939917 -0.12282161 38.80426979 -0.15543652 C44.81049831 -0.17109027 50.81659897 -0.19232357 56.82275391 -0.22631836 C62.61936067 -0.25892168 68.41584447 -0.2768552 74.21253586 -0.28463173 C76.42371939 -0.29017345 78.63489621 -0.30099504 80.84602737 -0.31719017 C83.94388609 -0.33897699 87.04123712 -0.34196635 90.13916016 -0.34057617 C91.05266235 -0.351362 91.96616455 -0.36214783 92.90734863 -0.3732605 C99.65573231 -0.34050601 103.85216142 0.89989116 108.8125 5.75 C111.23825143 9.35397355 111.53140746 11.7473967 112 16 C99.21293315 16.06955407 86.42591141 16.12283889 73.63869381 16.15543652 C67.70087431 16.17108285 61.76318439 16.19230258 55.82543945 16.22631836 C50.09366649 16.25894816 44.36201806 16.27686078 38.63015938 16.28463173 C36.4449219 16.2901687 34.25969113 16.30098104 32.07450676 16.31719017 C29.01037823 16.33901222 25.94676227 16.34196488 22.88256836 16.34057617 C21.98201218 16.351362 21.08145599 16.36214783 20.15361023 16.3732605 C13.15245641 16.33899526 8.34689151 15.24485275 3.125 10.25 C0.77489709 6.65572496 0.46860298 4.20745652 0 0 Z " fill="#F8D08A" transform="translate(144,336)"/>
<path d="M0 0 C12.93472182 -0.06952004 25.86939917 -0.12282161 38.80426979 -0.15543652 C44.81049831 -0.17109027 50.81659897 -0.19232357 56.82275391 -0.22631836 C62.61936067 -0.25892168 68.41584447 -0.2768552 74.21253586 -0.28463173 C76.42371939 -0.29017345 78.63489621 -0.30099504 80.84602737 -0.31719017 C83.94388609 -0.33897699 87.04123712 -0.34196635 90.13916016 -0.34057617 C91.05266235 -0.351362 91.96616455 -0.36214783 92.90734863 -0.3732605 C99.65573231 -0.34050601 103.85216142 0.89989116 108.8125 5.75 C111.23825143 9.35397355 111.53140746 11.7473967 112 16 C99.21293315 16.06955407 86.42591141 16.12283889 73.63869381 16.15543652 C67.70087431 16.17108285 61.76318439 16.19230258 55.82543945 16.22631836 C50.09366649 16.25894816 44.36201806 16.27686078 38.63015938 16.28463173 C36.4449219 16.2901687 34.25969113 16.30098104 32.07450676 16.31719017 C29.01037823 16.33901222 25.94676227 16.34196488 22.88256836 16.34057617 C21.98201218 16.351362 21.08145599 16.36214783 20.15361023 16.3732605 C13.15245641 16.33899526 8.34689151 15.24485275 3.125 10.25 C0.77489709 6.65572496 0.46860298 4.20745652 0 0 Z " fill="#F8D08A" transform="translate(272,144)"/>
<path d="M0 0 C1.8046875 0.640625 1.8046875 0.640625 3.8046875 2.328125 C5.10888306 5.34407723 5.21189969 7.38292747 4.8046875 10.640625 C3.8046875 12.953125 3.8046875 12.953125 1.8046875 14.640625 C-1.89512811 15.78748929 -4.99215762 16.10337688 -8.6328125 14.703125 C-11.01371087 11.56033915 -11.62081384 8.5537177 -11.1953125 4.640625 C-8.1181485 -0.22327939 -5.38557002 -1.09743691 0 0 Z " fill="#62646B" transform="translate(211.1953125,152.359375)"/>
<path d="M0 0 C1.8046875 0.640625 1.8046875 0.640625 3.8046875 2.328125 C5.10888306 5.34407723 5.21189969 7.38292747 4.8046875 10.640625 C3.8046875 12.953125 3.8046875 12.953125 1.8046875 14.640625 C-1.89512811 15.78748929 -4.99215762 16.10337688 -8.6328125 14.703125 C-11.01371087 11.56033915 -11.62081384 8.5537177 -11.1953125 4.640625 C-8.1181485 -0.22327939 -5.38557002 -1.09743691 0 0 Z " fill="#62646B" transform="translate(155.1953125,152.359375)"/>
<path d="M0 0 C2.0625 1.5625 2.0625 1.5625 3 4 C3.17821261 6.85140177 2.92914963 9.292848 2 12 C-0.93837168 14.85194898 -2.53597436 15 -6.625 15 C-10 14 -10 14 -12 11.875 C-13.30782688 8.11499772 -13.06090617 5.81926223 -12 2 C-8.81688665 -2.07438508 -4.54417813 -1.38635943 0 0 Z " fill="#61646B" transform="translate(373,345)"/>
<path d="M0 0 C2.0625 1.5625 2.0625 1.5625 3 4 C3.17821261 6.85140177 2.92914963 9.292848 2 12 C-0.93837168 14.85194898 -2.53597436 15 -6.625 15 C-10 14 -10 14 -12 11.875 C-13.30782688 8.11499772 -13.06090617 5.81926223 -12 2 C-8.81688665 -2.07438508 -4.54417813 -1.38635943 0 0 Z " fill="#61646B" transform="translate(317,345)"/>
</svg>
