<?xml version="1.0" encoding="UTF-8"?>
<svg version="1.1" xmlns="http://www.w3.org/2000/svg" width="512" height="512">
<path d="M0 0 C2.9375 0.875 2.9375 0.875 4.9375 3.875 C5.1328125 6.13671875 5.1328125 6.13671875 5.0625 8.5625 C5.04445313 9.37074219 5.02640625 10.17898437 5.0078125 11.01171875 C4.97300781 11.93404297 4.97300781 11.93404297 4.9375 12.875 C5.67274902 12.85928955 6.40799805 12.8435791 7.16552734 12.82739258 C10.547771 12.76442386 13.92989072 12.72581434 17.3125 12.6875 C19.04693359 12.64979492 19.04693359 12.64979492 20.81640625 12.61132812 C31.44107012 12.5212886 39.69863091 13.98405421 47.9609375 20.91796875 C56.06967348 28.94657888 57.23049064 38.31447345 57.30859375 49.328125 C57.30843262 50.03517578 57.30827148 50.74222656 57.30810547 51.47070312 C57.31246184 53.60629095 57.34880085 55.73977883 57.38671875 57.875 C57.47895963 68.98283768 55.93467645 78.81047531 48.00390625 87.15234375 C41.356211 92.69418421 34.15652353 95.01282558 25.640625 94.97265625 C23.83271484 94.96782227 23.83271484 94.96782227 21.98828125 94.96289062 C20.73402344 94.95451172 19.47976563 94.94613281 18.1875 94.9375 C16.91777344 94.93298828 15.64804687 94.92847656 14.33984375 94.92382812 C11.20568164 94.91204556 8.07161459 94.89559416 4.9375 94.875 C4.95490234 95.4949585 4.97230469 96.11491699 4.99023438 96.75366211 C5.01053711 97.97194702 5.01053711 97.97194702 5.03125 99.21484375 C5.04865234 100.02042725 5.06605469 100.82601074 5.08398438 101.65600586 C4.89688537 104.49024389 3.97180147 105.92546109 1.9375 107.875 C-0.4056213 107.61938677 -2.74093403 107.28229228 -5.0625 106.875 C-6.0625 104.875 -6.0625 104.875 -6.0625 94.875 C-14.9725 94.875 -23.8825 94.875 -33.0625 94.875 C-33.0625 101.805 -33.0625 108.735 -33.0625 115.875 C-31.34740234 115.85405273 -29.63230469 115.83310547 -27.86523438 115.81152344 C-22.17363356 115.74680256 -16.48208589 115.7009617 -10.79021454 115.66775131 C-7.34202868 115.64695107 -3.89424406 115.61877464 -0.44628906 115.57324219 C3.52534035 115.52112756 7.49681207 115.50199211 11.46875 115.484375 C13.30983337 115.45340729 13.30983337 115.45340729 15.18811035 115.42181396 C23.04509364 115.41976866 28.90975879 116.1613535 34.81591797 121.60693359 C38.76053821 127.31162876 41.94759699 133.30856077 45.0625 139.5 C46.20775819 141.74054387 47.3549311 143.98010995 48.50390625 146.21875 C49.0777002 147.33765625 49.65149414 148.4565625 50.24267578 149.609375 C52.75373793 154.4477454 55.36951345 159.22579959 58 164 C62.29208504 171.81115059 66.49517428 179.66427793 70.625 187.5625 C71.14263916 188.54943848 71.66027832 189.53637695 72.19360352 190.55322266 C72.66983154 191.46765137 73.14605957 192.38208008 73.63671875 193.32421875 C74.05783936 194.13205811 74.47895996 194.93989746 74.9128418 195.7722168 C76.46013613 198.94754349 77.06439603 201.49935135 77.08276367 204.98828125 C77.09233345 206.22602295 77.09233345 206.22602295 77.10209656 207.48876953 C77.10376579 208.82464111 77.10376579 208.82464111 77.10546875 210.1875 C77.10879715 211.11159668 77.11212555 212.03569336 77.11555481 212.98779297 C77.12062102 214.94807437 77.12296323 216.9083644 77.12280273 218.86865234 C77.12497132 221.83576181 77.14308036 224.80248846 77.16210938 227.76953125 C77.20899473 243.23908323 77.01327923 256.32702899 66.40234375 268.4296875 C64.9375 269.875 64.9375 269.875 61.9375 271.875 C61.47167463 274.83110233 61.47167463 274.83110233 61.53877258 278.37954712 C61.53212576 279.05504211 61.52547893 279.7305371 61.51863068 280.42650163 C61.49990792 282.70066391 61.50261206 284.97430436 61.50512695 287.24853516 C61.49611541 288.87443287 61.4857897 290.50032376 61.47424316 292.12620544 C61.44657547 296.5495174 61.43737546 300.97270081 61.43138909 305.39608812 C61.42203073 310.0152808 61.39582952 314.63437649 61.37138367 319.25350952 C61.32764488 328.00470928 61.29914332 336.75589031 61.27606028 345.50716627 C61.24904807 355.46838462 61.20513419 365.42950575 61.15977156 375.3906548 C61.06681965 395.8853843 60.9951873 416.38014291 60.9375 436.875 C61.54295654 436.99327148 62.14841309 437.11154297 62.7722168 437.23339844 C63.57312744 437.3987207 64.37403809 437.56404297 65.19921875 437.734375 C65.99030029 437.89389648 66.78138184 438.05341797 67.59643555 438.21777344 C72.68967966 439.64764237 75.99313172 442.70092051 79.25 446.75 C82.61884379 452.98859961 84.05575182 459.1407952 82.40234375 466.140625 C80.14727492 473.5835844 76.79588535 477.97513382 69.9375 481.875 C63.25174227 484.43703654 56.64058422 484.15686904 49.55227661 484.13569641 C48.18321362 484.13871914 46.81415232 484.14260923 45.44509399 484.14728898 C41.69293322 484.1575621 37.94086807 484.15538891 34.18869948 484.15110838 C30.13815899 484.14863991 26.08764145 484.15765684 22.03710938 484.16514587 C14.10545916 484.17789157 6.17384279 484.17968672 -1.75781594 484.17734561 C-8.20542122 484.17556213 -14.65301622 484.17731274 -21.10062027 484.18157005 C-22.47742976 484.18246284 -22.47742976 484.18246284 -23.88205359 484.18337366 C-25.74675527 484.18458542 -27.61145695 484.18579955 -29.47615863 484.18701603 C-46.96127343 484.19789109 -64.44636895 484.19572925 -81.93148483 484.18963119 C-97.9231705 484.18446218 -113.91479524 484.19571711 -129.90646885 484.21472941 C-146.33146993 484.234107 -162.75644219 484.24236393 -179.18145478 484.23860615 C-188.40093689 484.23669398 -197.62036715 484.2391833 -206.83983994 484.25332069 C-214.68857105 484.26523446 -222.5372184 484.26663943 -230.38595067 484.25453053 C-234.38909549 484.24864179 -238.3920871 484.24754222 -242.39522171 484.25953293 C-246.06304967 484.27039145 -249.73059648 484.26728891 -253.39841129 484.25327124 C-255.34692277 484.24937456 -257.29544674 484.2601717 -259.24392879 484.27156812 C-268.18167068 484.21652088 -276.45784401 483.47965599 -283.0625 476.875 C-287.8267047 470.74959396 -289.73010159 464.61917841 -289.0625 456.875 C-287.42427153 449.93943423 -284.97704916 445.24730746 -279.375 440.6875 C-276.46488249 439.09517155 -274.52908698 438.41723407 -271.35546875 437.76171875 C-270.55004639 437.59244873 -269.74462402 437.42317871 -268.91479492 437.2487793 C-268.3035376 437.12543213 -267.69228027 437.00208496 -267.0625 436.875 C-267.05294812 415.44790057 -267.077516 394.02108264 -267.1427784 372.5940752 C-267.17228373 362.64526189 -267.19059512 352.69666242 -267.18261719 342.74780273 C-267.17569247 334.07702441 -267.1897066 325.40657698 -267.22893608 316.73588008 C-267.24897795 312.14408227 -267.25848557 307.55280421 -267.24292374 302.96097755 C-267.22860782 298.63920326 -267.24228066 294.31842276 -267.27745247 289.99677658 C-267.28542324 288.41052586 -267.28315486 286.82418565 -267.26989174 285.23797035 C-267.25330374 283.07090444 -267.27357647 280.90717003 -267.30300903 278.74031067 C-267.30485262 277.52815289 -267.30669621 276.31599512 -267.30859566 275.06710529 C-268.37347521 270.5583003 -270.34833093 269.55308984 -274.0625 266.875 C-283.97040822 254.70182217 -283.38949122 240.70246388 -283.57739258 225.77880859 C-283.60890157 223.85692167 -283.6565183 221.93522525 -283.72094727 220.01416016 C-284.14736965 207.07006959 -282.93424018 197.85763728 -276.16940308 186.73742676 C-274.35027753 183.67664559 -272.79489295 180.48768358 -271.203125 177.3046875 C-270.56358859 176.05590867 -269.9221419 174.80810634 -269.27880859 173.5612793 C-268.95773132 172.93861176 -268.63665405 172.31594421 -268.30584717 171.67440796 C-267.9780426 171.03935333 -267.65023804 170.40429871 -267.3125 169.75 C-266.97099915 169.08811676 -266.62949829 168.42623352 -266.27764893 167.74429321 C-261.74701572 158.97188914 -257.16086252 150.23313557 -252.4375 141.5625 C-251.97762695 140.7173584 -251.51775391 139.8722168 -251.04394531 139.00146484 C-240.01125504 118.91226949 -240.01125504 118.91226949 -231.0625 115.875 C-228.13769531 115.58789062 -228.13769531 115.58789062 -224.890625 115.53125 C-223.68059814 115.50305176 -222.47057129 115.47485352 -221.22387695 115.44580078 C-219.93312256 115.42243652 -218.64236816 115.39907227 -217.3125 115.375 C-214.60261393 115.30755519 -211.89310099 115.22960059 -209.18359375 115.1484375 C-208.50149338 115.12820526 -207.81939301 115.10797302 -207.11662292 115.08712769 C-200.5246637 114.87965263 -193.95167588 114.49612458 -187.375 114 C-186.39241211 113.93361328 -185.40982422 113.86722656 -184.39746094 113.79882812 C-176.71086904 113.18179125 -168.58292365 112.2219491 -162.0625 107.875 C-162.6626884 103.67368118 -163.68173249 99.8825935 -165.0625 95.875 C-166.4071936 95.90267456 -166.4071936 95.90267456 -167.77905273 95.9309082 C-178.90168035 95.73189213 -186.51260366 92.39930876 -196.125 87.0625 C-197.57253257 86.28496717 -199.02136295 85.50984597 -200.47143555 84.73706055 C-204.03406409 82.83043725 -207.57926372 80.89402228 -211.1184082 78.94421387 C-213.96273601 77.37988715 -216.81749972 75.83496097 -219.671875 74.2890625 C-233.86794015 66.57491197 -233.86794015 66.57491197 -238.57421875 63.84375 C-245.19343662 60.17505931 -250.64304782 59.1785689 -258.2265625 59.078125 C-261.0625 58.875 -261.0625 58.875 -263.0625 56.875 C-262.48557692 50.29807692 -262.48557692 50.29807692 -261.0625 48.875 C-258.8154796 48.81069197 -256.56792897 48.76472578 -254.3203125 48.7265625 C-246.01205298 48.34058308 -240.08643751 45.47788322 -232.9375 41.25 C-231.74817059 40.5750481 -230.55695702 39.90340698 -229.36401367 39.23486328 C-227.50333603 38.19181011 -225.64394944 37.14702716 -223.7900238 36.0920105 C-216.76186482 32.09795183 -209.57232591 28.42730131 -202.375 24.75 C-200.01573345 23.54135839 -197.65804007 22.32974994 -195.30078125 21.1171875 C-193.8163855 20.35704346 -193.8163855 20.35704346 -192.30200195 19.58154297 C-189.24536769 18.07372025 -189.24536769 18.07372025 -187.37485123 16.63455105 C-179.8604925 11.51356184 -171.77113111 12.20682471 -163.06811523 12.30737305 C-161.35252423 12.30878514 -159.6369302 12.30798839 -157.92134094 12.30516052 C-153.28539032 12.30373124 -148.65009206 12.33304153 -144.01429248 12.36803031 C-139.16166704 12.39937555 -134.30902515 12.40223098 -129.45631409 12.40815735 C-120.27665151 12.42367184 -111.09728816 12.46466782 -101.91775709 12.5149048 C-91.46313426 12.5708729 -81.00849682 12.59830353 -70.55376136 12.62338197 C-49.05650751 12.67558583 -27.55952264 12.76348145 -6.0625 12.875 C-6.09730469 12.18792969 -6.13210938 11.50085937 -6.16796875 10.79296875 C-6.19503906 9.89191406 -6.22210938 8.99085937 -6.25 8.0625 C-6.28480469 7.16917969 -6.31960938 6.27585937 -6.35546875 5.35546875 C-6.0625 2.875 -6.0625 2.875 -4.7421875 1.04296875 C-3.0625 -0.125 -3.0625 -0.125 0 0 Z M-131.0625 94.875 C-131.0625 101.805 -131.0625 108.735 -131.0625 115.875 C-109.2825 115.875 -87.5025 115.875 -65.0625 115.875 C-65.0625 108.945 -65.0625 102.015 -65.0625 94.875 C-86.8425 94.875 -108.6225 94.875 -131.0625 94.875 Z " fill="#030303" transform="translate(359.0625,14.125)"/>
<path d="M0 0 C0.66 0 1.32 0 2 0 C2.515625 0.86625 3.03125 1.7325 3.5625 2.625 C7.28721625 8.48208169 14.28881792 12.36410817 20.77734375 14.53125 C29.73214683 16.41978492 39.31622884 15.38628897 47.22265625 10.67578125 C51.54282754 7.59917328 54.6811924 4.0997035 58 0 C58.66 0 59.32 0 60 0 C64 4.47058824 64 4.47058824 64 7 C64.83337891 7.41572266 64.83337891 7.41572266 65.68359375 7.83984375 C67.2820211 8.64040517 68.87824901 9.44536798 70.47265625 10.25390625 C71.75462891 10.90166016 71.75462891 10.90166016 73.0625 11.5625 C73.91972656 11.99691406 74.77695313 12.43132812 75.66015625 12.87890625 C83.45207746 16.61226416 92.6549472 15.78791532 100.68359375 13.04296875 C107.24743019 10.08758202 111.55278176 5.49362254 116 0 C116.66 0 117.32 0 118 0 C119.0896512 1.1868363 120.12248565 2.42619706 121.125 3.6875 C126.51884722 10.02330807 133.2305872 14.53039663 141.6875 15.21875 C152.21092917 15.54089579 159.70425247 13.39463872 168 7 C168.66 7 169.32 7 170 7 C170.28875 6.401875 170.5775 5.80375 170.875 5.1875 C172 3 172 3 174 0 C174.66 0 175.32 0 176 0 C177.0896512 1.1868363 178.12248565 2.42619706 179.125 3.6875 C184.51884722 10.02330807 191.2305872 14.53039663 199.6875 15.21875 C210.84877032 15.56042154 219.47414912 13.14908832 227.75 5.4375 C230.10091911 3.01845285 230.10091911 3.01845285 232 0 C235.41466279 1.13822093 235.93806519 1.97309749 238.0625 4.75 C242.64938867 10.19754156 248.3395972 12.77986573 255 15 C260.28 15 265.56 15 271 15 C271 68.13 271 121.26 271 176 C236.35 176 201.7 176 166 176 C165.97421875 166.90179688 165.9484375 157.80359375 165.921875 148.4296875 C165.89671159 142.66924924 165.87054583 136.9088445 165.83984375 131.1484375 C165.79128818 122.00325749 165.74685072 112.85818901 165.72900391 103.71289062 C165.71598725 97.05238109 165.6890225 90.39209818 165.64538693 83.73171628 C165.62277208 80.20583152 165.60708931 76.68022626 165.60811615 73.15426254 C165.60900158 69.21572676 165.57874342 65.27776147 165.54589844 61.33935547 C165.5509288 60.17338333 165.55595917 59.00741119 165.56114197 57.80610657 C165.48341662 51.79019872 165.39854003 47.54023419 161 43 C156.54584925 40.02733745 152.57353449 39.56179117 147.34570312 39.59594727 C146.23230812 39.58565239 146.23230812 39.58565239 145.09642029 39.57514954 C142.65783224 39.55693972 140.21989104 39.56071003 137.78125 39.56640625 C136.07783805 39.56184208 134.37442795 39.55653581 132.67102051 39.55052185 C129.1069387 39.54160254 125.54308112 39.54400089 121.97900391 39.55395508 C117.41923593 39.5654514 112.86024163 39.54521751 108.30057526 39.51603794 C104.78488274 39.49766468 101.26937534 39.49797048 97.75364685 39.50367546 C96.07277846 39.5038285 94.39189738 39.49779893 92.71107483 39.48538399 C90.35832574 39.47045147 88.00700233 39.48116551 85.65429688 39.49829102 C84.96528793 39.48862305 84.27627899 39.47895508 83.56639099 39.46899414 C78.60337241 39.54437561 75.77405878 40.82213724 72 44 C69.44335477 47.58162854 68.62293746 50.04204654 68.60127258 54.42268372 C68.58246536 56.03589005 68.58246536 56.03589005 68.5632782 57.6816864 C68.56543083 59.43603752 68.56543083 59.43603752 68.56762695 61.22583008 C68.5574353 62.46526367 68.54724365 63.70469727 68.53674316 64.98168945 C68.51175545 68.37190726 68.49989268 71.76169204 68.49388909 75.15196443 C68.48449801 78.69811267 68.45829406 82.24413598 68.43388367 85.79020691 C68.39023507 92.50134139 68.3616781 99.2124516 68.33856028 105.92368478 C68.30643804 114.99528411 68.25096814 124.06673885 68.19681454 133.13822842 C68.11213971 147.4254426 68.05862949 161.71260022 68 176 C33.35 176 -1.3 176 -37 176 C-37 122.87 -37 69.74 -37 15 C-32.38 15 -27.76 15 -23 15 C-13.0035528 12.6246066 -5.790227 8.68534051 0 0 Z " fill="#D1E4E9" transform="translate(139,275)"/>
<path d="M0 0 C0.71884369 -0.00350464 1.43768738 -0.00700928 2.17831421 -0.01062012 C4.56037991 -0.01944059 6.9421499 -0.0135873 9.32421875 -0.00683594 C10.9756679 -0.0081825 12.62711666 -0.01012296 14.27856445 -0.01263428 C17.74206308 -0.01558596 21.20545865 -0.01128651 24.66894531 -0.00195312 C29.11467186 0.00944148 33.56015695 0.00288224 38.00587463 -0.00909805 C41.41672596 -0.01631548 44.82751977 -0.01402928 48.2383728 -0.00884247 C49.87787911 -0.00750564 51.5173906 -0.00915483 53.15689087 -0.01380157 C55.44588101 -0.01886494 57.73447683 -0.01115956 60.0234375 0 C61.97963013 0.00238678 61.97963013 0.00238678 63.9753418 0.00482178 C67.01171875 0.25878906 67.01171875 0.25878906 69.01171875 2.25878906 C69.25781441 4.44143867 69.25781441 4.44143867 69.25222778 7.20681763 C69.25497711 8.25292206 69.25772644 9.29902649 69.26055908 10.37683105 C69.24977325 12.10528259 69.24977325 12.10528259 69.23876953 13.86865234 C69.23906158 15.07838715 69.23935364 16.28812195 69.23965454 17.53451538 C69.23849785 20.85670193 69.22845002 24.17864157 69.21450663 27.5007844 C69.20202553 30.97080162 69.20083084 34.44082194 69.19845581 37.91085815 C69.19223331 44.48402694 69.17581213 51.05712939 69.15575683 57.63026893 C69.13123178 65.84627334 69.12026635 74.06228846 69.109375 82.27832031 C69.08988103 96.93852826 69.04981918 111.59859143 69.01171875 126.25878906 C43.27171875 126.25878906 17.53171875 126.25878906 -8.98828125 126.25878906 C-9.06860859 95.35061492 -9.06860859 95.35061492 -9.08878899 80.12726402 C-9.09988893 71.88088058 -9.11399971 63.63453741 -9.13916016 55.38818359 C-9.15906536 48.86113962 -9.17199085 42.33412598 -9.17645824 35.80705249 C-9.17907051 32.34951134 -9.1852298 28.892057 -9.19974136 25.43454361 C-9.21579198 21.5792297 -9.21626279 17.7240015 -9.21533203 13.86865234 C-9.22252258 12.71635132 -9.22971313 11.56405029 -9.23712158 10.37683105 C-9.23437225 9.33072662 -9.23162292 8.28462219 -9.22879028 7.20681763 C-9.23063387 6.29424257 -9.23247746 5.38166752 -9.23437691 4.44143867 C-8.62871391 -0.93025345 -4.36957881 0.00533139 0 0 Z " fill="#7C85E4" transform="translate(225.98828125,323.7412109375)"/>
<path d="M0 0 C1.15726794 -0.00583219 2.31453587 -0.01166439 3.50687253 -0.01767331 C5.41511224 -0.01200433 5.41511224 -0.01200433 7.36190224 -0.00622082 C8.72638935 -0.00924071 10.09087478 -0.01312937 11.45535719 -0.01781338 C15.20868612 -0.02812321 18.96191985 -0.025904 22.71525669 -0.02163279 C26.76170261 -0.01917095 30.80812529 -0.028173 34.85456276 -0.03567028 C42.78361217 -0.04843465 50.71262775 -0.05020879 58.64168571 -0.04787002 C65.08557464 -0.04608856 71.52945329 -0.0478328 77.97334099 -0.05209446 C78.88971126 -0.05268965 79.80608153 -0.05328484 80.7502206 -0.05389806 C82.61170708 -0.05510979 84.47319356 -0.05632392 86.33468004 -0.05754044 C103.80109185 -0.06842277 121.26748438 -0.06625027 138.73389728 -0.06015559 C154.71810059 -0.0549864 170.70224295 -0.06624071 186.68643419 -0.08525381 C203.09211561 -0.10461893 219.49776818 -0.11289051 235.9034611 -0.10913056 C245.11674417 -0.10721642 254.32997537 -0.10972668 263.54324913 -0.1238451 C271.38701508 -0.13574302 279.23069724 -0.13718172 287.07446431 -0.12505493 C291.07721659 -0.11915491 295.07981549 -0.11809769 299.08255768 -0.13005733 C302.74664791 -0.14087798 306.410456 -0.13785863 310.07453282 -0.12379565 C312.02838695 -0.11987888 313.98225343 -0.130727 315.93607843 -0.14209253 C323.236273 -0.09683668 327.99194255 0.42224289 333.73021889 5.25447559 C336.21751096 9.84639943 336.22317124 14.15151435 335.35521889 19.25447559 C333.70831844 22.66976914 331.47308309 24.70586688 328.03992695 26.39074004 C325.07201362 27.34558958 322.70214611 27.5073578 319.58738995 27.5117445 C318.42813096 27.51819339 317.26887198 27.52464228 316.07448393 27.5312866 C314.80523697 27.52818939 313.53599001 27.52509219 312.22828102 27.52190113 C310.86293042 27.52563816 309.49758196 27.53023989 308.1322369 27.53563178 C304.38117185 27.54787049 300.63019593 27.5476003 296.87911546 27.54524302 C292.83336535 27.54483509 288.7876439 27.55587172 284.74190712 27.56535816 C276.81634076 27.58197322 268.89080415 27.58746791 260.96522183 27.58858292 C254.52421676 27.58953302 248.08322151 27.59364143 241.64221954 27.59998417 C223.38542738 27.6175969 205.12865873 27.62682283 186.87185801 27.62532322 C185.88756583 27.62524331 184.90327365 27.6251634 183.88915443 27.62508106 C182.90366231 27.6249993 181.9181702 27.62491754 180.90281468 27.6248333 C164.92512532 27.62402009 148.94753017 27.64316657 132.96986807 27.6713578 C116.5686741 27.7000683 100.16752609 27.71389915 83.76630634 27.71217024 C74.55637156 27.71150577 65.34653556 27.71702318 56.13662338 27.73852634 C48.29652513 27.7567139 40.45657046 27.7611054 32.61646027 27.7475075 C28.61568023 27.74096591 24.61517586 27.74090333 20.61442184 27.758214 C16.9521512 27.77389733 13.29037588 27.77113026 9.62811767 27.75364573 C7.6752962 27.74910571 5.72245964 27.7642702 3.76969725 27.78012502 C-2.64496606 27.72934514 -6.81215337 27.66839131 -11.64478111 23.25447559 C-14.55861504 20.22952088 -15.09807456 18.04803525 -15.14478111 13.87947559 C-15.04426743 10.1152381 -14.77143429 7.66279207 -12.39478111 4.69197559 C-8.21276724 0.98519057 -5.58583334 0.00483815 0 0 Z " fill="#625F56" transform="translate(95.6447811126709,460.7455244064331)"/>
<path d="M0 0 C1.05872818 -0.00619858 2.11745636 -0.01239716 3.20826721 -0.01878357 C5.43969812 -0.02586421 7.67118205 -0.02273856 9.90258789 -0.01000977 C13.30259159 0.00384994 16.69983794 -0.03023707 20.09960938 -0.06835938 C22.27474025 -0.06931074 24.44987455 -0.06745082 26.625 -0.0625 C27.63356552 -0.07575821 28.64213104 -0.08901642 29.68125916 -0.10267639 C36.0487544 -0.01935736 41.2420545 0.90069202 45.87890625 5.56640625 C49.10992869 10.56402901 49.29593991 14.67106825 49.21948242 20.41748047 C49.22013954 21.72089638 49.22013954 21.72089638 49.22080994 23.05064392 C49.21872872 25.9076933 49.19542924 28.76414755 49.171875 31.62109375 C49.16627667 33.60791707 49.16200769 35.59474454 49.15901184 37.58157349 C49.14758174 42.79963707 49.11813026 48.01744838 49.0848999 53.2354126 C49.0541595 58.56445911 49.04049802 63.89354655 49.02539062 69.22265625 C48.99325888 79.67068348 48.94208465 90.11852385 48.87890625 100.56640625 C49.66523438 100.54320312 50.4515625 100.52 51.26171875 100.49609375 C53.87890625 100.56640625 53.87890625 100.56640625 55.75390625 101.69140625 C56.87890625 103.56640625 56.87890625 103.56640625 56.69140625 106.69140625 C56.42328125 107.64015625 56.15515625 108.58890625 55.87890625 109.56640625 C52.82024468 111.09573703 49.62046001 110.72250605 46.26391602 110.72753906 C45.08564743 110.73498642 45.08564743 110.73498642 43.88357544 110.74258423 C41.27914563 110.75721684 38.6747767 110.76400912 36.0703125 110.76953125 C34.26431781 110.77528113 32.45832314 110.78103888 30.65232849 110.7868042 C26.86351232 110.79731685 23.07471738 110.80315801 19.28588867 110.80664062 C14.42545065 110.81213058 9.56529203 110.8361681 4.70494175 110.86461258 C0.97408724 110.88321274 -2.75669955 110.88844312 -6.48759651 110.8899765 C-8.27980136 110.89300873 -10.07200486 110.90105639 -11.86416435 110.91416168 C-14.36856396 110.93117016 -16.87227545 110.92935509 -19.37670898 110.92285156 C-20.12019089 110.93206635 -20.86367279 110.94128113 -21.62968445 110.95077515 C-24.5930942 110.92660385 -26.62803687 110.90292427 -29.11683655 109.20428467 C-30.12109375 107.56640625 -30.12109375 107.56640625 -29.93359375 105.00390625 C-29.12109375 102.56640625 -29.12109375 102.56640625 -27.12109375 100.56640625 C-24.49609375 100.44140625 -24.49609375 100.44140625 -22.12109375 100.56640625 C-22.1299762 99.46695175 -22.13885864 98.36749725 -22.14801025 97.23472595 C-22.22917578 86.86208247 -22.28909748 76.48950361 -22.32834244 66.11661434 C-22.34919715 60.78406961 -22.37747642 55.4517817 -22.42285156 50.11938477 C-22.46638437 44.97114609 -22.49024677 39.82315412 -22.50060272 34.67474556 C-22.50798072 32.71277548 -22.52238829 30.75081855 -22.54401398 28.78895378 C-22.57314672 26.03601008 -22.57704563 23.28407946 -22.57519531 20.53100586 C-22.59676697 19.32043266 -22.59676697 19.32043266 -22.61877441 18.08540344 C-22.5779556 12.45487412 -21.36265481 9.19793314 -18.12109375 4.56640625 C-12.34659587 0.0259056 -7.1733608 -0.03520611 0 0 Z " fill="#53ABFE" transform="translate(142.12109375,313.43359375)"/>
<path d="M0 0 C1.06109985 -0.0038269 2.12219971 -0.00765381 3.2154541 -0.01159668 C5.45110019 -0.01430954 7.68677836 -0.0069924 9.92236328 0.00976562 C13.33308059 0.031183 16.74169151 0.00994137 20.15234375 -0.015625 C22.33073379 -0.01298161 24.50912252 -0.00785642 26.6875 0 C28.20809021 -0.01214539 28.20809021 -0.01214539 29.75939941 -0.02453613 C35.97937904 0.05733668 39.89534074 0.63394238 44.84375 4.53125 C48.66952541 9.99808966 49.41515168 13.91311955 49.29785156 20.49584961 C49.29843567 21.36493958 49.29901978 22.23402954 49.29962158 23.12945557 C49.29685106 25.98125164 49.2658084 28.83198193 49.234375 31.68359375 C49.22690893 33.66898528 49.22121773 35.65438421 49.21722412 37.63978577 C49.20199665 42.84970668 49.16273965 48.05917718 49.1184082 53.2689209 C49.0773932 58.59132801 49.05919981 63.91380832 49.0390625 69.23632812 C48.99624266 79.66816597 48.92802629 90.09967044 48.84375 100.53125 C49.63007813 100.50675781 50.41640625 100.48226562 51.2265625 100.45703125 C53.84375 100.53125 53.84375 100.53125 55.71875 101.71875 C56.84375 103.53125 56.84375 103.53125 56.65625 106.09375 C55.84375 108.53125 55.84375 108.53125 53.84375 110.53125 C51.27021431 110.73484063 48.80382691 110.8144655 46.22875977 110.8059082 C45.05049118 110.8135746 45.05049118 110.8135746 43.84841919 110.82139587 C41.24392136 110.83533054 38.639687 110.83433219 36.03515625 110.83203125 C34.22916057 110.83591613 32.42316581 110.84025037 30.61717224 110.84501648 C26.82832887 110.85248708 23.03957866 110.85218141 19.25073242 110.84692383 C14.39026877 110.84112885 9.53018613 110.85805673 4.6697855 110.8812685 C0.93891665 110.89598562 -2.79186003 110.8968803 -6.52275276 110.89375877 C-8.31494972 110.89427303 -10.1071517 110.89953029 -11.8993206 110.90957069 C-14.40375543 110.92187848 -16.90744277 110.91517784 -19.41186523 110.90356445 C-20.15534714 110.91120819 -20.89882904 110.91885193 -21.6648407 110.92672729 C-24.62734065 110.89629305 -26.66477204 110.86693464 -29.1519928 109.1681366 C-30.15625 107.53125 -30.15625 107.53125 -29.96875 104.96875 C-29.15625 102.53125 -29.15625 102.53125 -27.15625 100.53125 C-24.53125 100.40625 -24.53125 100.40625 -22.15625 100.53125 C-22.16513245 99.4317955 -22.17401489 98.332341 -22.1831665 97.1995697 C-22.26433203 86.82692622 -22.32425373 76.45434736 -22.36349869 66.08145809 C-22.3843534 60.74891336 -22.41263267 55.41662545 -22.45800781 50.08422852 C-22.50154062 44.93598984 -22.52540302 39.78799787 -22.53575897 34.63958931 C-22.54313697 32.67761923 -22.55754454 30.7156623 -22.57917023 28.75379753 C-22.60830297 26.00085383 -22.61220188 23.24892321 -22.61035156 20.49584961 C-22.63192322 19.28527641 -22.63192322 19.28527641 -22.65393066 18.05024719 C-22.61311142 12.41965915 -21.3975852 9.16295415 -18.15625 4.53125 C-12.36914733 -0.02660245 -7.19028696 -0.05743086 0 0 Z " fill="#53ABFE" transform="translate(343.15625,313.46875)"/>
<path d="M0 0 C55.44 0 110.88 0 168 0 C168 8.58 168 17.16 168 26 C112.56 26 57.12 26 0 26 C0 17.42 0 8.84 0 0 Z " fill="#F3CD41" transform="translate(186,37)"/>
<path d="M0 0 C55.11 0 110.22 0 167 0 C167 8.58 167 17.16 167 26 C111.89 26 56.78 26 0 26 C0 17.42 0 8.84 0 0 Z " fill="#F6CF41" transform="translate(186,73)"/>
<path d="M0 0 C1.05872818 -0.00619858 2.11745636 -0.01239716 3.20826721 -0.01878357 C5.43969812 -0.02586421 7.67118205 -0.02273856 9.90258789 -0.01000977 C13.30259159 0.00384994 16.69983794 -0.03023707 20.09960938 -0.06835938 C22.27474025 -0.06931074 24.44987455 -0.06745082 26.625 -0.0625 C27.63356552 -0.07575821 28.64213104 -0.08901642 29.68125916 -0.10267639 C36.0487544 -0.01935736 41.2420545 0.90069202 45.87890625 5.56640625 C49.10992869 10.56402901 49.29593991 14.67106825 49.21948242 20.41748047 C49.22013954 21.72089638 49.22013954 21.72089638 49.22080994 23.05064392 C49.21872872 25.9076933 49.19542924 28.76414755 49.171875 31.62109375 C49.16627667 33.60791707 49.16200769 35.59474454 49.15901184 37.58157349 C49.14758174 42.79963707 49.11813026 48.01744838 49.0848999 53.2354126 C49.0541595 58.56445911 49.04049802 63.89354655 49.02539062 69.22265625 C48.99325888 79.67068348 48.94208465 90.11852385 48.87890625 100.56640625 C49.66523438 100.54320312 50.4515625 100.52 51.26171875 100.49609375 C53.87890625 100.56640625 53.87890625 100.56640625 55.75390625 101.69140625 C56.87890625 103.56640625 56.87890625 103.56640625 56.69140625 106.69140625 C56.42328125 107.64015625 56.15515625 108.58890625 55.87890625 109.56640625 C52.82024468 111.09573703 49.62046001 110.72250605 46.26391602 110.72753906 C45.08564743 110.73498642 45.08564743 110.73498642 43.88357544 110.74258423 C41.27914563 110.75721684 38.6747767 110.76400912 36.0703125 110.76953125 C34.26431781 110.77528113 32.45832314 110.78103888 30.65232849 110.7868042 C26.86351232 110.79731685 23.07471738 110.80315801 19.28588867 110.80664062 C14.42545065 110.81213058 9.56529203 110.8361681 4.70494175 110.86461258 C0.97408724 110.88321274 -2.75669955 110.88844312 -6.48759651 110.8899765 C-8.27980136 110.89300873 -10.07200486 110.90105639 -11.86416435 110.91416168 C-14.36856396 110.93117016 -16.87227545 110.92935509 -19.37670898 110.92285156 C-20.12019089 110.93206635 -20.86367279 110.94128113 -21.62968445 110.95077515 C-24.5930942 110.92660385 -26.62803687 110.90292427 -29.11683655 109.20428467 C-30.12109375 107.56640625 -30.12109375 107.56640625 -29.93359375 105.00390625 C-29.12109375 102.56640625 -29.12109375 102.56640625 -27.12109375 100.56640625 C-24.49609375 100.44140625 -24.49609375 100.44140625 -22.12109375 100.56640625 C-22.1299762 99.46695175 -22.13885864 98.36749725 -22.14801025 97.23472595 C-22.22917578 86.86208247 -22.28909748 76.48950361 -22.32834244 66.11661434 C-22.34919715 60.78406961 -22.37747642 55.4517817 -22.42285156 50.11938477 C-22.46638437 44.97114609 -22.49024677 39.82315412 -22.50060272 34.67474556 C-22.50798072 32.71277548 -22.52238829 30.75081855 -22.54401398 28.78895378 C-22.57314672 26.03601008 -22.57704563 23.28407946 -22.57519531 20.53100586 C-22.59676697 19.32043266 -22.59676697 19.32043266 -22.61877441 18.08540344 C-22.5779556 12.45487412 -21.36265481 9.19793314 -18.12109375 4.56640625 C-12.34659587 0.0259056 -7.1733608 -0.03520611 0 0 Z M-12.12109375 12.56640625 C-12.30923196 15.36790139 -12.37284385 18.06976628 -12.34814453 20.87158203 C-12.34843658 21.73018829 -12.34872864 22.58879456 -12.34902954 23.47341919 C-12.34763297 26.31962082 -12.33205648 29.16556269 -12.31640625 32.01171875 C-12.31267728 33.98184059 -12.30982976 35.95196427 -12.30783081 37.92208862 C-12.30018521 43.11384173 -12.28052879 48.30548339 -12.25842285 53.49719238 C-12.23439247 59.72296343 -12.22518785 65.94877168 -12.21351624 72.17457581 C-12.19410492 81.63859686 -12.15578878 91.10237325 -12.12109375 100.56640625 C4.70890625 100.56640625 21.53890625 100.56640625 38.87890625 100.56640625 C38.93704413 84.97461665 38.93704413 84.97461665 38.9765625 69.3828125 C38.98853447 63.02682166 39.00272197 56.67088824 39.02978516 50.31494141 C39.05145977 45.1926803 39.06346348 40.07048075 39.06866074 34.94817734 C39.07236619 32.99047755 39.07960166 31.03278127 39.09036636 29.07510757 C39.10480982 26.34052404 39.10688721 23.60619735 39.10595703 20.87158203 C39.11314758 20.05590759 39.12033813 19.24023315 39.12774658 18.39984131 C39.28833254 14.01505522 39.28833254 14.01505522 36.87890625 10.56640625 C34.79231754 10.26092733 34.79231754 10.26092733 32.36914062 10.30761719 C31.43477173 10.30131287 30.50040283 10.29500854 29.53771973 10.28851318 C28.02051331 10.29458588 28.02051331 10.29458588 26.47265625 10.30078125 C25.43701538 10.2988678 24.40137451 10.29695435 23.33435059 10.29498291 C21.142006 10.29362028 18.94965336 10.29732211 16.75732422 10.30566406 C13.39272009 10.31636233 10.02864993 10.30577122 6.6640625 10.29296875 C4.53775923 10.29429033 2.4114563 10.29685269 0.28515625 10.30078125 C-0.7263147 10.29673279 -1.73778564 10.29268433 -2.77990723 10.28851318 C-3.71427612 10.2948175 -4.64864502 10.30112183 -5.61132812 10.30761719 C-6.43580444 10.30920837 -7.26028076 10.31079956 -8.10974121 10.31243896 C-10.34986243 10.38653785 -10.34986243 10.38653785 -12.12109375 12.56640625 Z " fill="#050709" transform="translate(142.12109375,313.43359375)"/>
<path d="M0 0 C1.06109985 -0.0038269 2.12219971 -0.00765381 3.2154541 -0.01159668 C5.45110019 -0.01430954 7.68677836 -0.0069924 9.92236328 0.00976562 C13.33308059 0.031183 16.74169151 0.00994137 20.15234375 -0.015625 C22.33073379 -0.01298161 24.50912252 -0.00785642 26.6875 0 C28.20809021 -0.01214539 28.20809021 -0.01214539 29.75939941 -0.02453613 C35.97937904 0.05733668 39.89534074 0.63394238 44.84375 4.53125 C48.66952541 9.99808966 49.41515168 13.91311955 49.29785156 20.49584961 C49.29843567 21.36493958 49.29901978 22.23402954 49.29962158 23.12945557 C49.29685106 25.98125164 49.2658084 28.83198193 49.234375 31.68359375 C49.22690893 33.66898528 49.22121773 35.65438421 49.21722412 37.63978577 C49.20199665 42.84970668 49.16273965 48.05917718 49.1184082 53.2689209 C49.0773932 58.59132801 49.05919981 63.91380832 49.0390625 69.23632812 C48.99624266 79.66816597 48.92802629 90.09967044 48.84375 100.53125 C49.63007813 100.50675781 50.41640625 100.48226562 51.2265625 100.45703125 C53.84375 100.53125 53.84375 100.53125 55.71875 101.71875 C56.84375 103.53125 56.84375 103.53125 56.65625 106.09375 C55.84375 108.53125 55.84375 108.53125 53.84375 110.53125 C51.27021431 110.73484063 48.80382691 110.8144655 46.22875977 110.8059082 C45.05049118 110.8135746 45.05049118 110.8135746 43.84841919 110.82139587 C41.24392136 110.83533054 38.639687 110.83433219 36.03515625 110.83203125 C34.22916057 110.83591613 32.42316581 110.84025037 30.61717224 110.84501648 C26.82832887 110.85248708 23.03957866 110.85218141 19.25073242 110.84692383 C14.39026877 110.84112885 9.53018613 110.85805673 4.6697855 110.8812685 C0.93891665 110.89598562 -2.79186003 110.8968803 -6.52275276 110.89375877 C-8.31494972 110.89427303 -10.1071517 110.89953029 -11.8993206 110.90957069 C-14.40375543 110.92187848 -16.90744277 110.91517784 -19.41186523 110.90356445 C-20.15534714 110.91120819 -20.89882904 110.91885193 -21.6648407 110.92672729 C-24.62734065 110.89629305 -26.66477204 110.86693464 -29.1519928 109.1681366 C-30.15625 107.53125 -30.15625 107.53125 -29.96875 104.96875 C-29.15625 102.53125 -29.15625 102.53125 -27.15625 100.53125 C-24.53125 100.40625 -24.53125 100.40625 -22.15625 100.53125 C-22.16513245 99.4317955 -22.17401489 98.332341 -22.1831665 97.1995697 C-22.26433203 86.82692622 -22.32425373 76.45434736 -22.36349869 66.08145809 C-22.3843534 60.74891336 -22.41263267 55.41662545 -22.45800781 50.08422852 C-22.50154062 44.93598984 -22.52540302 39.78799787 -22.53575897 34.63958931 C-22.54313697 32.67761923 -22.55754454 30.7156623 -22.57917023 28.75379753 C-22.60830297 26.00085383 -22.61220188 23.24892321 -22.61035156 20.49584961 C-22.63192322 19.28527641 -22.63192322 19.28527641 -22.65393066 18.05024719 C-22.61311142 12.41965915 -21.3975852 9.16295415 -18.15625 4.53125 C-12.36914733 -0.02660245 -7.19028696 -0.05743086 0 0 Z M-12.15625 12.53125 C-12.34438821 15.33274514 -12.4080001 18.03461003 -12.38330078 20.83642578 C-12.38359283 21.69503204 -12.38388489 22.55363831 -12.38418579 23.43826294 C-12.38278922 26.28446457 -12.36721273 29.13040644 -12.3515625 31.9765625 C-12.34783353 33.94668434 -12.34498601 35.91680802 -12.34298706 37.88693237 C-12.33534146 43.07868548 -12.31568504 48.27032714 -12.2935791 53.46203613 C-12.26954872 59.68780718 -12.2603441 65.91361543 -12.24867249 72.13941956 C-12.22926117 81.60344061 -12.19094503 91.067217 -12.15625 100.53125 C4.67375 100.53125 21.50375 100.53125 38.84375 100.53125 C38.90188788 84.9394604 38.90188788 84.9394604 38.94140625 69.34765625 C38.95337822 62.99166541 38.96756572 56.63573199 38.99462891 50.27978516 C39.01630352 45.15752405 39.02830723 40.0353245 39.03350449 34.91302109 C39.03720994 32.9553213 39.04444541 30.99762502 39.05521011 29.03995132 C39.06965357 26.30536779 39.07173096 23.5710411 39.07080078 20.83642578 C39.07799133 20.02075134 39.08518188 19.2050769 39.09259033 18.36468506 C39.25317629 13.97989897 39.25317629 13.97989897 36.84375 10.53125 C34.75716129 10.22577108 34.75716129 10.22577108 32.33398438 10.27246094 C31.39961548 10.26615662 30.46524658 10.25985229 29.50256348 10.25335693 C27.98535706 10.25942963 27.98535706 10.25942963 26.4375 10.265625 C25.40185913 10.26371155 24.36621826 10.2617981 23.29919434 10.25982666 C21.10684975 10.25846403 18.91449711 10.26216586 16.72216797 10.27050781 C13.35756384 10.28120608 9.99349368 10.27061497 6.62890625 10.2578125 C4.50260298 10.25913408 2.37630005 10.26169644 0.25 10.265625 C-0.76147095 10.26157654 -1.77294189 10.25752808 -2.81506348 10.25335693 C-3.74943237 10.25966125 -4.68380127 10.26596558 -5.64648438 10.27246094 C-6.47096069 10.27405212 -7.29543701 10.27564331 -8.14489746 10.27728271 C-10.38501868 10.3513816 -10.38501868 10.3513816 -12.15625 12.53125 Z " fill="#050709" transform="translate(343.15625,313.46875)"/>
<path d="M0 0 C11.55 0 23.1 0 35 0 C36.88344791 8.16160763 38.64949405 16.17158352 40.0078125 24.41015625 C40.17876434 25.42548935 40.34971619 26.44082245 40.52584839 27.48692322 C41.06260973 30.67817338 41.59413032 33.87026497 42.125 37.0625 C42.66385484 40.28672037 43.20384883 43.51074261 43.74557495 46.73448181 C44.08021634 48.72746714 44.41307829 50.72075229 44.743927 52.71437073 C44.89433441 53.61308395 45.04474182 54.51179718 45.19970703 55.43774414 C45.33055695 56.22460098 45.46140686 57.01145782 45.59622192 57.82215881 C45.95324484 59.96209634 45.95324484 59.96209634 46.55001831 61.84764099 C47 64 47 64 47 71 C31.49 71 15.98 71 0 71 C0 47.57 0 24.14 0 0 Z " fill="#E03E50" transform="translate(261,140)"/>
<path d="M0 0 C11.55 0 23.1 0 35 0 C35 23.43 35 46.86 35 71 C19.49 71 3.98 71 -12 71 C-12 63.12513717 -12 63.12513717 -11.31323242 59.34423828 C-11.16274948 58.49870392 -11.01226654 57.65316956 -10.85722351 56.78201294 C-10.69164444 55.88715179 -10.52606537 54.99229065 -10.35546875 54.0703125 C-10.18501541 53.12171356 -10.01456207 52.17311462 -9.83894348 51.19577026 C-9.29415516 48.1711184 -8.74103541 45.148062 -8.1875 42.125 C-7.82690859 40.13291476 -7.46687763 38.14072798 -7.10742188 36.1484375 C-6.40645773 32.26528118 -5.70124684 28.38292953 -4.99365234 24.50097656 C-4.34820683 20.9481868 -3.71745613 17.39341314 -3.10400391 13.83496094 C-2.96730789 13.04443329 -2.83061188 12.25390564 -2.68977356 11.43942261 C-2.43760034 9.97449733 -2.1879993 8.50912603 -1.94145203 7.04324341 C-1.11014076 2.22028151 -1.11014076 2.22028151 0 0 Z " fill="#CFE2E6" transform="translate(216,140)"/>
<path d="M0 0 C11.55 0 23.1 0 35 0 C36.31355469 3.73570312 37.62710938 7.47140625 38.98046875 11.3203125 C40.0423562 14.33966674 41.10431198 17.35899692 42.16631317 20.37831116 C43.27942667 23.54299862 44.3923888 26.70773912 45.50512695 29.87255859 C46.36709557 32.32410017 47.22924523 34.77557809 48.09158325 37.22698975 C48.92924297 39.60852012 49.76638704 41.99023194 50.60299683 44.37213135 C52.291983 49.17566373 53.98295791 53.97761056 55.72900391 58.76074219 C55.96960037 59.42161835 56.21019684 60.08249451 56.45808411 60.76339722 C57.05136055 62.38539806 57.65092636 64.00509504 58.2512207 65.62451172 C59 68 59 68 59 71 C43.49 71 27.98 71 12 71 C9.81156371 59.15669771 7.6263227 47.31290463 5.45288086 35.46685791 C5.02852005 33.1553497 4.60323878 30.84401277 4.17773438 28.53271484 C3.46696203 24.66867284 2.76405587 20.80322665 2.0625 16.9375 C1.85149658 15.79313477 1.64049316 14.64876953 1.4230957 13.46972656 C1.23320068 12.41624023 1.04330566 11.36275391 0.84765625 10.27734375 C0.68273682 9.37234131 0.51781738 8.46733887 0.34790039 7.53491211 C0 5 0 5 0 0 Z " fill="#CEE1E6" transform="translate(306,140)"/>
<path d="M0 0 C11.55 0 23.1 0 35 0 C33.87475929 10.12716635 33.87475929 10.12716635 33.19970703 14.09814453 C32.97409592 15.43596481 32.97409592 15.43596481 32.743927 16.80081177 C32.58350922 17.73537201 32.42309143 18.66993225 32.2578125 19.6328125 C32.00425491 21.12516922 32.00425491 21.12516922 31.74557495 22.64767456 C31.38876885 24.74384629 31.03068513 26.83980091 30.67138672 28.93554688 C30.13023225 32.09445747 29.5941067 35.25419123 29.05859375 38.4140625 C28.70863605 40.46619748 28.35838476 42.51828242 28.0078125 44.5703125 C27.85144318 45.49272736 27.69507385 46.41514221 27.53396606 47.36550903 C26.17176153 55.28250766 24.57747961 63.11260193 23 71 C7.49 71 -8.02 71 -24 71 C-21.74992002 60.87464008 -21.74992002 60.87464008 -20.07641602 56.14819336 C-19.70585587 55.09357407 -19.33529572 54.03895477 -18.95350647 52.95237732 C-18.35970436 51.2879232 -18.35970436 51.2879232 -17.75390625 49.58984375 C-17.13623634 47.83952599 -17.13623634 47.83952599 -16.50608826 46.05384827 C-15.19643298 42.34665351 -13.87949085 38.64209424 -12.5625 34.9375 C-11.68117912 32.44482458 -10.80031524 29.95198754 -9.91992188 27.45898438 C-8.30028377 22.8791747 -6.67982566 18.29966648 -5.05297852 13.72241211 C-4.7281398 12.80801865 -4.40330109 11.89362518 -4.06861877 10.95152283 C-2.74288171 7.28983982 -1.36737681 3.64633815 0 0 Z " fill="#DF3E50" transform="translate(171,140)"/>
<path d="M0 0 C0.7031987 0.00707474 1.4063974 0.01414948 2.13090515 0.0214386 C4.36312102 0.04928913 6.59276952 0.11199805 8.82421875 0.17578125 C10.34306256 0.20087674 11.86194595 0.22368773 13.38085938 0.24414062 C17.09197123 0.29908118 20.80159416 0.38528386 24.51171875 0.48828125 C22.56823334 8.01393522 20.27155766 15.32895101 17.640625 22.640625 C17.27702377 23.66201065 16.91342255 24.6833963 16.5388031 25.73573303 C15.38775132 28.96712341 14.23127057 32.196535 13.07421875 35.42578125 C11.92173909 38.65180444 10.77044325 41.87824448 9.62034607 45.1051178 C8.90845836 47.10148892 8.19508177 49.09733006 7.47987366 51.09251404 C5.06014876 57.86449084 2.78719249 64.66186002 0.51171875 71.48828125 C-14.99828125 71.48828125 -30.50828125 71.48828125 -46.48828125 71.48828125 C-44.93725368 66.83519855 -43.38720391 63.15061697 -41.1015625 58.88671875 C-40.76752914 58.26026962 -40.43349579 57.6338205 -40.08934021 56.98838806 C-38.9978414 54.94413723 -37.89964476 52.90358146 -36.80078125 50.86328125 C-36.03842516 49.44181758 -35.27638474 48.02018457 -34.51464844 46.59838867 C-33.34267633 44.41131352 -32.17019537 42.22452282 -30.99569702 40.0388031 C-28.72313116 35.80695181 -26.47049178 31.56551441 -24.24162292 27.31048584 C-22.89767077 24.7450516 -21.54697531 22.18319858 -20.19564819 19.62164307 C-19.25779932 17.83790359 -18.32863255 16.04960786 -17.3996582 14.26123047 C-16.53860474 12.63531982 -16.53860474 12.63531982 -15.66015625 10.9765625 C-15.16612305 10.03337158 -14.67208984 9.09018066 -14.16308594 8.1184082 C-10.18021035 1.86366787 -7.51189768 -0.1496394 0 0 Z " fill="#CFE1E6" transform="translate(136.48828125,139.51171875)"/>
<path d="M0 0 C4.30491463 -0.12418758 8.6088635 -0.21461002 12.91503906 -0.2746582 C14.37778907 -0.29970529 15.84041512 -0.33375392 17.30273438 -0.37719727 C19.41307219 -0.43829356 21.52174752 -0.46630435 23.6328125 -0.48828125 C24.90012207 -0.51446533 26.16743164 -0.54064941 27.47314453 -0.56762695 C31.98123029 0.15792333 33.83053753 1.76952053 37 5 C38.59228516 7.32983398 38.59228516 7.32983398 39.7890625 9.74609375 C40.47959717 11.10879395 40.47959717 11.10879395 41.18408203 12.49902344 C41.65958496 13.4687207 42.13508789 14.43841797 42.625 15.4375 C43.67512426 17.51531419 44.72726001 19.59211281 45.78125 21.66796875 C46.31363281 22.72290527 46.84601563 23.7778418 47.39453125 24.86474609 C49.87673592 29.71214152 52.49664478 34.48073154 55.125 39.25 C59.04210987 46.3945153 62.93116852 53.55238963 66.75 60.75 C67.18070801 61.55469727 67.61141602 62.35939453 68.05517578 63.18847656 C71 68.76596144 71 68.76596144 71 71 C55.49 71 39.98 71 24 71 C22.515 66.4521875 22.515 66.4521875 21 61.8125 C16.03727036 46.76727676 10.64522068 31.87126918 5.28515625 16.96411133 C4.59634555 15.04118147 3.90754311 13.11824866 3.21875 11.1953125 C2.89410767 10.29734451 2.56946533 9.39937653 2.23498535 8.47419739 C1.94023315 7.65013901 1.64548096 6.82608063 1.34179688 5.97705078 C1.08168823 5.25446075 0.82157959 4.53187073 0.55358887 3.78738403 C0 2 0 2 0 0 Z " fill="#E03E50" transform="translate(351,140)"/>
<path d="M0 0 C16.17 0 32.34 0 49 0 C49.061875 6.414375 49.12375 12.82875 49.1875 19.4375 C49.22846802 22.44701782 49.22846802 22.44701782 49.27026367 25.51733398 C49.27903821 27.13524781 49.28667985 28.75316835 49.29296875 30.37109375 C49.30831665 31.18872192 49.32366455 32.0063501 49.33947754 32.84875488 C49.3435244 41.90157677 46.99783938 48.74439324 40.76953125 55.33984375 C34.65859266 61.07306428 28.41108515 61.42655365 20.328125 61.3359375 C14.36461996 60.73398746 10.2912653 58.40484095 6.1875 54.09765625 C0.6620938 47.17761627 -0.29620772 40.86621217 -0.1953125 32.2265625 C-0.19329834 31.40696045 -0.19128418 30.5873584 -0.18920898 29.74291992 C-0.17880502 26.70355573 -0.15088271 23.66427179 -0.125 20.625 C-0.08375 13.81875 -0.0425 7.0125 0 0 Z " fill="#DF3E50" transform="translate(377,220)"/>
<path d="M0 0 C16.17 0 32.34 0 49 0 C49.103125 6.88875 49.20625 13.7775 49.3125 20.875 C49.35802002 23.0288623 49.40354004 25.18272461 49.45043945 27.40185547 C49.6879487 46.62977352 49.6879487 46.62977352 42.59155273 54.57739258 C36.31782633 60.39575945 30.11126204 61.52776499 21.86328125 61.28125 C14.79086317 60.58655136 9.83107584 56.93146184 5 52 C0.12538281 45.44448033 -0.29250886 38.43051025 -0.1953125 30.56640625 C-0.19329834 29.78712769 -0.19128418 29.00784912 -0.18920898 28.20495605 C-0.17883047 25.32407656 -0.15090858 22.44328169 -0.125 19.5625 C-0.08375 13.106875 -0.0425 6.65125 0 0 Z " fill="#DF3E50" transform="translate(86,220)"/>
<path d="M0 0 C15.84 0 31.68 0 48 0 C48.0825 6.909375 48.165 13.81875 48.25 20.9375 C48.28641602 23.10046631 48.32283203 25.26343262 48.36035156 27.49194336 C48.3720491 29.2329001 48.38223839 30.97386791 48.390625 32.71484375 C48.41108887 33.59724731 48.43155273 34.47965088 48.45263672 35.38879395 C48.45665736 42.64101977 46.73866628 48.67922854 42.0703125 54.33984375 C41.42835938 54.86707031 40.78640625 55.39429688 40.125 55.9375 C39.16980469 56.75541016 39.16980469 56.75541016 38.1953125 57.58984375 C31.67167582 61.78029365 24.49374742 61.7246096 17 61 C10.82481632 59.32859696 6.40603665 55.33511936 3 50 C-0.05157534 44.15019483 -0.40539787 39.44904573 -0.29296875 32.91015625 C-0.28994751 32.07190308 -0.28692627 31.2336499 -0.28381348 30.36999512 C-0.26823086 27.26736977 -0.22634759 24.16492127 -0.1875 21.0625 C-0.125625 14.111875 -0.06375 7.16125 0 0 Z " fill="#E13E51" transform="translate(319,220)"/>
<path d="M0 0 C15.84 0 31.68 0 48 0 C48.1546875 10.6115625 48.1546875 10.6115625 48.3125 21.4375 C48.35802002 23.65267334 48.40354004 25.86784668 48.45043945 28.15014648 C48.46506064 29.93211357 48.47779744 31.71409752 48.48828125 33.49609375 C48.526651 34.85208679 48.526651 34.85208679 48.5657959 36.23547363 C48.57086542 43.72112575 46.40215413 49.40440915 41.21479797 54.88670349 C35.00970054 60.71061878 28.48366196 61.4689673 20.19140625 61.30859375 C13.13977465 60.62673464 8.8613782 57.42405957 4.32421875 52.171875 C0.27786751 45.53538151 -0.42746762 39.61966908 -0.29296875 32.03125 C-0.28994751 31.21366211 -0.28692627 30.39607422 -0.28381348 29.55371094 C-0.26826382 26.53567659 -0.22638121 23.51782395 -0.1875 20.5 C-0.125625 13.735 -0.06375 6.97 0 0 Z " fill="#E13E51" transform="translate(261,220)"/>
<path d="M0 0 C15.84 0 31.68 0 48 0 C48.0825 6.72375 48.165 13.4475 48.25 20.375 C48.28641602 22.47665527 48.32283203 24.57831055 48.36035156 26.74365234 C48.37205244 28.4410704 48.38224094 30.13849982 48.390625 31.8359375 C48.41108887 32.6916333 48.43155273 33.5473291 48.45263672 34.42895508 C48.45682065 41.79894169 46.70697067 48.58066863 42.0703125 54.4375 C34.32778503 60.65639757 27.88990144 61.83970861 18 61 C11.01977434 58.94026128 5.46730022 54.89781039 1.91967773 48.52612305 C-0.51488971 43.54685255 -0.513509 39.05289572 -0.390625 33.59375 C-0.38659668 32.7368457 -0.38256836 31.87994141 -0.37841797 30.99707031 C-0.35767076 27.83115879 -0.30182668 24.66555527 -0.25 21.5 C-0.1675 14.405 -0.085 7.31 0 0 Z " fill="#E13E51" transform="translate(203,220)"/>
<path d="M0 0 C15.84 0 31.68 0 48 0 C48.103125 6.88875 48.20625 13.7775 48.3125 20.875 C48.35802002 23.0288623 48.40354004 25.18272461 48.45043945 27.40185547 C48.6879487 46.62977352 48.6879487 46.62977352 41.59155273 54.57739258 C35.31782633 60.39575945 29.11126204 61.52776499 20.86328125 61.28125 C13.90062365 60.59733275 8.59745332 57.08250765 4 52 C0.15703003 45.71778052 -0.55840087 39.94935259 -0.390625 32.71484375 C-0.38659668 31.87860474 -0.38256836 31.04236572 -0.37841797 30.18078613 C-0.35771448 27.09946297 -0.30187143 24.01845609 -0.25 20.9375 C-0.12625 10.5734375 -0.12625 10.5734375 0 0 Z " fill="#E13E51" transform="translate(145,220)"/>
<path d="M0 0 C30.45614035 0 30.45614035 0 37.0234375 5.78125 C37.46945312 6.3484375 37.91546875 6.915625 38.375 7.5 C38.83648437 8.0671875 39.29796875 8.634375 39.7734375 9.21875 C43.8698507 15.16768127 43.37220965 21.12074223 43.37060547 28.10693359 C43.37495831 30.22967004 43.41124009 32.35029014 43.44921875 34.47265625 C43.52221129 43.10167148 43.11023471 49.33091759 37.21875 56.0234375 C36.6515625 56.46945313 36.084375 56.91546875 35.5 57.375 C34.9328125 57.83648437 34.365625 58.29796875 33.78125 58.7734375 C22.91661873 66.25478447 17.61126819 62 0 62 C0 41.54 0 21.08 0 0 Z " fill="#635F57" transform="translate(363,37)"/>
<path d="M0 0 C0 17.82 0 35.64 0 54 C-4.01842516 52.66052495 -7.19439886 51.51754608 -10.84375 49.6015625 C-12.20391235 48.8904834 -12.20391235 48.8904834 -13.59155273 48.16503906 C-14.55134033 47.65682617 -15.51112793 47.14861328 -16.5 46.625 C-17.49652588 46.10131836 -18.49305176 45.57763672 -19.51977539 45.03808594 C-30.07446039 39.47190891 -40.54781434 33.75587382 -51 28 C-51 27.34 -51 26.68 -51 26 C-50.22624023 25.60321045 -49.45248047 25.2064209 -48.65527344 24.79760742 C-45.01864874 22.93053736 -41.38377385 21.06011113 -37.75 19.1875 C-37.09494476 18.85007782 -36.43988953 18.51265564 -35.76498413 18.16500854 C-26.36065801 13.31558529 -17.02842919 8.3614028 -7.81738281 3.15112305 C-7.0694043 2.7312915 -6.32142578 2.31145996 -5.55078125 1.87890625 C-4.58652222 1.33085327 -4.58652222 1.33085327 -3.6027832 0.77172852 C-2 0 -2 0 0 0 Z " fill="#D48F4B" transform="translate(176,41)"/>
<path d="M0 0 C3.96 0 7.92 0 12 0 C12 6.93 12 13.86 12 21 C8.04 21 4.08 21 0 21 C0 14.07 0 7.14 0 0 Z " fill="#BACBCF" transform="translate(304,110)"/>
<path d="M0 0 C3.63 0 7.26 0 11 0 C11 6.27 11 12.54 11 19 C7.37 19 3.74 19 0 19 C0 12.73 0 6.46 0 0 Z " fill="#D2E5EA" transform="translate(207,111)"/>
<path d="M0 0 C3 0.25 3 0.25 5 2.25 C5.265625 4.74609375 5.265625 4.74609375 5.25 7.6875 C5.25515625 8.65558594 5.2603125 9.62367188 5.265625 10.62109375 C5 13.25 5 13.25 3 16.25 C0 16.625 0 16.625 -3 16.25 C-5.24234009 12.88648987 -5.27098215 11.62689944 -5.25 7.6875 C-5.25515625 6.71683594 -5.2603125 5.74617188 -5.265625 4.74609375 C-4.85802182 0.91582268 -3.76599392 0.31383283 0 0 Z " fill="#07070D" transform="translate(285,378.75)"/>
</svg>
