<?xml version="1.0" encoding="UTF-8"?>
<svg version="1.1" xmlns="http://www.w3.org/2000/svg" width="512" height="512">
<path d="M0 0 C1.45108658 0.00273422 1.45108658 0.00273422 2.93148804 0.00552368 C17.26440977 0.05095174 31.21023917 0.55983928 45.3125 3.3125 C46.65803955 3.55395752 46.65803955 3.55395752 48.03076172 3.80029297 C107.84088904 14.62287989 165.35495829 48.68064457 202.3125 97.3125 C202.72918945 97.85277832 203.14587891 98.39305664 203.57519531 98.94970703 C211.2584873 108.9447116 218.00092968 119.40459036 224.3125 130.3125 C224.70679199 130.98974121 225.10108398 131.66698242 225.50732422 132.36474609 C238.68961173 155.2833756 247.29510918 180.85822563 252.625 206.6875 C252.77243652 207.39817627 252.91987305 208.10885254 253.07177734 208.84106445 C256.05713787 224.48358366 256.6873098 240.11919606 256.625 256 C256.62226578 257.45108658 256.62226578 257.45108658 256.61947632 258.93148804 C256.57404826 273.26440977 256.06516072 287.21023917 253.3125 301.3125 C253.15152832 302.20952637 252.99055664 303.10655273 252.82470703 304.03076172 C242.00212011 363.84088904 207.94435543 421.35495829 159.3125 458.3125 C158.77222168 458.72918945 158.23194336 459.14587891 157.67529297 459.57519531 C147.6802884 467.2584873 137.22040964 474.00092968 126.3125 480.3125 C125.63525879 480.70679199 124.95801758 481.10108398 124.26025391 481.50732422 C101.3416244 494.68961173 75.76677437 503.29510918 49.9375 508.625 C49.22682373 508.77243652 48.51614746 508.91987305 47.78393555 509.07177734 C32.14141634 512.05713787 16.50580394 512.6873098 0.625 512.625 C-0.34239105 512.62317719 -1.3097821 512.62135437 -2.30648804 512.61947632 C-16.63940977 512.57404826 -30.58523917 512.06516072 -44.6875 509.3125 C-45.58452637 509.15152832 -46.48155273 508.99055664 -47.40576172 508.82470703 C-107.21588904 498.00212011 -164.72995829 463.94435543 -201.6875 415.3125 C-202.10418945 414.77222168 -202.52087891 414.23194336 -202.95019531 413.67529297 C-210.6334873 403.6802884 -217.37592968 393.22040964 -223.6875 382.3125 C-224.08179199 381.63525879 -224.47608398 380.95801758 -224.88232422 380.26025391 C-238.06461173 357.3416244 -246.67010918 331.76677437 -252 305.9375 C-252.14743652 305.22682373 -252.29487305 304.51614746 -252.44677734 303.78393555 C-255.43213787 288.14141634 -256.0623098 272.50580394 -256 256.625 C-255.99817719 255.65760895 -255.99635437 254.6902179 -255.99447632 253.69351196 C-255.94904826 239.36059023 -255.44016072 225.41476083 -252.6875 211.3125 C-252.44604248 209.96696045 -252.44604248 209.96696045 -252.19970703 208.59423828 C-241.37712011 148.78411096 -207.31935543 91.27004171 -158.6875 54.3125 C-158.14722168 53.89581055 -157.60694336 53.47912109 -157.05029297 53.04980469 C-147.0552884 45.3665127 -136.59540964 38.62407032 -125.6875 32.3125 C-125.01025879 31.91820801 -124.33301758 31.52391602 -123.63525391 31.11767578 C-100.7166244 17.93538827 -75.14177437 9.32989082 -49.3125 4 C-48.60182373 3.85256348 -47.89114746 3.70512695 -47.15893555 3.55322266 C-31.51641634 0.56786213 -15.88080394 -0.0623098 0 0 Z " fill="#FE9A00" transform="translate(255.6875,-0.3125)"/>
<path d="M0 0 C16.44349375 7.82115023 36.02329695 25.10709735 42.2153821 42.39284563 C46.73112652 60.14995774 45.47713961 79.42846596 44.83090137 97.60366603 C44.56120061 105.40254368 44.51040506 113.19898319 44.46845641 121.00185987 C44.38817983 134.9060833 44.14398 148.80211251 43.79125977 162.7019043 C43.44973564 176.17480451 43.18880438 189.64545095 43.0324707 203.12182617 C43.02274993 203.95742515 43.01302916 204.79302413 43.00301383 205.65394429 C42.95471485 209.84740916 42.90796068 214.04088956 42.8619734 218.23438036 C42.48061231 252.82886811 41.82815389 287.41340107 41 322 C45.29 322 49.58 322 54 322 C54 222.67 54 123.34 54 21 C58.19541651 24.59607129 62.13086917 28.00662169 65.99761963 31.88409424 C66.92846375 32.81500885 67.85930786 33.74592346 68.81835938 34.70504761 C69.82719178 35.71901206 70.83597936 36.7330211 71.84472656 37.74707031 C72.92439783 38.82866375 74.00429921 39.91002752 75.08441162 40.99118042 C77.39770562 43.3076201 79.70944071 45.62560016 82.01996613 47.94480133 C85.67312125 51.61153511 89.33013811 55.27440113 92.98773193 58.93670654 C100.74479433 66.70483951 108.49760573 74.47720878 116.25 82.25 C124.63415405 90.65618463 133.0190415 99.06163002 141.40880179 107.46221995 C145.04557238 111.10397484 148.67989053 114.74815438 152.31235552 118.39420366 C154.56819746 120.65749416 156.82609959 122.91872063 159.08457184 125.17938614 C160.13236579 126.22905494 161.17929352 127.27958923 162.22529602 128.33104324 C163.65132862 129.76427476 165.08073315 131.19414895 166.51031494 132.62384033 C167.30963566 133.42538166 168.10895638 134.22692299 168.93249893 135.05275345 C171.0435948 137.14943588 171.0435948 137.14943588 174 139 C174.85961914 141.51171875 174.85961914 141.51171875 175.53515625 144.6875 C175.91317383 146.4509375 175.91317383 146.4509375 176.29882812 148.25 C176.55083984 149.4875 176.80285156 150.725 177.0625 152 C177.31837891 153.175625 177.57425781 154.35125 177.83789062 155.5625 C181.40207032 172.56794349 182.38055451 189.34255029 182.3125 206.6875 C182.30976578 208.13858658 182.30976578 208.13858658 182.30697632 209.61898804 C182.26154826 223.95190977 181.75266072 237.89773917 179 252 C178.83902832 252.89702637 178.67805664 253.79405273 178.51220703 254.71826172 C167.68962011 314.52838904 133.63185543 372.04245829 85 409 C84.45972168 409.41668945 83.91944336 409.83337891 83.36279297 410.26269531 C73.3677884 417.9459873 62.90790964 424.68842968 52 431 C51.32275879 431.39429199 50.64551758 431.78858398 49.94775391 432.19482422 C27.0291244 445.37711173 1.45427437 453.98260918 -24.375 459.3125 C-25.08567627 459.45993652 -25.79635254 459.60737305 -26.52856445 459.75927734 C-42.17108366 462.74463787 -57.80669606 463.3748098 -73.6875 463.3125 C-74.65489105 463.31067719 -75.6222821 463.30885437 -76.61898804 463.30697632 C-90.93909323 463.26158888 -104.91622231 462.80354374 -119 460 C-120.49708496 459.71068604 -120.49708496 459.71068604 -122.02441406 459.41552734 C-136.32200157 456.60840938 -136.32200157 456.60840938 -142 455 C-143.18372696 454.66847931 -144.36745392 454.33695862 -145.58705139 453.99539185 C-151.30342183 451.81340153 -155.04680195 447.62079887 -159.26171875 443.32177734 C-160.59483345 441.99216728 -160.59483345 441.99216728 -161.95487976 440.63569641 C-164.37480647 438.21710251 -166.78312098 435.78797818 -169.18669891 433.35320234 C-171.70705855 430.80519441 -174.24129553 428.27106098 -176.77392578 425.73526001 C-181.01855904 421.48144477 -185.25393414 417.21859779 -189.48291016 412.94921875 C-195.4551627 406.91996197 -201.44477373 400.90817662 -207.43753242 394.89931178 C-211.58508375 390.73932646 -215.72850269 386.57522603 -219.87112808 382.41033602 C-220.87660559 381.39949199 -221.88219861 380.38876284 -222.88790512 379.37814665 C-226.18708075 376.06252677 -229.48145143 372.74219528 -232.7734375 369.41943359 C-234.03096077 368.1555204 -234.03096077 368.1555204 -235.31388855 366.86607361 C-236.06801529 366.10334641 -236.82214203 365.3406192 -237.59912109 364.55477905 C-238.25979584 363.88853201 -238.92047058 363.22228497 -239.60116577 362.53584862 C-241 361 -241 361 -241 360 C-155.86 360 -70.72 360 17 360 C17 355.38 17 350.76 17 346 C15.79570249 346.01198331 14.59140497 346.02396662 13.35061359 346.03631306 C-15.27629424 346.31823718 -43.90318293 346.53241111 -72.53116651 346.66384928 C-76.0594357 346.68010728 -79.58770197 346.69693358 -83.1159668 346.71411133 C-83.81834185 346.71752136 -84.5207169 346.7209314 -85.24437604 346.72444477 C-96.59773762 346.78091881 -107.95023814 346.88336406 -119.30308994 347.00298635 C-130.96371526 347.12482121 -142.62384029 347.19584674 -154.28507215 347.22315043 C-160.83066345 347.24007102 -167.37430604 347.27971317 -173.91927147 347.37449074 C-180.08652266 347.46307077 -186.25103255 347.48988507 -192.41885948 347.47039986 C-194.67596872 347.47396153 -196.93317439 347.49962749 -199.1897316 347.54967117 C-217.99184721 347.94601392 -217.99184721 347.94601392 -225.00378352 341.47500104 C-227.08517472 339.27266512 -228.99305203 336.99935167 -230.80956614 334.57465398 C-232.48450286 332.35912076 -234.36265115 330.34734674 -236.25 328.3125 C-237.78928539 326.53317753 -238.9478746 325.10425079 -240 323 C-155.19 323 -70.38 323 17 323 C16.505 173.51 16.505 173.51 16 21 C12.37 25.29 8.74 29.58 5 34 C3.02387473 36.31529337 1.04659771 38.62910698 -0.9375 40.9375 C-1.94662639 42.11327112 -2.95574061 43.28905268 -3.96484375 44.46484375 C-4.71677002 45.34052002 -4.71677002 45.34052002 -5.48388672 46.23388672 C-7.99100985 49.15442275 -10.49537328 52.07732311 -13 55 C-13.99998659 56.16667816 -14.9999866 57.33334482 -16 58.5 C-16.7425 59.36625 -16.7425 59.36625 -17.5 60.25 C-34 79.5 -34 79.5 -35.50073242 81.25073242 C-36.49845195 82.41481977 -37.49601114 83.57904456 -38.4934082 84.7434082 C-41.02698743 87.70069887 -43.56350137 90.65538369 -46.10546875 93.60546875 C-50.69606553 98.93835322 -55.25761398 104.28185945 -59.6875 109.75 C-63.23745321 114.12507747 -66.95563821 118.30549192 -70.75 122.46875 C-73.07862053 125.0884481 -75.29562947 127.7751531 -77.5 130.5 C-80.4081338 134.0947765 -83.38541332 137.58260628 -86.5 141 C-90.34558741 145.22416855 -93.96730971 149.58953073 -97.5625 154.02734375 C-101.77122483 159.16009951 -106.11906527 164.17345894 -110.45166016 169.20166016 C-112.97292926 172.13002159 -115.48615649 175.06526445 -118 178 C-121.01027043 181.51296399 -124.02129021 185.02527625 -127.03515625 188.53515625 C-131.87576555 194.17421656 -136.70493633 199.82213425 -141.5 205.5 C-146.7965589 211.77168949 -152.13604423 218.00591071 -157.48388672 224.23388672 C-159.99100985 227.15442275 -162.49537328 230.07732311 -165 233 C-165.99998659 234.16667816 -166.9999866 235.33334482 -168 236.5 C-168.495 237.0775 -168.99 237.655 -169.5 238.25 C-186 257.5 -186 257.5 -187.50024414 259.25024414 C-188.49948396 260.41605104 -189.49867023 261.58190386 -190.49780273 262.74780273 C-193.00899461 265.67800398 -195.52113393 268.60738291 -198.03515625 271.53515625 C-203.33006495 277.70345195 -208.6071359 283.8857655 -213.84912109 290.09912109 C-216.7590171 293.54474768 -219.69161185 296.96982406 -222.63574219 300.38623047 C-227.89359708 306.48951137 -233.03105334 312.65728573 -238 319 C-241.5633106 318.41420283 -243.30737233 317.10018301 -245.890625 314.62109375 C-246.95410156 313.61079102 -246.95410156 313.61079102 -248.0390625 312.58007812 C-248.76867187 311.87302734 -249.49828125 311.16597656 -250.25 310.4375 C-250.99507813 309.72658203 -251.74015625 309.01566406 -252.5078125 308.28320312 C-254.34488898 306.52855956 -256.17521269 304.76740606 -258 303 C-255.54186859 298.50051379 -252.44018604 294.87684885 -249.0625 291.0625 C-247.88765318 289.72167622 -246.71318231 288.38052295 -245.5390625 287.0390625 C-244.94641602 286.36391602 -244.35376953 285.68876953 -243.74316406 284.99316406 C-241.11948211 281.99320055 -238.52714677 278.9668414 -235.9375 275.9375 C-234.94662811 274.77993634 -233.95574269 273.62238426 -232.96484375 272.46484375 C-232.23177002 271.60802002 -232.23177002 271.60802002 -231.48388672 270.73388672 C-228.99104476 267.82105954 -226.49537234 264.91065939 -224 262 C-222.9999866 260.83334482 -221.99998659 259.66667816 -221 258.5 C-215 251.5 -215 251.5 -213.49975586 249.74975586 C-212.50051604 248.58394896 -211.50132977 247.41809614 -210.50219727 246.25219727 C-207.99100539 243.32199602 -205.47886607 240.39261709 -202.96484375 237.46484375 C-198.12423445 231.82578344 -193.29506367 226.17786575 -188.5 220.5 C-183.2034411 214.22831051 -177.86395577 207.99408929 -172.51611328 201.76611328 C-170.00899015 198.84557725 -167.50462672 195.92267689 -165 193 C-164.00001341 191.83332184 -163.0000134 190.66665518 -162 189.5 C-161.505 188.9225 -161.01 188.345 -160.5 187.75 C-144 168.5 -144 168.5 -142.49975586 166.74975586 C-141.50051604 165.58394896 -140.50132977 164.41809614 -139.50219727 163.25219727 C-136.99100539 160.32199602 -134.47886607 157.39261709 -131.96484375 154.46484375 C-130.95566358 153.28911879 -129.94654877 152.11333773 -128.9375 150.9375 C-128.44209717 150.36032227 -127.94669434 149.78314453 -127.4362793 149.18847656 C-124.50928 145.77404345 -121.60087885 142.3447643 -118.70483398 138.90405273 C-114.99557623 134.49756119 -111.25254855 130.13559927 -107.375 125.875 C-103.50132754 121.61533882 -99.87046906 117.19405203 -96.25 112.71875 C-93.35642111 109.22234218 -90.30650817 105.88491868 -87.25 102.53125 C-84.92137947 99.9115519 -82.70437053 97.2248469 -80.5 94.5 C-77.5918662 90.9052235 -74.61458668 87.41739372 -71.5 84 C-68.47717579 80.68010514 -65.57487839 77.30235888 -62.75 73.8125 C-57.53481485 67.37288007 -52.08668248 61.14544597 -46.64648438 54.89648438 C-44.06362591 51.92144811 -41.49943086 48.9305594 -38.9375 45.9375 C-38.44660889 45.36410889 -37.95571777 44.79071777 -37.44995117 44.19995117 C-36.46114797 43.04469482 -35.47245951 41.88934024 -34.48388672 40.73388672 C-32.49104529 38.40529839 -30.49635582 36.07829738 -28.50146484 33.75146484 C-27.50287817 32.58660944 -26.50450472 31.42157121 -25.50634766 30.25634766 C-22.97287723 27.29911478 -20.43642376 24.34452942 -17.89453125 21.39453125 C-11.8252547 14.34430358 -5.84790359 7.23604232 0 0 Z " fill="#E57500" transform="translate(330,49)"/>
<path d="M0 0 C0.33 0 0.66 0 1 0 C1 99.66 1 199.32 1 302 C-84.14 302 -169.28 302 -257 302 C-253.07488922 296.76651896 -249.17978823 291.76330851 -244.875 286.875 C-243.73146443 285.56537165 -242.5882426 284.25546929 -241.4453125 282.9453125 C-240.58534668 281.96159668 -240.58534668 281.96159668 -239.70800781 280.95800781 C-237.04116677 277.90082297 -234.39232713 274.82838144 -231.75 271.75 C-231.2537915 271.1720166 -230.75758301 270.5940332 -230.24633789 269.99853516 C-227.21641048 266.45648606 -224.24741591 262.87159468 -221.3125 259.25 C-217.76254679 254.87492253 -214.04436179 250.69450808 -210.25 246.53125 C-207.92137947 243.9115519 -205.70437053 241.2248469 -203.5 238.5 C-199.88967558 234.03723787 -196.11572071 229.77280467 -192.25 225.53125 C-189.92137947 222.9115519 -187.70437053 220.2248469 -185.5 217.5 C-182.5918662 213.9052235 -179.61458668 210.41739372 -176.5 207 C-173.47717579 203.68010514 -170.57487839 200.30235888 -167.75 196.8125 C-162.53481485 190.37288007 -157.08668248 184.14544597 -151.64648438 177.89648438 C-147.57097475 173.20215479 -143.53816153 168.47101259 -139.49707031 163.74707031 C-137.96713241 161.96164376 -136.43329199 160.17963855 -134.8984375 158.3984375 C-130.39349578 153.1661132 -125.91086652 147.92654337 -121.5625 142.5625 C-116.94205788 136.87451891 -112.13930778 131.35435149 -107.328125 125.828125 C-104.18058421 122.21265713 -101.0546347 118.57919443 -97.9375 114.9375 C-97.44660889 114.36410889 -96.95571777 113.79071777 -96.44995117 113.19995117 C-95.46114797 112.04469482 -94.47245951 110.88934024 -93.48388672 109.73388672 C-91.49104529 107.40529839 -89.49635582 105.07829738 -87.50146484 102.75146484 C-86.50287817 101.58660944 -85.50450472 100.42157121 -84.50634766 99.25634766 C-81.97287723 96.29911478 -79.43642376 93.34452942 -76.89453125 90.39453125 C-72.30393447 85.06164678 -67.74238602 79.71814055 -63.3125 74.25 C-59.76254679 69.87492253 -56.04436179 65.69450808 -52.25 61.53125 C-49.92137947 58.9115519 -47.70437053 56.2248469 -45.5 53.5 C-41.88967558 49.03723787 -38.11572071 44.77280467 -34.25 40.53125 C-31.92137947 37.9115519 -29.70437053 35.2248469 -27.5 32.5 C-24.5918662 28.9052235 -21.61458668 25.41739372 -18.5 22 C-13.7922168 16.83131495 -9.39119403 11.43793214 -5 6 C-3.35887895 3.97204327 -1.70684707 1.97354192 0 0 Z " fill="#00B7BE" transform="translate(346,69)"/>
<path d="M0 0 C0.33 0 0.66 0 1 0 C1 51.15 1 102.3 1 155 C-42.89 155 -86.78 155 -132 155 C-128.07488922 149.76651896 -124.17978823 144.76330851 -119.875 139.875 C-118.73146443 138.56537165 -117.5882426 137.25546929 -116.4453125 135.9453125 C-115.87200195 135.28950195 -115.29869141 134.63369141 -114.70800781 133.95800781 C-112.04116677 130.90082297 -109.39232713 127.82838144 -106.75 124.75 C-106.2537915 124.1720166 -105.75758301 123.5940332 -105.24633789 122.99853516 C-102.21641048 119.45648606 -99.24741591 115.87159468 -96.3125 112.25 C-92.76254679 107.87492253 -89.04436179 103.69450808 -85.25 99.53125 C-82.92137947 96.9115519 -80.70437053 94.2248469 -78.5 91.5 C-74.88967558 87.03723787 -71.11572071 82.77280467 -67.25 78.53125 C-64.92137947 75.9115519 -62.70437053 73.2248469 -60.5 70.5 C-57.5918662 66.9052235 -54.61458668 63.41739372 -51.5 60 C-48.47717579 56.68010514 -45.57487839 53.30235888 -42.75 49.8125 C-37.53481485 43.37288007 -32.08668248 37.14544597 -26.64648438 30.89648438 C-24.06362569 27.92144786 -21.49946203 24.93053302 -18.9375 21.9375 C-18.45458496 21.37353516 -17.97166992 20.80957031 -17.47412109 20.22851562 C-15.98241733 18.48595925 -14.49116429 16.74301804 -13 15 C-10.77136767 12.39537541 -8.54208961 9.79130516 -6.3125 7.1875 C-5.79486084 6.58220459 -5.27722168 5.97690918 -4.74389648 5.35327148 C-1.11283235 1.11283235 -1.11283235 1.11283235 0 0 Z " fill="#00E7F1" transform="translate(221,216)"/>
<path d="M0 0 C1.29608947 0.93137592 2.58671632 1.8703566 3.875 2.8125 C4.95394531 3.59560547 4.95394531 3.59560547 6.0546875 4.39453125 C8 6 8 6 10 9 C-29 54.5 -29 54.5 -30.50024414 56.25024414 C-31.49948396 57.41605104 -32.49867023 58.58190386 -33.49780273 59.74780273 C-36.00899461 62.67800398 -38.52113393 65.60738291 -41.03515625 68.53515625 C-45.87576555 74.17421656 -50.70493633 79.82213425 -55.5 85.5 C-60.7965589 91.77168949 -66.13604423 98.00591071 -71.48388672 104.23388672 C-73.49150941 106.57255701 -75.49733271 108.91276628 -77.50292969 111.25317383 C-78.49946014 112.41595521 -79.49620432 113.57855346 -80.49316406 114.7409668 C-83.03443768 117.70426447 -85.5726075 120.67013235 -88.10546875 123.640625 C-92.57540939 128.87776795 -97.0529519 134.09432474 -101.6875 139.1875 C-105.44515305 143.32831267 -108.97765938 147.61643593 -112.49609375 151.9609375 C-117.00629548 157.4350981 -121.6965829 162.75426306 -126.35351562 168.10351562 C-128.93637409 171.07855189 -131.50056914 174.0694406 -134.0625 177.0625 C-134.79883667 177.92258667 -134.79883667 177.92258667 -135.55004883 178.80004883 C-136.53885203 179.95530518 -137.52754049 181.11065976 -138.51611328 182.26611328 C-141.00895524 185.17894046 -143.50462766 188.08934061 -146 191 C-147.0000134 192.16665518 -148.00001341 193.33332184 -149 194.5 C-155 201.5 -155 201.5 -156.50024414 203.25024414 C-157.49948396 204.41605104 -158.49867023 205.58190386 -159.49780273 206.74780273 C-162.00899461 209.67800398 -164.52113393 212.60738291 -167.03515625 215.53515625 C-171.87576555 221.17421656 -176.70493633 226.82213425 -181.5 232.5 C-186.7965589 238.77168949 -192.13604423 245.00591071 -197.48388672 251.23388672 C-199.99100985 254.15442275 -202.49537328 257.07732311 -205 260 C-205.99998659 261.16667816 -206.9999866 262.33334482 -208 263.5 C-208.7425 264.36625 -208.7425 264.36625 -209.5 265.25 C-215 271.66666667 -220.5 278.08333333 -226 284.5 C-226.49564453 285.07862793 -226.99128906 285.65725586 -227.50195312 286.25341797 C-228.49394021 287.40998179 -229.48741105 288.5652748 -230.48242188 289.71923828 C-233.11912216 292.78124074 -235.720183 295.8665354 -238.28125 298.9921875 C-238.82007813 299.641875 -239.35890625 300.2915625 -239.9140625 300.9609375 C-240.94970795 302.21085442 -241.97622311 303.46840891 -242.9921875 304.734375 C-244.40625 306.4296875 -244.40625 306.4296875 -247 309 C-251.36795404 309 -251.74658993 308.77237852 -254.75 306 C-255.36359375 305.443125 -255.9771875 304.88625 -256.609375 304.3125 C-257.06828125 303.879375 -257.5271875 303.44625 -258 303 C-255.95953274 299.36822493 -253.71381615 296.41731552 -250.875 293.375 C-247.62912126 289.83499632 -244.51709748 286.23696635 -241.5 282.5 C-238.5918662 278.9052235 -235.61458668 275.41739372 -232.5 272 C-229.47717579 268.68010514 -226.57487839 265.30235888 -223.75 261.8125 C-218.53481485 255.37288007 -213.08668248 249.14544597 -207.64648438 242.89648438 C-205.06362591 239.92144811 -202.49943086 236.9305594 -199.9375 233.9375 C-199.20116333 233.07741333 -199.20116333 233.07741333 -198.44995117 232.19995117 C-197.46114797 231.04469482 -196.47245951 229.88934024 -195.48388672 228.73388672 C-192.99104476 225.82105954 -190.49537234 222.91065939 -188 220 C-186.9999866 218.83334482 -185.99998659 217.66667816 -185 216.5 C-167 195.5 -167 195.5 -165.49975586 193.74975586 C-164.50051604 192.58394896 -163.50132977 191.41809614 -162.50219727 190.25219727 C-159.99100539 187.32199602 -157.47886607 184.39261709 -154.96484375 181.46484375 C-150.12423445 175.82578344 -145.29506367 170.17786575 -140.5 164.5 C-134.20091594 157.04121402 -127.84005229 149.63584766 -121.47949219 142.22949219 C-108.28026279 126.89425338 -108.28026279 126.89425338 -95.375 111.3125 C-91.80184368 106.91917078 -88.0637577 102.7157897 -84.25 98.53125 C-81.92137947 95.9115519 -79.70437053 93.2248469 -77.5 90.5 C-74.5918662 86.9052235 -71.61458668 83.41739372 -68.5 80 C-65.47717579 76.68010514 -62.57487839 73.30235888 -59.75 69.8125 C-54.53481485 63.37288007 -49.08668248 57.14544597 -43.64648438 50.89648438 C-41.06362591 47.92144811 -38.49943086 44.9305594 -35.9375 41.9375 C-35.44660889 41.36410889 -34.95571777 40.79071777 -34.44995117 40.19995117 C-33.46114797 39.04469482 -32.47245951 37.88934024 -31.48388672 36.73388672 C-28.99104476 33.82105954 -26.49537263 30.91065914 -24 28 C-23.00779909 26.84245942 -22.01561161 25.68490731 -21.0234375 24.52734375 C-10.51171875 12.26367188 -10.51171875 12.26367188 0 0 Z " fill="#FEFCFA" transform="translate(321,40)"/>
<path d="M0 0 C4.29 0 8.58 0 13 0 C13 99.66 13 199.32 13 302 C8.71 302 4.42 302 0 302 C0 202.34 0 102.68 0 0 Z " fill="#FEF1C5" transform="translate(371,69)"/>
<path d="M0 0 C85.47 0 170.94 0 259 0 C259 4.29 259 8.58 259 13 C173.53 13 88.06 13 0 13 C0 8.71 0 4.42 0 0 Z " fill="#FDEDC0" transform="translate(88,396)"/>
<path d="M0 0 C1.29608947 0.93137592 2.58671632 1.8703566 3.875 2.8125 C4.95394531 3.59560547 4.95394531 3.59560547 6.0546875 4.39453125 C8 6 8 6 10 9 C-29 54.5 -29 54.5 -30.50024414 56.25024414 C-31.49948396 57.41605104 -32.49867023 58.58190386 -33.49780273 59.74780273 C-36.00899461 62.67800398 -38.52113393 65.60738291 -41.03515625 68.53515625 C-45.87576555 74.17421656 -50.70493633 79.82213425 -55.5 85.5 C-60.7965589 91.77168949 -66.13604423 98.00591071 -71.48388672 104.23388672 C-73.49211317 106.57326033 -75.4985726 108.91414481 -77.50463867 111.25537109 C-78.49520448 112.41105816 -79.48624662 113.56633713 -80.4777832 114.72119141 C-83.11272186 117.79116602 -85.73810356 120.86874109 -88.3515625 123.95703125 C-88.89941406 124.60220703 -89.44726562 125.24738281 -90.01171875 125.91210938 C-91.06650485 127.15461165 -92.11870184 128.39931775 -93.16796875 129.64648438 C-96.7750756 133.8875378 -96.7750756 133.8875378 -99 135 C-99.33 130.05 -99.66 125.1 -100 120 C-101.485 120.99 -101.485 120.99 -103 122 C-101.31660079 117.94003721 -98.4885361 114.88725632 -95.625 111.625 C-94.53374492 110.36728228 -93.44260218 109.10946708 -92.3515625 107.8515625 C-91.7937207 107.2112207 -91.23587891 106.57087891 -90.66113281 105.91113281 C-88.09129944 102.95454028 -85.5461971 99.97694314 -83 97 C-82.00144996 95.8345087 -81.00275155 94.66914452 -80.00390625 93.50390625 C-79.50906738 92.92656738 -79.01422852 92.34922852 -78.50439453 91.75439453 C-76.99193176 89.99059098 -75.47850478 88.22761904 -73.96484375 86.46484375 C-69.12423445 80.82578344 -64.29506367 75.17786575 -59.5 69.5 C-54.2034411 63.22831051 -48.86395577 56.99408929 -43.51611328 50.76611328 C-41.00899015 47.84557725 -38.50462672 44.92267689 -36 42 C-35.00001341 40.83332184 -34.0000134 39.66665518 -33 38.5 C-32.505 37.9225 -32.01 37.345 -31.5 36.75 C-21 24.5 -10.5 12.25 0 0 Z " fill="#FEF3C8" transform="translate(321,40)"/>
<path d="M0 0 C43.89 0 87.78 0 133 0 C133 3.96 133 7.92 133 12 C89.11 12 45.22 12 0 12 C0 8.04 0 4.08 0 0 Z " fill="#FFFFFF" transform="translate(89,396)"/>
<path d="M0 0 C3.38309535 1.96087007 5.75154206 4.11069151 8.48974609 6.8972168 C9.20948105 7.62331902 9.20948105 7.62331902 9.9437561 8.36408997 C11.45853208 9.89551472 12.96247559 11.43708393 14.46630859 12.97924805 C15.49815945 14.0261636 16.53070527 15.07239468 17.56396484 16.11791992 C20.08116049 18.66800104 22.58875763 21.22728419 25.09130859 23.79174805 C23.4898926 28.11047233 21.58327894 30.73975493 18.40380859 34.10424805 C17.51564453 35.05557617 16.62748047 36.0069043 15.71240234 36.98706055 C14.84744141 37.91260742 13.98248047 38.8381543 13.09130859 39.79174805 C10.73723168 42.44060355 8.41014969 45.1120277 6.09130859 47.79174805 C-17.1776326 28.85191219 -17.1776326 28.85191219 -21.90869141 17.79174805 C-22.42961186 12.49572348 -22.17072765 8.83937029 -19.23291016 4.3347168 C-14.15258473 -1.58483642 -7.19344638 -2.98811198 0 0 Z " fill="#E47501" transform="translate(175.90869140625,155.208251953125)"/>
<path d="M0 0 C2.31 0 4.62 0 7 0 C7.33 4.62 7.66 9.24 8 14 C9.65 13.01 11.3 12.02 13 11 C16.74471902 10.59878011 19.20647239 10.66782565 22.6875 12.125 C26.27702553 15.0354261 28.66251351 17.69384232 29.3515625 22.40234375 C29.57031239 29.01455636 28.33851365 33.3071661 23.9375 38.375 C19.7526493 40.69002379 15.6890466 40.84631573 11 40 C8.69140625 38.47265625 8.69140625 38.47265625 7 37 C6.67 37.99 6.34 38.98 6 40 C4.02 40 2.04 40 0 40 C0 26.8 0 13.6 0 0 Z " fill="#2D2B2B" transform="translate(402,204)"/>
<path d="M0 0 C2.85737497 1.35842416 3.91544227 2.5101116 6 5 C7.18681726 8.56045177 7.09689832 11.43808337 7.0625 15.1875 C7.05347656 16.45980469 7.04445312 17.73210937 7.03515625 19.04296875 C7.02355469 20.01878906 7.01195312 20.99460937 7 22 C7.66 22 8.32 22 9 22 C9 24.31 9 26.62 9 29 C6.69 29 4.38 29 2 29 C1.67 28.01 1.34 27.02 1 26 C0.195625 26.495 -0.60875 26.99 -1.4375 27.5 C-5.81746792 29.34419702 -9.31353168 29.75950131 -14 29 C-17 27.4375 -17 27.4375 -19 25 C-20.0625 21.5625 -20.0625 21.5625 -20 18 C-18.25348221 14.97718076 -16.75479662 13.44029803 -13.75 11.6875 C-9.61181465 10.65295366 -4.91566224 10.04216888 -1 12 C-1.33 10.02 -1.66 8.04 -2 6 C-3.58294782 5.94562393 -5.16644256 5.90703729 -6.75 5.875 C-7.63171875 5.85179687 -8.5134375 5.82859375 -9.421875 5.8046875 C-12.1135858 6.00860498 -13.69904974 6.63448279 -16 8 C-16.66 6.35 -17.32 4.7 -18 3 C-12.29273672 -0.9961471 -6.75644062 -0.92403015 0 0 Z " fill="#302D2B" transform="translate(229,423)"/>
<path d="M0 0 C2.27521255 1.42862183 4.03860599 2.58057987 5.6875 4.6875 C5.6875 5.3475 5.6875 6.0075 5.6875 6.6875 C3.3775 7.3475 1.0675 8.0075 -1.3125 8.6875 C-1.9725 8.0275 -2.6325 7.3675 -3.3125 6.6875 C-7.93557869 6.25456829 -7.93557869 6.25456829 -12.25 7.6875 C-13.97268584 10.93020277 -13.94326733 14.15803785 -13.3125 17.6875 C-11.87235074 20.37888543 -11.87235074 20.37888543 -9.3125 21.6875 C-6.32217326 21.59216321 -6.32217326 21.59216321 -3.3125 20.6875 C0.11646214 19.87108044 2.31378491 19.5629283 5.6875 20.6875 C4.16509883 24.95022329 1.65474754 26.66781034 -2.3125 28.6875 C-7.6497566 29.65791029 -12.25972405 29.02407824 -16.8046875 26.01171875 C-20.06362689 23.14959323 -21.87810025 19.96250075 -22.69140625 15.703125 C-22.99922445 10.57944147 -21.65869492 6.58645869 -18.3125 2.6875 C-12.74807024 -2.08804858 -6.81703274 -2.70108844 0 0 Z " fill="#453E3D" transform="translate(176.3125,155.3125)"/>
<path d="M0 0 C-1.32 0.33 -2.64 0.66 -4 1 C-4 1.99 -4 2.98 -4 4 C-1.03 4.495 -1.03 4.495 2 5 C2.25 7.3125 2.25 7.3125 2 10 C-0.04424538 11.97610386 -1.1176825 13 -4 13 C-4 14.65 -4 16.3 -4 18 C-7.94140436 18.30912975 -10.36169288 18.34690605 -13.875 16.4375 C-16.67977595 13.220257 -17.07449923 11.24645609 -17 7 C-15.25348221 3.97718076 -13.75479662 2.44029803 -10.75 0.6875 C-7.06432532 -0.23391867 -3.79605497 -0.12867983 0 0 Z " fill="#423D3D" transform="translate(226,434)"/>
<path d="M0 0 C3.70864386 0.92716097 5.20985284 2.6150923 7.5 5.625 C8.11304266 9.30325595 7.76122201 11.09068226 6.125 14.4375 C4.5 16.625 4.5 16.625 2.5 17.625 C-1.00337981 18.00580215 -2.86278626 18.02745078 -5.875 16.125 C-7.74247782 13.2519572 -8.13221152 11.01948801 -7.953125 7.59765625 C-6.96866468 3.31185915 -4.13226481 1.0330662 0 0 Z " fill="#DF7201" transform="translate(416.5,220.375)"/>
<path d="M0 0 C0.66 0.33 1.32 0.66 2 1 C2.25 3.3125 2.25 3.3125 2 6 C0.4375 7.875 0.4375 7.875 -2 9 C-5.75 8.6875 -5.75 8.6875 -9 8 C-9.33 6.35 -9.66 4.7 -10 3 C-6.68587278 -0.05919435 -4.45155852 -0.38709205 0 0 Z " fill="#D76F04" transform="translate(226,438)"/>
<path d="M0 0 C0.33 1.65 0.66 3.3 1 5 C-0.093125 5.309375 -1.18625 5.61875 -2.3125 5.9375 C-4.55407994 6.58337897 -6.7869351 7.2623117 -9 8 C-9.66 6.35 -10.32 4.7 -11 3 C-7.16674383 0.29417212 -4.67461851 -0.32613618 0 0 Z " fill="#473E3C" transform="translate(222,423)"/>
</svg>
